solid OpenSCAD_Model
  facet normal -0 0 1
    outer loop
      vertex 9.5 11.2 35
      vertex 40.5 -1 35
      vertex 40.5 11.2 35
    endloop
  endfacet
  facet normal 0 0 1
    outer loop
      vertex 40.5 -1 35
      vertex 9.5 11.2 35
      vertex 9.5 -1 35
    endloop
  endfacet
  facet normal 0 0 -1
    outer loop
      vertex 9.5 -1 7
      vertex 40.5 11.2 7
      vertex 40.5 -1 7
    endloop
  endfacet
  facet normal -0 0 -1
    outer loop
      vertex 40.5 11.2 7
      vertex 9.5 -1 7
      vertex 9.5 11.2 7
    endloop
  endfacet
  facet normal 0 -1 0
    outer loop
      vertex 9.5 -1 7
      vertex 40.5 -1 35
      vertex 9.5 -1 35
    endloop
  endfacet
  facet normal 0 -1 -0
    outer loop
      vertex 40.5 -1 35
      vertex 9.5 -1 7
      vertex 40.5 -1 7
    endloop
  endfacet
  facet normal 1 -0 0
    outer loop
      vertex 40.5 -1 35
      vertex 40.5 11.2 7
      vertex 40.5 11.2 35
    endloop
  endfacet
  facet normal 1 0 0
    outer loop
      vertex 40.5 11.2 7
      vertex 40.5 -1 35
      vertex 40.5 -1 7
    endloop
  endfacet
  facet normal 0 1 -0
    outer loop
      vertex 40.5 11.2 7
      vertex 9.5 11.2 35
      vertex 40.5 11.2 35
    endloop
  endfacet
  facet normal 0 1 0
    outer loop
      vertex 9.5 11.2 35
      vertex 40.5 11.2 7
      vertex 9.5 11.2 7
    endloop
  endfacet
  facet normal -1 0 0
    outer loop
      vertex 9.5 -1 7
      vertex 9.5 11.2 35
      vertex 9.5 11.2 7
    endloop
  endfacet
  facet normal -1 -0 0
    outer loop
      vertex 9.5 11.2 35
      vertex 9.5 -1 7
      vertex 9.5 -1 35
    endloop
  endfacet
endsolid OpenSCAD_Model
