solid OpenSCAD_Model
  facet normal -0 0 1
    outer loop
      vertex 9.5 1.51 10
      vertex 40.5 0 10
      vertex 40.5 1.51 10
    endloop
  endfacet
  facet normal 0 0 1
    outer loop
      vertex 40.5 0 10
      vertex 9.5 1.51 10
      vertex 9.5 0 10
    endloop
  endfacet
  facet normal 0 0 -1
    outer loop
      vertex 9.5 0 7
      vertex 40.5 1.51 7
      vertex 40.5 0 7
    endloop
  endfacet
  facet normal -0 0 -1
    outer loop
      vertex 40.5 1.51 7
      vertex 9.5 0 7
      vertex 9.5 1.51 7
    endloop
  endfacet
  facet normal 0 -1 0
    outer loop
      vertex 9.5 0 7
      vertex 40.5 0 10
      vertex 9.5 0 10
    endloop
  endfacet
  facet normal 0 -1 -0
    outer loop
      vertex 40.5 0 10
      vertex 9.5 0 7
      vertex 40.5 0 7
    endloop
  endfacet
  facet normal 1 -0 0
    outer loop
      vertex 40.5 0 10
      vertex 40.5 1.51 7
      vertex 40.5 1.51 10
    endloop
  endfacet
  facet normal 1 0 0
    outer loop
      vertex 40.5 1.51 7
      vertex 40.5 0 10
      vertex 40.5 0 7
    endloop
  endfacet
  facet normal 0 1 -0
    outer loop
      vertex 40.5 1.51 7
      vertex 9.5 1.51 10
      vertex 40.5 1.51 10
    endloop
  endfacet
  facet normal 0 1 0
    outer loop
      vertex 9.5 1.51 10
      vertex 40.5 1.51 7
      vertex 9.5 1.51 7
    endloop
  endfacet
  facet normal -1 0 0
    outer loop
      vertex 9.5 0 7
      vertex 9.5 1.51 10
      vertex 9.5 1.51 7
    endloop
  endfacet
  facet normal -1 -0 0
    outer loop
      vertex 9.5 1.51 10
      vertex 9.5 0 7
      vertex 9.5 0 10
    endloop
  endfacet
endsolid OpenSCAD_Model
