solid OpenSCAD_Model
  facet normal -0 0 1
    outer loop
      vertex 12.5 10.2 32
      vertex 37.5 0 32
      vertex 37.5 10.2 32
    endloop
  endfacet
  facet normal 0 0 1
    outer loop
      vertex 37.5 0 32
      vertex 12.5 10.2 32
      vertex 12.5 0 32
    endloop
  endfacet
  facet normal 0 0 -1
    outer loop
      vertex 12.5 0 10
      vertex 37.5 10.2 10
      vertex 37.5 0 10
    endloop
  endfacet
  facet normal -0 0 -1
    outer loop
      vertex 37.5 10.2 10
      vertex 12.5 0 10
      vertex 12.5 10.2 10
    endloop
  endfacet
  facet normal 0 -1 0
    outer loop
      vertex 12.5 0 10
      vertex 37.5 0 32
      vertex 12.5 0 32
    endloop
  endfacet
  facet normal 0 -1 -0
    outer loop
      vertex 37.5 0 32
      vertex 12.5 0 10
      vertex 37.5 0 10
    endloop
  endfacet
  facet normal 1 -0 0
    outer loop
      vertex 37.5 0 32
      vertex 37.5 10.2 10
      vertex 37.5 10.2 32
    endloop
  endfacet
  facet normal 1 0 0
    outer loop
      vertex 37.5 10.2 10
      vertex 37.5 0 32
      vertex 37.5 0 10
    endloop
  endfacet
  facet normal 0 1 -0
    outer loop
      vertex 37.5 10.2 10
      vertex 12.5 10.2 32
      vertex 37.5 10.2 32
    endloop
  endfacet
  facet normal 0 1 0
    outer loop
      vertex 12.5 10.2 32
      vertex 37.5 10.2 10
      vertex 12.5 10.2 10
    endloop
  endfacet
  facet normal -1 0 0
    outer loop
      vertex 12.5 0 10
      vertex 12.5 10.2 32
      vertex 12.5 10.2 10
    endloop
  endfacet
  facet normal -1 -0 0
    outer loop
      vertex 12.5 10.2 32
      vertex 12.5 0 10
      vertex 12.5 0 32
    endloop
  endfacet
endsolid OpenSCAD_Model
