solid OpenSCAD_Model
  facet normal -1 0 0
    outer loop
      vertex 0.0999994 0.0999994 0
      vertex 0.0999994 10.1 5.2
      vertex 0.0999994 10.1 0
    endloop
  endfacet
  facet normal -1 -0 0
    outer loop
      vertex 0.0999994 10.1 5.2
      vertex 0.0999994 0.0999994 0
      vertex 0.0999994 0.0999994 5.2
    endloop
  endfacet
  facet normal 0 0 1
    outer loop
      vertex 12.5 10.1 5.2
      vertex 10.5 7.2 5.2
      vertex 12.5 7.2 5.2
    endloop
  endfacet
  facet normal -0 0 1
    outer loop
      vertex 0.0999994 10.1 5.2
      vertex 10.5 7.2 5.2
      vertex 12.5 10.1 5.2
    endloop
  endfacet
  facet normal 0 0 1
    outer loop
      vertex 0.0999994 0.0999994 5.2
      vertex 10.5 7.2 5.2
      vertex 0.0999994 10.1 5.2
    endloop
  endfacet
  facet normal 0 0 1
    outer loop
      vertex 10.5 7.2 5.2
      vertex 0.0999994 0.0999994 5.2
      vertex 10.5 0.0999994 5.2
    endloop
  endfacet
  facet normal 0 0 1
    outer loop
      vertex 49.9 10.1 5.2
      vertex 39.5 7.2 5.2
      vertex 49.9 0.0999994 5.2
    endloop
  endfacet
  facet normal -0 0 1
    outer loop
      vertex 37.5 10.1 5.2
      vertex 39.5 7.2 5.2
      vertex 49.9 10.1 5.2
    endloop
  endfacet
  facet normal 0 0 1
    outer loop
      vertex 39.5 7.2 5.2
      vertex 37.5 10.1 5.2
      vertex 37.5 7.2 5.2
    endloop
  endfacet
  facet normal 0 0 1
    outer loop
      vertex 49.9 0.0999994 5.2
      vertex 39.5 7.2 5.2
      vertex 39.5 0.0999994 5.2
    endloop
  endfacet
  facet normal 1 -0 0
    outer loop
      vertex 49.9 0.0999994 5.2
      vertex 49.9 10.1 0
      vertex 49.9 10.1 5.2
    endloop
  endfacet
  facet normal 1 0 0
    outer loop
      vertex 49.9 10.1 0
      vertex 49.9 0.0999994 5.2
      vertex 49.9 0.0999994 0
    endloop
  endfacet
  facet normal 0 1 -0
    outer loop
      vertex 49.9 10.1 0
      vertex 37.5 10.1 5.2
      vertex 49.9 10.1 5.2
    endloop
  endfacet
  facet normal 0 1 0
    outer loop
      vertex 37.5 10.1 5.2
      vertex 49.9 10.1 0
      vertex 37.5 10.1 0
    endloop
  endfacet
  facet normal 0 1 -0
    outer loop
      vertex 12.5 10.1 0
      vertex 0.0999994 10.1 5.2
      vertex 12.5 10.1 5.2
    endloop
  endfacet
  facet normal 0 1 0
    outer loop
      vertex 0.0999994 10.1 5.2
      vertex 12.5 10.1 0
      vertex 0.0999994 10.1 0
    endloop
  endfacet
  facet normal 0 0 -1
    outer loop
      vertex 10.5 0.0999994 0
      vertex 0.0999994 0.0999994 0
      vertex 10.5 7.2 0
    endloop
  endfacet
  facet normal 0 0 -1
    outer loop
      vertex 10.5 7.2 0
      vertex 12.5 10.1 0
      vertex 12.5 7.2 0
    endloop
  endfacet
  facet normal 0 0 -1
    outer loop
      vertex 0.0999994 10.1 0
      vertex 10.5 7.2 0
      vertex 0.0999994 0.0999994 0
    endloop
  endfacet
  facet normal 0 0 -1
    outer loop
      vertex 10.5 7.2 0
      vertex 0.0999994 10.1 0
      vertex 12.5 10.1 0
    endloop
  endfacet
  facet normal 0 0 -1
    outer loop
      vertex 39.5 7.2 0
      vertex 49.9 0.0999994 0
      vertex 39.5 0.0999994 0
    endloop
  endfacet
  facet normal 0 0 -1
    outer loop
      vertex 49.9 0.0999994 0
      vertex 39.5 7.2 0
      vertex 49.9 10.1 0
    endloop
  endfacet
  facet normal 0 0 -1
    outer loop
      vertex 37.5 10.1 0
      vertex 39.5 7.2 0
      vertex 37.5 7.2 0
    endloop
  endfacet
  facet normal 0 0 -1
    outer loop
      vertex 39.5 7.2 0
      vertex 37.5 10.1 0
      vertex 49.9 10.1 0
    endloop
  endfacet
  facet normal 0 -1 0
    outer loop
      vertex 0.0999994 0.0999994 0
      vertex 10.5 0.0999994 5.2
      vertex 0.0999994 0.0999994 5.2
    endloop
  endfacet
  facet normal 0 -1 -0
    outer loop
      vertex 10.5 0.0999994 5.2
      vertex 0.0999994 0.0999994 0
      vertex 10.5 0.0999994 0
    endloop
  endfacet
  facet normal 0 -1 0
    outer loop
      vertex 39.5 0.0999994 0
      vertex 49.9 0.0999994 5.2
      vertex 39.5 0.0999994 5.2
    endloop
  endfacet
  facet normal 0 -1 -0
    outer loop
      vertex 49.9 0.0999994 5.2
      vertex 39.5 0.0999994 0
      vertex 49.9 0.0999994 0
    endloop
  endfacet
  facet normal 1 -0 0
    outer loop
      vertex 10.5 0.0999994 5.2
      vertex 10.5 7.2 0
      vertex 10.5 7.2 5.2
    endloop
  endfacet
  facet normal 1 0 0
    outer loop
      vertex 10.5 7.2 0
      vertex 10.5 0.0999994 5.2
      vertex 10.5 0.0999994 0
    endloop
  endfacet
  facet normal -1 0 0
    outer loop
      vertex 39.5 0.0999994 0
      vertex 39.5 7.2 5.2
      vertex 39.5 7.2 0
    endloop
  endfacet
  facet normal -1 -0 0
    outer loop
      vertex 39.5 7.2 5.2
      vertex 39.5 0.0999994 0
      vertex 39.5 0.0999994 5.2
    endloop
  endfacet
  facet normal 0 -1 0
    outer loop
      vertex 10.5 7.2 0
      vertex 12.5 7.2 5.2
      vertex 10.5 7.2 5.2
    endloop
  endfacet
  facet normal 0 -1 -0
    outer loop
      vertex 12.5 7.2 5.2
      vertex 10.5 7.2 0
      vertex 12.5 7.2 0
    endloop
  endfacet
  facet normal 0 -1 0
    outer loop
      vertex 37.5 7.2 0
      vertex 39.5 7.2 5.2
      vertex 37.5 7.2 5.2
    endloop
  endfacet
  facet normal 0 -1 -0
    outer loop
      vertex 39.5 7.2 5.2
      vertex 37.5 7.2 0
      vertex 39.5 7.2 0
    endloop
  endfacet
  facet normal 1 -0 0
    outer loop
      vertex 12.5 7.2 5.2
      vertex 12.5 10.1 0
      vertex 12.5 10.1 5.2
    endloop
  endfacet
  facet normal 1 0 0
    outer loop
      vertex 12.5 10.1 0
      vertex 12.5 7.2 5.2
      vertex 12.5 7.2 0
    endloop
  endfacet
  facet normal -1 0 0
    outer loop
      vertex 37.5 7.2 0
      vertex 37.5 10.1 5.2
      vertex 37.5 10.1 0
    endloop
  endfacet
  facet normal -1 -0 0
    outer loop
      vertex 37.5 10.1 5.2
      vertex 37.5 7.2 0
      vertex 37.5 7.2 5.2
    endloop
  endfacet
endsolid OpenSCAD_Model
