solid OpenSCAD_Model
  facet normal -0 0 1
    outer loop
      vertex 11.1 9.2 38.8
      vertex 63.9 7.2 38.8
      vertex 63.9 9.2 38.8
    endloop
  endfacet
  facet normal 0 0 1
    outer loop
      vertex 63.9 7.2 38.8
      vertex 11.1 9.2 38.8
      vertex 11.1 7.2 38.8
    endloop
  endfacet
  facet normal 0 0 -1
    outer loop
      vertex 11.1 7.2 32.8
      vertex 63.9 9.2 32.8
      vertex 63.9 7.2 32.8
    endloop
  endfacet
  facet normal -0 0 -1
    outer loop
      vertex 63.9 9.2 32.8
      vertex 11.1 7.2 32.8
      vertex 11.1 9.2 32.8
    endloop
  endfacet
  facet normal 0 -1 0
    outer loop
      vertex 11.1 7.2 32.8
      vertex 63.9 7.2 38.8
      vertex 11.1 7.2 38.8
    endloop
  endfacet
  facet normal 0 -1 -0
    outer loop
      vertex 63.9 7.2 38.8
      vertex 11.1 7.2 32.8
      vertex 63.9 7.2 32.8
    endloop
  endfacet
  facet normal 1 -0 0
    outer loop
      vertex 63.9 7.2 38.8
      vertex 63.9 9.2 32.8
      vertex 63.9 9.2 38.8
    endloop
  endfacet
  facet normal 1 0 0
    outer loop
      vertex 63.9 9.2 32.8
      vertex 63.9 7.2 38.8
      vertex 63.9 7.2 32.8
    endloop
  endfacet
  facet normal 0 1 -0
    outer loop
      vertex 63.9 9.2 32.8
      vertex 11.1 9.2 38.8
      vertex 63.9 9.2 38.8
    endloop
  endfacet
  facet normal 0 1 0
    outer loop
      vertex 11.1 9.2 38.8
      vertex 63.9 9.2 32.8
      vertex 11.1 9.2 32.8
    endloop
  endfacet
  facet normal -1 0 0
    outer loop
      vertex 11.1 7.2 32.8
      vertex 11.1 9.2 38.8
      vertex 11.1 9.2 32.8
    endloop
  endfacet
  facet normal -1 -0 0
    outer loop
      vertex 11.1 9.2 38.8
      vertex 11.1 7.2 32.8
      vertex 11.1 7.2 38.8
    endloop
  endfacet
endsolid OpenSCAD_Model
