solid OpenSCAD_Model
  facet normal -0 0 1
    outer loop
      vertex 7.1 10.2 38.9
      vertex 67.9 0 38.9
      vertex 67.9 10.2 38.9
    endloop
  endfacet
  facet normal 0 0 1
    outer loop
      vertex 67.9 0 38.9
      vertex 7.1 10.2 38.9
      vertex 7.1 0 38.9
    endloop
  endfacet
  facet normal 0 0 -1
    outer loop
      vertex 7.1 0 35.7
      vertex 67.9 10.2 35.7
      vertex 67.9 0 35.7
    endloop
  endfacet
  facet normal -0 0 -1
    outer loop
      vertex 67.9 10.2 35.7
      vertex 7.1 0 35.7
      vertex 7.1 10.2 35.7
    endloop
  endfacet
  facet normal 0 -1 0
    outer loop
      vertex 7.1 0 35.7
      vertex 67.9 0 38.9
      vertex 7.1 0 38.9
    endloop
  endfacet
  facet normal 0 -1 -0
    outer loop
      vertex 67.9 0 38.9
      vertex 7.1 0 35.7
      vertex 67.9 0 35.7
    endloop
  endfacet
  facet normal 1 -0 0
    outer loop
      vertex 67.9 0 38.9
      vertex 67.9 10.2 35.7
      vertex 67.9 10.2 38.9
    endloop
  endfacet
  facet normal 1 0 0
    outer loop
      vertex 67.9 10.2 35.7
      vertex 67.9 0 38.9
      vertex 67.9 0 35.7
    endloop
  endfacet
  facet normal 0 1 -0
    outer loop
      vertex 67.9 10.2 35.7
      vertex 7.1 10.2 38.9
      vertex 67.9 10.2 38.9
    endloop
  endfacet
  facet normal 0 1 0
    outer loop
      vertex 7.1 10.2 38.9
      vertex 67.9 10.2 35.7
      vertex 7.1 10.2 35.7
    endloop
  endfacet
  facet normal -1 0 0
    outer loop
      vertex 7.1 0 35.7
      vertex 7.1 10.2 38.9
      vertex 7.1 10.2 35.7
    endloop
  endfacet
  facet normal -1 -0 0
    outer loop
      vertex 7.1 10.2 38.9
      vertex 7.1 0 35.7
      vertex 7.1 0 38.9
    endloop
  endfacet
endsolid OpenSCAD_Model
