solid OpenSCAD_Model
  facet normal -1 0 0
    outer loop
      vertex 10.5 -1 38.9
      vertex 10.5 5 39
      vertex 10.5 5 38.9
    endloop
  endfacet
  facet normal -1 -0 0
    outer loop
      vertex 10.5 5 39
      vertex 10.5 -1 38.9
      vertex 10.5 -1 39
    endloop
  endfacet
  facet normal -1 0 0
    outer loop
      vertex 10.5 -1 -1
      vertex 10.5 5 35.7
      vertex 10.5 5 -1
    endloop
  endfacet
  facet normal -1 -0 0
    outer loop
      vertex 10.5 5 35.7
      vertex 10.5 -1 -1
      vertex 10.5 -1 35.7
    endloop
  endfacet
  facet normal 0 0 1
    outer loop
      vertex 40.5 17.2 39
      vertex 39.5 5 39
      vertex 40.5 5 39
    endloop
  endfacet
  facet normal 0 0 1
    outer loop
      vertex 39.5 5 39
      vertex 10.5 5 39
      vertex 39.5 -1 39
    endloop
  endfacet
  facet normal 0 0 1
    outer loop
      vertex 40.5 17.2 39
      vertex 10.5 5 39
      vertex 39.5 5 39
    endloop
  endfacet
  facet normal -0 0 1
    outer loop
      vertex 9.5 17.2 39
      vertex 10.5 5 39
      vertex 40.5 17.2 39
    endloop
  endfacet
  facet normal 0 0 1
    outer loop
      vertex 10.5 5 39
      vertex 9.5 17.2 39
      vertex 9.5 5 39
    endloop
  endfacet
  facet normal 0 0 1
    outer loop
      vertex 39.5 -1 39
      vertex 10.5 5 39
      vertex 10.5 -1 39
    endloop
  endfacet
  facet normal 1 -0 0
    outer loop
      vertex 39.5 -1 39
      vertex 39.5 5 38.9
      vertex 39.5 5 39
    endloop
  endfacet
  facet normal 1 0 0
    outer loop
      vertex 39.5 5 38.9
      vertex 39.5 -1 39
      vertex 39.5 -1 38.9
    endloop
  endfacet
  facet normal 1 -0 0
    outer loop
      vertex 39.5 -1 35.7
      vertex 39.5 5 -1
      vertex 39.5 5 35.7
    endloop
  endfacet
  facet normal 1 0 0
    outer loop
      vertex 39.5 5 -1
      vertex 39.5 -1 35.7
      vertex 39.5 -1 -1
    endloop
  endfacet
  facet normal 0 0 -1
    outer loop
      vertex 39.5 -1 -1
      vertex 10.5 -1 -1
      vertex 39.5 5 -1
    endloop
  endfacet
  facet normal 0 0 -1
    outer loop
      vertex 39.5 5 -1
      vertex 40.5 17.2 -1
      vertex 40.5 5 -1
    endloop
  endfacet
  facet normal 0 0 -1
    outer loop
      vertex 10.5 5 -1
      vertex 39.5 5 -1
      vertex 10.5 -1 -1
    endloop
  endfacet
  facet normal 0 0 -1
    outer loop
      vertex 39.5 5 -1
      vertex 10.5 5 -1
      vertex 40.5 17.2 -1
    endloop
  endfacet
  facet normal 0 0 -1
    outer loop
      vertex 9.5 17.2 -1
      vertex 10.5 5 -1
      vertex 9.5 5 -1
    endloop
  endfacet
  facet normal 0 0 -1
    outer loop
      vertex 10.5 5 -1
      vertex 9.5 17.2 -1
      vertex 40.5 17.2 -1
    endloop
  endfacet
  facet normal 0 -1 0
    outer loop
      vertex 10.5 -1 -1
      vertex 39.5 -1 35.7
      vertex 10.5 -1 35.7
    endloop
  endfacet
  facet normal 0 -1 -0
    outer loop
      vertex 39.5 -1 35.7
      vertex 10.5 -1 -1
      vertex 39.5 -1 -1
    endloop
  endfacet
  facet normal 0 -1 0
    outer loop
      vertex 10.5 -1 35.7
      vertex 10.5 -1 38.9
      vertex 8.5 -1 38.9
    endloop
  endfacet
  facet normal 0 -1 0
    outer loop
      vertex 10.5 -1 38.9
      vertex 10.5 -1 35.7
      vertex 39.5 -1 38.9
    endloop
  endfacet
  facet normal 0 -1 0
    outer loop
      vertex 10.5 -1 35.7
      vertex 8.5 -1 38.9
      vertex 8.5 -1 35.7
    endloop
  endfacet
  facet normal 0 -1 0
    outer loop
      vertex 39.5 -1 35.7
      vertex 39.5 -1 38.9
      vertex 10.5 -1 35.7
    endloop
  endfacet
  facet normal 0 -1 0
    outer loop
      vertex 39.5 -1 38.9
      vertex 39.5 -1 35.7
      vertex 41.5 -1 38.9
    endloop
  endfacet
  facet normal 0 -1 -0
    outer loop
      vertex 41.5 -1 38.9
      vertex 39.5 -1 35.7
      vertex 41.5 -1 35.7
    endloop
  endfacet
  facet normal 0 -1 0
    outer loop
      vertex 10.5 -1 38.9
      vertex 39.5 -1 39
      vertex 10.5 -1 39
    endloop
  endfacet
  facet normal 0 -1 -0
    outer loop
      vertex 39.5 -1 39
      vertex 10.5 -1 38.9
      vertex 39.5 -1 38.9
    endloop
  endfacet
  facet normal -1 0 0
    outer loop
      vertex 9.5 17.2 -1
      vertex 9.5 11.2 35.7
      vertex 9.5 17.2 39
    endloop
  endfacet
  facet normal -1 0 0
    outer loop
      vertex 9.5 5 -1
      vertex 9.5 11.2 35.7
      vertex 9.5 17.2 -1
    endloop
  endfacet
  facet normal -1 -0 0
    outer loop
      vertex 9.5 11.2 35.7
      vertex 9.5 5 -1
      vertex 9.5 5 35.7
    endloop
  endfacet
  facet normal -1 0 0
    outer loop
      vertex 9.5 11.2 38.9
      vertex 9.5 17.2 39
      vertex 9.5 11.2 35.7
    endloop
  endfacet
  facet normal -1 0 0
    outer loop
      vertex 9.5 5 39
      vertex 9.5 11.2 38.9
      vertex 9.5 5 38.9
    endloop
  endfacet
  facet normal -1 0 0
    outer loop
      vertex 9.5 11.2 38.9
      vertex 9.5 5 39
      vertex 9.5 17.2 39
    endloop
  endfacet
  facet normal 1 0 0
    outer loop
      vertex 40.5 11.2 35.7
      vertex 40.5 17.2 39
      vertex 40.5 11.2 38.9
    endloop
  endfacet
  facet normal 1 -0 0
    outer loop
      vertex 40.5 5 39
      vertex 40.5 11.2 38.9
      vertex 40.5 17.2 39
    endloop
  endfacet
  facet normal 1 0 0
    outer loop
      vertex 40.5 11.2 38.9
      vertex 40.5 5 39
      vertex 40.5 5 38.9
    endloop
  endfacet
  facet normal 1 0 0
    outer loop
      vertex 40.5 17.2 39
      vertex 40.5 11.2 35.7
      vertex 40.5 17.2 -1
    endloop
  endfacet
  facet normal 1 0 0
    outer loop
      vertex 40.5 5 -1
      vertex 40.5 11.2 35.7
      vertex 40.5 5 35.7
    endloop
  endfacet
  facet normal 1 0 0
    outer loop
      vertex 40.5 11.2 35.7
      vertex 40.5 5 -1
      vertex 40.5 17.2 -1
    endloop
  endfacet
  facet normal 0 1 -0
    outer loop
      vertex 40.5 17.2 -1
      vertex 9.5 17.2 39
      vertex 40.5 17.2 39
    endloop
  endfacet
  facet normal 0 1 0
    outer loop
      vertex 9.5 17.2 39
      vertex 40.5 17.2 -1
      vertex 9.5 17.2 -1
    endloop
  endfacet
  facet normal 0 -1 0
    outer loop
      vertex 9.5 5 38.9
      vertex 10.5 5 39
      vertex 9.5 5 39
    endloop
  endfacet
  facet normal 0 -1 -0
    outer loop
      vertex 10.5 5 39
      vertex 9.5 5 38.9
      vertex 10.5 5 38.9
    endloop
  endfacet
  facet normal 0 -1 0
    outer loop
      vertex 39.5 5 38.9
      vertex 40.5 5 39
      vertex 39.5 5 39
    endloop
  endfacet
  facet normal 0 -1 -0
    outer loop
      vertex 40.5 5 39
      vertex 39.5 5 38.9
      vertex 40.5 5 38.9
    endloop
  endfacet
  facet normal 0 -1 0
    outer loop
      vertex 9.5 5 -1
      vertex 10.5 5 35.7
      vertex 9.5 5 35.7
    endloop
  endfacet
  facet normal 0 -1 -0
    outer loop
      vertex 10.5 5 35.7
      vertex 9.5 5 -1
      vertex 10.5 5 -1
    endloop
  endfacet
  facet normal 0 -1 0
    outer loop
      vertex 39.5 5 -1
      vertex 40.5 5 35.7
      vertex 39.5 5 35.7
    endloop
  endfacet
  facet normal 0 -1 -0
    outer loop
      vertex 40.5 5 35.7
      vertex 39.5 5 -1
      vertex 40.5 5 -1
    endloop
  endfacet
  facet normal -1 0 0
    outer loop
      vertex 8.5 -1 35.7
      vertex 8.5 11.2 38.9
      vertex 8.5 11.2 35.7
    endloop
  endfacet
  facet normal -1 -0 0
    outer loop
      vertex 8.5 11.2 38.9
      vertex 8.5 -1 35.7
      vertex 8.5 -1 38.9
    endloop
  endfacet
  facet normal 0 0 1
    outer loop
      vertex 9.5 11.2 38.9
      vertex 8.5 11.2 38.9
      vertex 9.5 5 38.9
    endloop
  endfacet
  facet normal -0 0 1
    outer loop
      vertex 9.5 5 38.9
      vertex 10.5 -1 38.9
      vertex 10.5 5 38.9
    endloop
  endfacet
  facet normal 0 0 1
    outer loop
      vertex 9.5 5 38.9
      vertex 8.5 -1 38.9
      vertex 10.5 -1 38.9
    endloop
  endfacet
  facet normal 0 0 1
    outer loop
      vertex 8.5 -1 38.9
      vertex 9.5 5 38.9
      vertex 8.5 11.2 38.9
    endloop
  endfacet
  facet normal 0 0 1
    outer loop
      vertex 40.5 5 38.9
      vertex 41.5 11.2 38.9
      vertex 40.5 11.2 38.9
    endloop
  endfacet
  facet normal 0 0 1
    outer loop
      vertex 41.5 11.2 38.9
      vertex 40.5 5 38.9
      vertex 41.5 -1 38.9
    endloop
  endfacet
  facet normal 0 0 1
    outer loop
      vertex 39.5 -1 38.9
      vertex 40.5 5 38.9
      vertex 39.5 5 38.9
    endloop
  endfacet
  facet normal 0 0 1
    outer loop
      vertex 40.5 5 38.9
      vertex 39.5 -1 38.9
      vertex 41.5 -1 38.9
    endloop
  endfacet
  facet normal 1 -0 0
    outer loop
      vertex 41.5 -1 38.9
      vertex 41.5 11.2 35.7
      vertex 41.5 11.2 38.9
    endloop
  endfacet
  facet normal 1 0 0
    outer loop
      vertex 41.5 11.2 35.7
      vertex 41.5 -1 38.9
      vertex 41.5 -1 35.7
    endloop
  endfacet
  facet normal 0 0 -1
    outer loop
      vertex 10.5 -1 35.7
      vertex 9.5 5 35.7
      vertex 10.5 5 35.7
    endloop
  endfacet
  facet normal 0 0 -1
    outer loop
      vertex 8.5 -1 35.7
      vertex 9.5 5 35.7
      vertex 10.5 -1 35.7
    endloop
  endfacet
  facet normal 0 0 -1
    outer loop
      vertex 8.5 11.2 35.7
      vertex 9.5 5 35.7
      vertex 8.5 -1 35.7
    endloop
  endfacet
  facet normal 0 0 -1
    outer loop
      vertex 9.5 5 35.7
      vertex 8.5 11.2 35.7
      vertex 9.5 11.2 35.7
    endloop
  endfacet
  facet normal 0 0 -1
    outer loop
      vertex 41.5 -1 35.7
      vertex 40.5 5 35.7
      vertex 41.5 11.2 35.7
    endloop
  endfacet
  facet normal 0 0 -1
    outer loop
      vertex 39.5 -1 35.7
      vertex 40.5 5 35.7
      vertex 41.5 -1 35.7
    endloop
  endfacet
  facet normal -0 0 -1
    outer loop
      vertex 40.5 5 35.7
      vertex 39.5 -1 35.7
      vertex 39.5 5 35.7
    endloop
  endfacet
  facet normal -0 0 -1
    outer loop
      vertex 41.5 11.2 35.7
      vertex 40.5 5 35.7
      vertex 40.5 11.2 35.7
    endloop
  endfacet
  facet normal 0 1 -0
    outer loop
      vertex 41.5 11.2 35.7
      vertex 40.5 11.2 38.9
      vertex 41.5 11.2 38.9
    endloop
  endfacet
  facet normal 0 1 0
    outer loop
      vertex 40.5 11.2 38.9
      vertex 41.5 11.2 35.7
      vertex 40.5 11.2 35.7
    endloop
  endfacet
  facet normal 0 1 -0
    outer loop
      vertex 9.5 11.2 35.7
      vertex 8.5 11.2 38.9
      vertex 9.5 11.2 38.9
    endloop
  endfacet
  facet normal 0 1 0
    outer loop
      vertex 8.5 11.2 38.9
      vertex 9.5 11.2 35.7
      vertex 8.5 11.2 35.7
    endloop
  endfacet
endsolid OpenSCAD_Model
