solid OpenSCAD_Model
  facet normal 0 1 0
    outer loop
      vertex 25 10.2 34.3858
      vertex 25 10.2 35.8
      vertex 25.7071 10.2 35.0929
    endloop
  endfacet
  facet normal 0.00500457 0.999202 -0.0396153
    outer loop
      vertex 25 10.2 34.3858
      vertex 36.6874 10 30.8177
      vertex 36.5628 10 30.802
    endloop
  endfacet
  facet normal 4.14012e-29 -1 -2.22045e-16
    outer loop
      vertex 37.3763 -1.06971e-16 32.2818
      vertex 37.229 -1.52e-16 32.4845
      vertex 37.4298 -8.17401e-17 32.1681
    endloop
  endfacet
  facet normal -0 -1 -2.22045e-16
    outer loop
      vertex 37.229 1.52e-16 31.1155
      vertex 35.691 -1.30515e-16 32.3878
      vertex 14.229 1.52e-16 31.1155
    endloop
  endfacet
  facet normal -0.0135002 0.999846 -0.0111684
    outer loop
      vertex 24.2929 10.2 35.0929
      vertex 12.771 10 31.1155
      vertex 12.691 10 31.2122
    endloop
  endfacet
  facet normal -1.14586e-28 -1 -2.22045e-16
    outer loop
      vertex 12.5702 -8.17401e-17 32.1681
      vertex 12.691 -1.30515e-16 32.3878
      vertex 12.6237 -1.06971e-16 32.2818
    endloop
  endfacet
  facet normal -0.24999 0 0.968248
    outer loop
      vertex 25 10.2 35.8
      vertex 13.191 -2.11177e-16 32.7511
      vertex 25 0 35.8
    endloop
  endfacet
  facet normal -5.84625e-30 -1 -2.22045e-16
    outer loop
      vertex 13.3126 -2.18112e-16 32.7823
      vertex 13.191 -2.11177e-16 32.7511
      vertex 13.0742 -2.00912e-16 32.7048
    endloop
  endfacet
  facet normal 0.998027 2.22744e-17 -0.0627905
    outer loop
      vertex 37.4921 2.78296e-17 31.6747
      vertex 37.5 10 31.8
      vertex 37.5 0 31.8
    endloop
  endfacet
  facet normal -0.014873 0.999865 -0.00699868
    outer loop
      vertex 12.5702 10 31.4319
      vertex 24.2929 10.2 35.0929
      vertex 12.6237 10 31.3182
    endloop
  endfacet
  facet normal 0.0224265 0.999497 0.0224265
    outer loop
      vertex 25.7071 10.2 35.0929
      vertex 25 10.2 35.8
      vertex 37.229 10 32.4845
    endloop
  endfacet
  facet normal 1.34912e-14 -1 5.23228e-14
    outer loop
      vertex 36.809 -2.11177e-16 32.7511
      vertex 25 0 35.8
      vertex 36.6874 -2.18112e-16 32.7823
    endloop
  endfacet
  facet normal -0.0224265 0.999497 0.0224265
    outer loop
      vertex 12.771 10 32.4845
      vertex 25 10.2 35.8
      vertex 24.2929 10.2 35.0929
    endloop
  endfacet
  facet normal 0 1 0
    outer loop
      vertex 25 10.2 35.8
      vertex 25 10.2 34.3858
      vertex 24.2929 10.2 35.0929
    endloop
  endfacet
  facet normal -0.0185625 0.99981 0.00603132
    outer loop
      vertex 24.2929 10.2 35.0929
      vertex 12.5314 10 32.0487
      vertex 12.5702 10 32.1681
    endloop
  endfacet
  facet normal -6.61179e-31 -1 -2.22045e-16
    outer loop
      vertex 13.4372 -2.21606e-16 32.798
      vertex 13.3126 -2.18112e-16 32.7823
      vertex 13.0742 -2.00912e-16 32.7048
    endloop
  endfacet
  facet normal 0.125333 3.5247e-16 -0.992115
    outer loop
      vertex 36.5628 10 30.802
      vertex 36.6874 10 30.8177
      vertex 36.5628 2.21606e-16 30.802
    endloop
  endfacet
  facet normal 0 -1 -2.22045e-16
    outer loop
      vertex 14.229 1.52e-16 31.1155
      vertex 35.691 -1.30515e-16 32.3878
      vertex 12.691 -1.30515e-16 32.3878
    endloop
  endfacet
  facet normal 0.0166643 0.999861 -0.00104843
    outer loop
      vertex 25.7071 10.2 35.0929
      vertex 37.5 10 31.8
      vertex 37.4921 10 31.6747
    endloop
  endfacet
  facet normal 0.24999 0 0.968248
    outer loop
      vertex 25 10.2 35.8
      vertex 25 0 35.8
      vertex 36.809 10 32.7511
    endloop
  endfacet
  facet normal -2.89492e-32 -1 -2.22045e-16
    outer loop
      vertex 13.0742 -2.00912e-16 32.7048
      vertex 12.691 -1.30515e-16 32.3878
      vertex 13.9258 -2.00912e-16 32.7048
    endloop
  endfacet
  facet normal -0.904827 0 0.425779
    outer loop
      vertex 12.5702 10 32.1681
      vertex 12.5702 -8.17401e-17 32.1681
      vertex 12.6237 -1.06971e-16 32.2818
    endloop
  endfacet
  facet normal -0.24999 0 0.968248
    outer loop
      vertex 13.191 -2.11177e-16 32.7511
      vertex 25 10.2 35.8
      vertex 13.191 10 32.7511
    endloop
  endfacet
  facet normal -0.0482622 0.991369 0.121896
    outer loop
      vertex 13.191 10 32.7511
      vertex 25 10.2 35.8
      vertex 13.0742 10 32.7048
    endloop
  endfacet
  facet normal -0.368125 0 0.929776
    outer loop
      vertex 13.191 -2.11177e-16 32.7511
      vertex 13.191 10 32.7511
      vertex 13.0742 10 32.7048
    endloop
  endfacet
  facet normal -0.0229799 0.999436 0.0244711
    outer loop
      vertex 25 10.2 35.8
      vertex 12.771 10 32.4845
      vertex 12.8626 10 32.5705
    endloop
  endfacet
  facet normal -0.0129017 0.999834 -0.0129017
    outer loop
      vertex 24.2929 10.2 35.0929
      vertex 25 10.2 34.3858
      vertex 12.771 10 31.1155
    endloop
  endfacet
  facet normal -0 -1 -2.22045e-16
    outer loop
      vertex 37.229 1.52e-16 31.1155
      vertex 14.229 1.52e-16 31.1155
      vertex 36.5628 2.21606e-16 30.802
    endloop
  endfacet
  facet normal 2.54312e-29 -1 -2.22045e-16
    outer loop
      vertex 37.1374 1.71088e-16 31.0295
      vertex 37.229 1.52e-16 31.1155
      vertex 37.0358 1.87478e-16 30.9557
    endloop
  endfacet
  facet normal 0 0.998446 -0.0557198
    outer loop
      vertex 13.4372 10 30.802
      vertex 25 10.2 34.3858
      vertex 36.5628 10 30.802
    endloop
  endfacet
  facet normal -6.26895e-30 -1 -2.22045e-16
    outer loop
      vertex 12.9642 -1.87478e-16 32.6443
      vertex 12.771 -1.52e-16 32.4845
      vertex 13.0742 -2.00912e-16 32.7048
    endloop
  endfacet
  facet normal -0.014218 0.999858 -0.00902303
    outer loop
      vertex 12.6237 10 31.3182
      vertex 24.2929 10.2 35.0929
      vertex 12.691 10 31.2122
    endloop
  endfacet
  facet normal 0.844328 0 -0.535827
    outer loop
      vertex 37.3763 1.06971e-16 31.3182
      vertex 37.309 1.30515e-16 31.2122
      vertex 37.3763 10 31.3182
    endloop
  endfacet
  facet normal 0.0127273 0.999827 -0.0135532
    outer loop
      vertex 37.1374 10 31.0295
      vertex 25 10.2 34.3858
      vertex 37.229 10 31.1155
    endloop
  endfacet
  facet normal 7.3172e-32 -1 -2.22045e-16
    outer loop
      vertex 35.691 -1.30515e-16 32.3878
      vertex 37.229 1.52e-16 31.1155
      vertex 37.229 -1.52e-16 32.4845
    endloop
  endfacet
  facet normal 0.368125 0 0.929776
    outer loop
      vertex 36.809 10 32.7511
      vertex 36.809 -2.11177e-16 32.7511
      vertex 36.9258 10 32.7048
    endloop
  endfacet
  facet normal 0.904827 0 0.425779
    outer loop
      vertex 37.4298 10 32.1681
      vertex 37.3763 -1.06971e-16 32.2818
      vertex 37.4298 -8.17401e-17 32.1681
    endloop
  endfacet
  facet normal 0.481754 -6.22302e-16 0.876307
    outer loop
      vertex 37.0358 -1.87478e-16 32.6443
      vertex 36.9258 10 32.7048
      vertex 36.9258 -2.00912e-16 32.7048
    endloop
  endfacet
  facet normal 0.684547 0 -0.728969
    outer loop
      vertex 37.1374 10 31.0295
      vertex 37.229 1.52e-16 31.1155
      vertex 37.1374 1.71088e-16 31.0295
    endloop
  endfacet
  facet normal 8.18201e-31 -1 -2.22045e-16
    outer loop
      vertex 36.809 2.11177e-16 30.8489
      vertex 37.229 1.52e-16 31.1155
      vertex 36.6874 2.18112e-16 30.8177
    endloop
  endfacet
  facet normal 0.24999 0 0.968248
    outer loop
      vertex 36.809 10 32.7511
      vertex 25 0 35.8
      vertex 36.809 -2.11177e-16 32.7511
    endloop
  endfacet
  facet normal 0 -1 7.38203e-17
    outer loop
      vertex 36.5628 -2.21606e-16 32.798
      vertex 25 0 35.8
      vertex 13.4372 -2.21606e-16 32.798
    endloop
  endfacet
  facet normal -0.770513 2.26543e-16 -0.637424
    outer loop
      vertex 12.691 10 31.2122
      vertex 12.771 10 31.1155
      vertex 12.771 1.52e-16 31.1155
    endloop
  endfacet
  facet normal -1.18991e-30 -1 -2.22045e-16
    outer loop
      vertex 12.691 -1.30515e-16 32.3878
      vertex 12.5079 2.78296e-17 31.6747
      vertex 12.771 1.52e-16 31.1155
    endloop
  endfacet
  facet normal -0.481754 0 0.876307
    outer loop
      vertex 12.9642 -1.87478e-16 32.6443
      vertex 13.0742 10 32.7048
      vertex 12.9642 10 32.6443
    endloop
  endfacet
  facet normal -0.031699 0.997833 0.0576602
    outer loop
      vertex 13.0742 10 32.7048
      vertex 25 10.2 35.8
      vertex 12.9642 10 32.6443
    endloop
  endfacet
  facet normal -0.684547 -5.17963e-16 0.728969
    outer loop
      vertex 12.771 10 32.4845
      vertex 12.771 -1.52e-16 32.4845
      vertex 12.8626 -1.71088e-16 32.5705
    endloop
  endfacet
  facet normal -6.60626e-29 -1 -2.22045e-16
    outer loop
      vertex 12.771 -1.52e-16 32.4845
      vertex 12.9642 -1.87478e-16 32.6443
      vertex 12.8626 -1.71088e-16 32.5705
    endloop
  endfacet
  facet normal 7.2648e-31 -1 -2.22045e-16
    outer loop
      vertex 36.6874 -2.18112e-16 32.7823
      vertex 36.5628 -2.21606e-16 32.798
      vertex 36.9258 -2.00912e-16 32.7048
    endloop
  endfacet
  facet normal -1.00047e-29 -1 -2.22045e-16
    outer loop
      vertex 12.5079 2.78296e-17 31.6747
      vertex 12.6237 1.06971e-16 31.3182
      vertex 12.691 1.30515e-16 31.2122
    endloop
  endfacet
  facet normal -0.0127273 0.999827 -0.0135532
    outer loop
      vertex 12.771 10 31.1155
      vertex 25 10.2 34.3858
      vertex 12.8626 10 31.0295
    endloop
  endfacet
  facet normal -0.684547 2.58982e-16 -0.728969
    outer loop
      vertex 12.771 1.52e-16 31.1155
      vertex 12.771 10 31.1155
      vertex 12.8626 10 31.0295
    endloop
  endfacet
  facet normal -3.68596e-30 -1 -2.22045e-16
    outer loop
      vertex 13.0742 -2.00912e-16 32.7048
      vertex 12.771 -1.52e-16 32.4845
      vertex 12.691 -1.30515e-16 32.3878
    endloop
  endfacet
  facet normal 0 3.55271e-16 -1
    outer loop
      vertex 13.4372 10 30.802
      vertex 36.5628 10 30.802
      vertex 36.5628 2.21606e-16 30.802
    endloop
  endfacet
  facet normal -2.91201e-32 -1 -2.22045e-16
    outer loop
      vertex 13.4372 -2.21606e-16 32.798
      vertex 13.0742 -2.00912e-16 32.7048
      vertex 13.9258 -2.00912e-16 32.7048
    endloop
  endfacet
  facet normal -7.27999e-17 -1 3.54226e-16
    outer loop
      vertex 13.4372 -2.21606e-16 32.798
      vertex 25 0 35.8
      vertex 13.3126 -2.18112e-16 32.7823
    endloop
  endfacet
  facet normal 0.844328 0 0.535827
    outer loop
      vertex 37.309 -1.30515e-16 32.3878
      vertex 37.3763 -1.06971e-16 32.2818
      vertex 37.3763 10 32.2818
    endloop
  endfacet
  facet normal 8.2111e-31 -1 -2.22045e-16
    outer loop
      vertex 37.229 -1.52e-16 32.4845
      vertex 37.229 1.52e-16 31.1155
      vertex 37.4921 2.78296e-17 31.6747
    endloop
  endfacet
  facet normal 0.982287 0 -0.187381
    outer loop
      vertex 37.4686 5.52202e-17 31.5513
      vertex 37.4686 10 31.5513
      vertex 37.4921 2.78296e-17 31.6747
    endloop
  endfacet
  facet normal 1.24246e-30 -1 -2.22045e-16
    outer loop
      vertex 37.4298 -8.17401e-17 32.1681
      vertex 37.229 -1.52e-16 32.4845
      vertex 37.4921 2.78296e-17 31.6747
    endloop
  endfacet
  facet normal 0.844328 1.90364e-16 -0.535827
    outer loop
      vertex 37.309 1.30515e-16 31.2122
      vertex 37.309 10 31.2122
      vertex 37.3763 10 31.3182
    endloop
  endfacet
  facet normal 0.0154872 0.999867 -0.00503209
    outer loop
      vertex 25.7071 10.2 35.0929
      vertex 37.4686 10 31.5513
      vertex 37.4298 10 31.4319
    endloop
  endfacet
  facet normal 0.00781349 0.999506 -0.0304315
    outer loop
      vertex 36.6874 10 30.8177
      vertex 25 10.2 34.3858
      vertex 36.809 10 30.8489
    endloop
  endfacet
  facet normal 0.0129017 0.999834 -0.0129017
    outer loop
      vertex 25 10.2 34.3858
      vertex 25.7071 10.2 35.0929
      vertex 37.229 10 31.1155
    endloop
  endfacet
  facet normal 0.368125 -6.60646e-16 0.929776
    outer loop
      vertex 36.9258 10 32.7048
      vertex 36.809 -2.11177e-16 32.7511
      vertex 36.9258 -2.00912e-16 32.7048
    endloop
  endfacet
  facet normal 5.26162e-30 -1 -2.22045e-16
    outer loop
      vertex 36.809 -2.11177e-16 32.7511
      vertex 36.6874 -2.18112e-16 32.7823
      vertex 36.9258 -2.00912e-16 32.7048
    endloop
  endfacet
  facet normal -1.34912e-14 -1 5.23228e-14
    outer loop
      vertex 25 0 35.8
      vertex 13.191 -2.11177e-16 32.7511
      vertex 13.3126 -2.18112e-16 32.7823
    endloop
  endfacet
  facet normal 0 -1 -2.22045e-16
    outer loop
      vertex 13.9258 -2.00912e-16 32.7048
      vertex 35.691 -1.30515e-16 32.3878
      vertex 36.9258 -2.00912e-16 32.7048
    endloop
  endfacet
  facet normal -0.684547 0 0.728969
    outer loop
      vertex 12.771 10 32.4845
      vertex 12.8626 -1.71088e-16 32.5705
      vertex 12.8626 10 32.5705
    endloop
  endfacet
  facet normal -0.587785 0 0.809017
    outer loop
      vertex 12.8626 -1.71088e-16 32.5705
      vertex 12.9642 -1.87478e-16 32.6443
      vertex 12.8626 10 32.5705
    endloop
  endfacet
  facet normal -0.951057 0 0.309017
    outer loop
      vertex 12.5314 -5.52202e-17 32.0487
      vertex 12.5702 -8.17401e-17 32.1681
      vertex 12.5314 10 32.0487
    endloop
  endfacet
  facet normal -3.08844e-30 -1 -2.22045e-16
    outer loop
      vertex 12.691 -1.30515e-16 32.3878
      vertex 12.5702 -8.17401e-17 32.1681
      vertex 12.5079 2.78296e-17 31.6747
    endloop
  endfacet
  facet normal -0.770513 -4.52917e-16 0.637424
    outer loop
      vertex 12.691 -1.30515e-16 32.3878
      vertex 12.771 -1.52e-16 32.4845
      vertex 12.691 10 32.3878
    endloop
  endfacet
  facet normal -9.31502e-29 -1 -2.22045e-16
    outer loop
      vertex 12.5702 -8.17401e-17 32.1681
      vertex 12.5314 -5.52202e-17 32.0487
      vertex 12.5079 -2.78296e-17 31.9253
    endloop
  endfacet
  facet normal -0.00500457 0.999202 -0.0396153
    outer loop
      vertex 25 10.2 34.3858
      vertex 13.4372 10 30.802
      vertex 13.3126 10 30.8177
    endloop
  endfacet
  facet normal -3.37118e-32 -1 -2.22045e-16
    outer loop
      vertex 13.4372 2.21606e-16 30.802
      vertex 14.229 1.52e-16 31.1155
      vertex 12.771 1.52e-16 31.1155
    endloop
  endfacet
  facet normal -0.24869 3.44303e-16 -0.968583
    outer loop
      vertex 13.191 10 30.8489
      vertex 13.3126 10 30.8177
      vertex 13.3126 2.18112e-16 30.8177
    endloop
  endfacet
  facet normal -0.0166643 0.999861 -0.00104843
    outer loop
      vertex 12.5 10 31.8
      vertex 24.2929 10.2 35.0929
      vertex 12.5079 10 31.6747
    endloop
  endfacet
  facet normal 0 3.55271e-16 -1
    outer loop
      vertex 13.4372 10 30.802
      vertex 36.5628 2.21606e-16 30.802
      vertex 13.4372 2.21606e-16 30.802
    endloop
  endfacet
  facet normal -0 -1 -2.22045e-16
    outer loop
      vertex 36.5628 2.21606e-16 30.802
      vertex 14.229 1.52e-16 31.1155
      vertex 13.4372 2.21606e-16 30.802
    endloop
  endfacet
  facet normal -0.368125 -6.6098e-16 0.929776
    outer loop
      vertex 13.191 -2.11177e-16 32.7511
      vertex 13.0742 10 32.7048
      vertex 13.0742 -2.00912e-16 32.7048
    endloop
  endfacet
  facet normal -0.481754 -6.22653e-16 0.876307
    outer loop
      vertex 13.0742 10 32.7048
      vertex 12.9642 -1.87478e-16 32.6443
      vertex 13.0742 -2.00912e-16 32.7048
    endloop
  endfacet
  facet normal 0.0229799 0.999436 0.0244711
    outer loop
      vertex 37.229 10 32.4845
      vertex 25 10.2 35.8
      vertex 37.1374 10 32.5705
    endloop
  endfacet
  facet normal 6.35292e-29 -1 -2.22045e-16
    outer loop
      vertex 37.0358 -1.87478e-16 32.6443
      vertex 37.229 -1.52e-16 32.4845
      vertex 37.1374 -1.71088e-16 32.5705
    endloop
  endfacet
  facet normal 0.770513 -4.52917e-16 0.637424
    outer loop
      vertex 37.229 10 32.4845
      vertex 37.229 -1.52e-16 32.4845
      vertex 37.309 -1.30515e-16 32.3878
    endloop
  endfacet
  facet normal 9.08117e-29 -1 -2.22045e-16
    outer loop
      vertex 37.229 -1.52e-16 32.4845
      vertex 37.3763 -1.06971e-16 32.2818
      vertex 37.309 -1.30515e-16 32.3878
    endloop
  endfacet
  facet normal 0.019326 0.999772 0.00909414
    outer loop
      vertex 37.4298 10 32.1681
      vertex 25.7071 10.2 35.0929
      vertex 37.3763 10 32.2818
    endloop
  endfacet
  facet normal 0.904827 -0 0.425779
    outer loop
      vertex 37.3763 -1.06971e-16 32.2818
      vertex 37.4298 10 32.1681
      vertex 37.3763 10 32.2818
    endloop
  endfacet
  facet normal 1.22767e-29 -1 -2.22045e-16
    outer loop
      vertex 37.3763 1.06971e-16 31.3182
      vertex 37.4686 5.52202e-17 31.5513
      vertex 37.309 1.30515e-16 31.2122
    endloop
  endfacet
  facet normal 0.951057 0 0.309017
    outer loop
      vertex 37.4298 10 32.1681
      vertex 37.4298 -8.17401e-17 32.1681
      vertex 37.4686 10 32.0487
    endloop
  endfacet
  facet normal 1.15844e-29 -1 -2.22045e-16
    outer loop
      vertex 37.4686 5.52202e-17 31.5513
      vertex 37.4921 2.78296e-17 31.6747
      vertex 37.309 1.30515e-16 31.2122
    endloop
  endfacet
  facet normal 7.66315e-30 -1 -2.22045e-16
    outer loop
      vertex 37.4921 2.78296e-17 31.6747
      vertex 37.229 1.52e-16 31.1155
      vertex 37.309 1.30515e-16 31.2122
    endloop
  endfacet
  facet normal 0.982287 6.63052e-17 -0.187381
    outer loop
      vertex 37.4686 10 31.5513
      vertex 37.4921 10 31.6747
      vertex 37.4921 2.78296e-17 31.6747
    endloop
  endfacet
  facet normal 0.0160788 0.999866 -0.0030672
    outer loop
      vertex 37.4686 10 31.5513
      vertex 25.7071 10.2 35.0929
      vertex 37.4921 10 31.6747
    endloop
  endfacet
  facet normal 0.0119329 0.999794 -0.0164242
    outer loop
      vertex 37.0358 10 30.9557
      vertex 25 10.2 34.3858
      vertex 37.1374 10 31.0295
    endloop
  endfacet
  facet normal 0.0135002 0.999846 -0.0111684
    outer loop
      vertex 25.7071 10.2 35.0929
      vertex 37.309 10 31.2122
      vertex 37.229 10 31.1155
    endloop
  endfacet
  facet normal 2.15705e-31 -1 -2.22045e-16
    outer loop
      vertex 37.229 1.52e-16 31.1155
      vertex 36.5628 2.21606e-16 30.802
      vertex 36.6874 2.18112e-16 30.8177
    endloop
  endfacet
  facet normal 0.481754 0 -0.876307
    outer loop
      vertex 36.9258 2.00912e-16 30.8952
      vertex 37.0358 10 30.9557
      vertex 37.0358 1.87478e-16 30.9557
    endloop
  endfacet
  facet normal 7.27999e-17 -1 3.54226e-16
    outer loop
      vertex 25 0 35.8
      vertex 36.5628 -2.21606e-16 32.798
      vertex 36.6874 -2.18112e-16 32.7823
    endloop
  endfacet
  facet normal -0 -1 -2.22045e-16
    outer loop
      vertex 36.5628 -2.21606e-16 32.798
      vertex 13.4372 -2.21606e-16 32.798
      vertex 13.9258 -2.00912e-16 32.7048
    endloop
  endfacet
  facet normal -0.0259742 0.999023 0.0357505
    outer loop
      vertex 25 10.2 35.8
      vertex 12.8626 10 32.5705
      vertex 12.9642 10 32.6443
    endloop
  endfacet
  facet normal -0.587785 0 0.809017
    outer loop
      vertex 12.8626 10 32.5705
      vertex 12.9642 -1.87478e-16 32.6443
      vertex 12.9642 10 32.6443
    endloop
  endfacet
  facet normal -0.982287 0 0.187381
    outer loop
      vertex 12.5314 -5.52202e-17 32.0487
      vertex 12.5314 10 32.0487
      vertex 12.5079 10 31.9253
    endloop
  endfacet
  facet normal -1.54112e-29 -1 -2.22045e-16
    outer loop
      vertex 12.6237 1.06971e-16 31.3182
      vertex 12.5079 2.78296e-17 31.6747
      vertex 12.5702 8.17401e-17 31.4319
    endloop
  endfacet
  facet normal -0.951057 0 0.309017
    outer loop
      vertex 12.5314 10 32.0487
      vertex 12.5702 -8.17401e-17 32.1681
      vertex 12.5702 10 32.1681
    endloop
  endfacet
  facet normal -0.770513 -4.52917e-16 0.637424
    outer loop
      vertex 12.771 -1.52e-16 32.4845
      vertex 12.771 10 32.4845
      vertex 12.691 10 32.3878
    endloop
  endfacet
  facet normal -0.010941 0.999742 -0.0199016
    outer loop
      vertex 25 10.2 34.3858
      vertex 13.0742 10 30.8952
      vertex 12.9642 10 30.9557
    endloop
  endfacet
  facet normal -0.904827 0 -0.425779
    outer loop
      vertex 12.5702 10 31.4319
      vertex 12.6237 10 31.3182
      vertex 12.6237 1.06971e-16 31.3182
    endloop
  endfacet
  facet normal -0.125333 3.5247e-16 -0.992115
    outer loop
      vertex 13.4372 10 30.802
      vertex 13.4372 2.21606e-16 30.802
      vertex 13.3126 10 30.8177
    endloop
  endfacet
  facet normal -0.368125 3.30835e-16 -0.929776
    outer loop
      vertex 13.0742 10 30.8952
      vertex 13.191 10 30.8489
      vertex 13.191 2.11177e-16 30.8489
    endloop
  endfacet
  facet normal -3.38175e-32 -1 -2.22045e-16
    outer loop
      vertex 14.229 1.52e-16 31.1155
      vertex 12.691 -1.30515e-16 32.3878
      vertex 12.771 1.52e-16 31.1155
    endloop
  endfacet
  facet normal -0.0154872 0.999867 -0.00503209
    outer loop
      vertex 24.2929 10.2 35.0929
      vertex 12.5702 10 31.4319
      vertex 12.5314 10 31.5513
    endloop
  endfacet
  facet normal 1.25562e-32 -1 -2.22045e-16
    outer loop
      vertex 35.691 -1.30515e-16 32.3878
      vertex 37.229 -1.52e-16 32.4845
      vertex 36.9258 -2.00912e-16 32.7048
    endloop
  endfacet
  facet normal 1.09707e-29 -1 -2.22045e-16
    outer loop
      vertex 37.229 -1.52e-16 32.4845
      vertex 37.0358 -1.87478e-16 32.6443
      vertex 36.9258 -2.00912e-16 32.7048
    endloop
  endfacet
  facet normal 0.031699 0.997833 0.0576602
    outer loop
      vertex 37.0358 10 32.6443
      vertex 25 10.2 35.8
      vertex 36.9258 10 32.7048
    endloop
  endfacet
  facet normal 0.0482622 0.991369 0.121896
    outer loop
      vertex 25 10.2 35.8
      vertex 36.809 10 32.7511
      vertex 36.9258 10 32.7048
    endloop
  endfacet
  facet normal 0.684547 -5.17963e-16 0.728969
    outer loop
      vertex 37.229 -1.52e-16 32.4845
      vertex 37.229 10 32.4845
      vertex 37.1374 -1.71088e-16 32.5705
    endloop
  endfacet
  facet normal 0.481754 0 0.876307
    outer loop
      vertex 37.0358 10 32.6443
      vertex 36.9258 10 32.7048
      vertex 37.0358 -1.87478e-16 32.6443
    endloop
  endfacet
  facet normal 0.844328 -0 0.535827
    outer loop
      vertex 37.309 -1.30515e-16 32.3878
      vertex 37.3763 10 32.2818
      vertex 37.309 10 32.3878
    endloop
  endfacet
  facet normal 0.0202265 0.999713 0.0128361
    outer loop
      vertex 37.3763 10 32.2818
      vertex 25.7071 10.2 35.0929
      vertex 37.309 10 32.3878
    endloop
  endfacet
  facet normal 0.998027 2.23077e-17 -0.0627905
    outer loop
      vertex 37.4921 10 31.6747
      vertex 37.5 10 31.8
      vertex 37.4921 2.78296e-17 31.6747
    endloop
  endfacet
  facet normal 8.95161e-30 -1 -2.22045e-16
    outer loop
      vertex 37.4298 -8.17401e-17 32.1681
      vertex 37.4921 2.78296e-17 31.6747
      vertex 37.5 0 31.8
    endloop
  endfacet
  facet normal 0.01726 0.99985 0.00108591
    outer loop
      vertex 37.5 10 31.8
      vertex 25.7071 10.2 35.0929
      vertex 37.4921 10 31.9253
    endloop
  endfacet
  facet normal 0.998027 0 0.0627905
    outer loop
      vertex 37.5 10 31.8
      vertex 37.4921 10 31.9253
      vertex 37.4921 -2.78296e-17 31.9253
    endloop
  endfacet
  facet normal 0.951057 0 -0.309017
    outer loop
      vertex 37.4686 10 31.5513
      vertex 37.4686 5.52202e-17 31.5513
      vertex 37.4298 10 31.4319
    endloop
  endfacet
  facet normal 0.904827 0 -0.425779
    outer loop
      vertex 37.3763 1.06971e-16 31.3182
      vertex 37.4298 10 31.4319
      vertex 37.4298 8.17401e-17 31.4319
    endloop
  endfacet
  facet normal 0.770513 2.25852e-16 -0.637424
    outer loop
      vertex 37.309 10 31.2122
      vertex 37.229 1.52e-16 31.1155
      vertex 37.229 10 31.1155
    endloop
  endfacet
  facet normal 0.684547 2.58982e-16 -0.728969
    outer loop
      vertex 37.229 1.52e-16 31.1155
      vertex 37.1374 10 31.0295
      vertex 37.229 10 31.1155
    endloop
  endfacet
  facet normal 0.587785 0 -0.809017
    outer loop
      vertex 37.0358 10 30.9557
      vertex 37.1374 1.71088e-16 31.0295
      vertex 37.0358 1.87478e-16 30.9557
    endloop
  endfacet
  facet normal 0.587785 0 -0.809017
    outer loop
      vertex 37.0358 10 30.9557
      vertex 37.1374 10 31.0295
      vertex 37.1374 1.71088e-16 31.0295
    endloop
  endfacet
  facet normal 0.368125 0 -0.929776
    outer loop
      vertex 36.9258 2.00912e-16 30.8952
      vertex 36.809 2.11177e-16 30.8489
      vertex 36.9258 10 30.8952
    endloop
  endfacet
  facet normal 0.24869 3.4411e-16 -0.968583
    outer loop
      vertex 36.809 2.11177e-16 30.8489
      vertex 36.6874 2.18112e-16 30.8177
      vertex 36.809 10 30.8489
    endloop
  endfacet
  facet normal 0 -1 -2.22045e-16
    outer loop
      vertex 12.691 -1.30515e-16 32.3878
      vertex 35.691 -1.30515e-16 32.3878
      vertex 13.9258 -2.00912e-16 32.7048
    endloop
  endfacet
  facet normal 0 -1 -2.22045e-16
    outer loop
      vertex 36.5628 -2.21606e-16 32.798
      vertex 13.9258 -2.00912e-16 32.7048
      vertex 36.9258 -2.00912e-16 32.7048
    endloop
  endfacet
  facet normal -0.0213501 0.999616 0.0176623
    outer loop
      vertex 12.771 10 32.4845
      vertex 24.2929 10.2 35.0929
      vertex 12.691 10 32.3878
    endloop
  endfacet
  facet normal -0.844328 0 0.535827
    outer loop
      vertex 12.6237 -1.06971e-16 32.2818
      vertex 12.691 10 32.3878
      vertex 12.6237 10 32.2818
    endloop
  endfacet
  facet normal -0.0178849 0.999834 0.00341173
    outer loop
      vertex 12.5314 10 32.0487
      vertex 24.2929 10.2 35.0929
      vertex 12.5079 10 31.9253
    endloop
  endfacet
  facet normal -0.01726 0.99985 0.00108591
    outer loop
      vertex 24.2929 10.2 35.0929
      vertex 12.5 10 31.8
      vertex 12.5079 10 31.9253
    endloop
  endfacet
  facet normal -0.00963894 0.999657 -0.0243452
    outer loop
      vertex 13.0742 10 30.8952
      vertex 25 10.2 34.3858
      vertex 13.191 10 30.8489
    endloop
  endfacet
  facet normal -0.00781349 0.999506 -0.0304315
    outer loop
      vertex 25 10.2 34.3858
      vertex 13.3126 10 30.8177
      vertex 13.191 10 30.8489
    endloop
  endfacet
  facet normal -0.998027 2.23077e-17 -0.0627905
    outer loop
      vertex 12.5 10 31.8
      vertex 12.5079 2.78296e-17 31.6747
      vertex 12.5 2.71926e-32 31.8
    endloop
  endfacet
  facet normal -8.42504e-30 -1 -2.22045e-16
    outer loop
      vertex 12.5079 2.78296e-17 31.6747
      vertex 12.5702 -8.17401e-17 32.1681
      vertex 12.5 2.71926e-32 31.8
    endloop
  endfacet
  facet normal -0.844328 0 -0.535827
    outer loop
      vertex 12.6237 1.06971e-16 31.3182
      vertex 12.6237 10 31.3182
      vertex 12.691 1.30515e-16 31.2122
    endloop
  endfacet
  facet normal -0.844328 1.89937e-16 -0.535827
    outer loop
      vertex 12.6237 10 31.3182
      vertex 12.691 10 31.2122
      vertex 12.691 1.30515e-16 31.2122
    endloop
  endfacet
  facet normal 0.684547 -0 0.728969
    outer loop
      vertex 37.1374 -1.71088e-16 32.5705
      vertex 37.229 10 32.4845
      vertex 37.1374 10 32.5705
    endloop
  endfacet
  facet normal 0.587785 0 0.809017
    outer loop
      vertex 37.0358 10 32.6443
      vertex 37.0358 -1.87478e-16 32.6443
      vertex 37.1374 -1.71088e-16 32.5705
    endloop
  endfacet
  facet normal 0.0213501 0.999616 0.0176623
    outer loop
      vertex 25.7071 10.2 35.0929
      vertex 37.229 10 32.4845
      vertex 37.309 10 32.3878
    endloop
  endfacet
  facet normal 0.770513 0 0.637424
    outer loop
      vertex 37.229 10 32.4845
      vertex 37.309 -1.30515e-16 32.3878
      vertex 37.309 10 32.3878
    endloop
  endfacet
  facet normal 0.770513 2.25852e-16 -0.637424
    outer loop
      vertex 37.229 1.52e-16 31.1155
      vertex 37.309 10 31.2122
      vertex 37.309 1.30515e-16 31.2122
    endloop
  endfacet
  facet normal 0.014218 0.999858 -0.00902303
    outer loop
      vertex 37.309 10 31.2122
      vertex 25.7071 10.2 35.0929
      vertex 37.3763 10 31.3182
    endloop
  endfacet
  facet normal 0.0178849 0.999834 0.00341173
    outer loop
      vertex 37.4921 10 31.9253
      vertex 25.7071 10.2 35.0929
      vertex 37.4686 10 32.0487
    endloop
  endfacet
  facet normal 0.0185625 0.99981 0.00603132
    outer loop
      vertex 25.7071 10.2 35.0929
      vertex 37.4298 10 32.1681
      vertex 37.4686 10 32.0487
    endloop
  endfacet
  facet normal 0.982287 0 0.187381
    outer loop
      vertex 37.4921 10 31.9253
      vertex 37.4686 10 32.0487
      vertex 37.4921 -2.78296e-17 31.9253
    endloop
  endfacet
  facet normal 7.60012e-29 -1 -2.22045e-16
    outer loop
      vertex 37.4298 -8.17401e-17 32.1681
      vertex 37.4921 -2.78296e-17 31.9253
      vertex 37.4686 -5.52202e-17 32.0487
    endloop
  endfacet
  facet normal 0.014873 0.999865 -0.00699868
    outer loop
      vertex 25.7071 10.2 35.0929
      vertex 37.4298 10 31.4319
      vertex 37.3763 10 31.3182
    endloop
  endfacet
  facet normal 0.904827 0 -0.425779
    outer loop
      vertex 37.4298 10 31.4319
      vertex 37.3763 1.06971e-16 31.3182
      vertex 37.3763 10 31.3182
    endloop
  endfacet
  facet normal 0.951057 0 -0.309017
    outer loop
      vertex 37.4298 10 31.4319
      vertex 37.4686 5.52202e-17 31.5513
      vertex 37.4298 8.17401e-17 31.4319
    endloop
  endfacet
  facet normal 1.36412e-29 -1 -2.22045e-16
    outer loop
      vertex 37.4686 5.52202e-17 31.5513
      vertex 37.3763 1.06971e-16 31.3182
      vertex 37.4298 8.17401e-17 31.4319
    endloop
  endfacet
  facet normal 5.02863e-30 -1 -2.22045e-16
    outer loop
      vertex 37.229 1.52e-16 31.1155
      vertex 36.809 2.11177e-16 30.8489
      vertex 37.0358 1.87478e-16 30.9557
    endloop
  endfacet
  facet normal 1.32515e-29 -1 -2.22045e-16
    outer loop
      vertex 36.809 2.11177e-16 30.8489
      vertex 36.9258 2.00912e-16 30.8952
      vertex 37.0358 1.87478e-16 30.9557
    endloop
  endfacet
  facet normal 0.125333 3.52592e-16 -0.992115
    outer loop
      vertex 36.5628 2.21606e-16 30.802
      vertex 36.6874 10 30.8177
      vertex 36.6874 2.18112e-16 30.8177
    endloop
  endfacet
  facet normal 0.24869 3.4411e-16 -0.968583
    outer loop
      vertex 36.6874 2.18112e-16 30.8177
      vertex 36.6874 10 30.8177
      vertex 36.809 10 30.8489
    endloop
  endfacet
  facet normal 0.00963894 0.999657 -0.0243452
    outer loop
      vertex 36.809 10 30.8489
      vertex 25 10.2 34.3858
      vertex 36.9258 10 30.8952
    endloop
  endfacet
  facet normal 0.368125 3.30323e-16 -0.929776
    outer loop
      vertex 36.809 2.11177e-16 30.8489
      vertex 36.809 10 30.8489
      vertex 36.9258 10 30.8952
    endloop
  endfacet
  facet normal -0.844328 -3.80728e-16 0.535827
    outer loop
      vertex 12.691 -1.30515e-16 32.3878
      vertex 12.691 10 32.3878
      vertex 12.6237 -1.06971e-16 32.2818
    endloop
  endfacet
  facet normal -0.904827 0 0.425779
    outer loop
      vertex 12.5702 10 32.1681
      vertex 12.6237 -1.06971e-16 32.2818
      vertex 12.6237 10 32.2818
    endloop
  endfacet
  facet normal -1.559e-29 -1 -2.22045e-16
    outer loop
      vertex 12.5702 8.17401e-17 31.4319
      vertex 12.5079 2.78296e-17 31.6747
      vertex 12.5314 5.52202e-17 31.5513
    endloop
  endfacet
  facet normal -0.0160788 0.999866 -0.0030672
    outer loop
      vertex 24.2929 10.2 35.0929
      vertex 12.5314 10 31.5513
      vertex 12.5079 10 31.6747
    endloop
  endfacet
  facet normal -0.982287 0 0.187381
    outer loop
      vertex 12.5314 -5.52202e-17 32.0487
      vertex 12.5079 10 31.9253
      vertex 12.5079 -2.78296e-17 31.9253
    endloop
  endfacet
  facet normal -0.998027 0 0.0627905
    outer loop
      vertex 12.5079 10 31.9253
      vertex 12.5 10 31.8
      vertex 12.5079 -2.78296e-17 31.9253
    endloop
  endfacet
  facet normal -7.02455e-30 -1 -2.22045e-16
    outer loop
      vertex 12.5079 2.78296e-17 31.6747
      vertex 12.691 1.30515e-16 31.2122
      vertex 12.771 1.52e-16 31.1155
    endloop
  endfacet
  facet normal -0.770513 2.26458e-16 -0.637424
    outer loop
      vertex 12.691 1.30515e-16 31.2122
      vertex 12.691 10 31.2122
      vertex 12.771 1.52e-16 31.1155
    endloop
  endfacet
  facet normal 0.0259742 0.999023 0.0357505
    outer loop
      vertex 25 10.2 35.8
      vertex 37.0358 10 32.6443
      vertex 37.1374 10 32.5705
    endloop
  endfacet
  facet normal 0.587785 0 0.809017
    outer loop
      vertex 37.0358 10 32.6443
      vertex 37.1374 -1.71088e-16 32.5705
      vertex 37.1374 10 32.5705
    endloop
  endfacet
  facet normal 0.998027 -2.23077e-17 0.0627905
    outer loop
      vertex 37.5 10 31.8
      vertex 37.4921 -2.78296e-17 31.9253
      vertex 37.5 0 31.8
    endloop
  endfacet
  facet normal 1.29297e-29 -1 -2.22045e-16
    outer loop
      vertex 37.4921 -2.78296e-17 31.9253
      vertex 37.4298 -8.17401e-17 32.1681
      vertex 37.5 0 31.8
    endloop
  endfacet
  facet normal 0.982287 0 0.187381
    outer loop
      vertex 37.4921 -2.78296e-17 31.9253
      vertex 37.4686 10 32.0487
      vertex 37.4686 -5.52202e-17 32.0487
    endloop
  endfacet
  facet normal 0.951057 0 0.309017
    outer loop
      vertex 37.4686 10 32.0487
      vertex 37.4298 -8.17401e-17 32.1681
      vertex 37.4686 -5.52202e-17 32.0487
    endloop
  endfacet
  facet normal 0.010941 0.999742 -0.0199016
    outer loop
      vertex 25 10.2 34.3858
      vertex 37.0358 10 30.9557
      vertex 36.9258 10 30.8952
    endloop
  endfacet
  facet normal 0.481754 0 -0.876307
    outer loop
      vertex 37.0358 10 30.9557
      vertex 36.9258 2.00912e-16 30.8952
      vertex 36.9258 10 30.8952
    endloop
  endfacet
  facet normal -0.0202265 0.999713 0.0128361
    outer loop
      vertex 12.691 10 32.3878
      vertex 24.2929 10.2 35.0929
      vertex 12.6237 10 32.2818
    endloop
  endfacet
  facet normal -0.019326 0.999772 0.00909414
    outer loop
      vertex 24.2929 10.2 35.0929
      vertex 12.5702 10 32.1681
      vertex 12.6237 10 32.2818
    endloop
  endfacet
  facet normal -0.982287 6.66505e-17 -0.187381
    outer loop
      vertex 12.5314 10 31.5513
      vertex 12.5079 2.78296e-17 31.6747
      vertex 12.5079 10 31.6747
    endloop
  endfacet
  facet normal -0.998027 2.23077e-17 -0.0627905
    outer loop
      vertex 12.5079 2.78296e-17 31.6747
      vertex 12.5 10 31.8
      vertex 12.5079 10 31.6747
    endloop
  endfacet
  facet normal -0.951057 0 -0.309017
    outer loop
      vertex 12.5314 10 31.5513
      vertex 12.5702 10 31.4319
      vertex 12.5702 8.17401e-17 31.4319
    endloop
  endfacet
  facet normal -0.904827 -0 -0.425779
    outer loop
      vertex 12.5702 10 31.4319
      vertex 12.6237 1.06971e-16 31.3182
      vertex 12.5702 8.17401e-17 31.4319
    endloop
  endfacet
  facet normal -1.67172e-29 -1 -2.22045e-16
    outer loop
      vertex 12.5702 -8.17401e-17 32.1681
      vertex 12.5079 -2.78296e-17 31.9253
      vertex 12.5 2.71926e-32 31.8
    endloop
  endfacet
  facet normal -0.998027 -2.22744e-17 0.0627905
    outer loop
      vertex 12.5079 -2.78296e-17 31.9253
      vertex 12.5 10 31.8
      vertex 12.5 2.71926e-32 31.8
    endloop
  endfacet
  facet normal -0.0119329 0.999794 -0.0164242
    outer loop
      vertex 12.8626 10 31.0295
      vertex 25 10.2 34.3858
      vertex 12.9642 10 30.9557
    endloop
  endfacet
  facet normal -0.368125 0 -0.929776
    outer loop
      vertex 13.0742 2.00912e-16 30.8952
      vertex 13.0742 10 30.8952
      vertex 13.191 2.11177e-16 30.8489
    endloop
  endfacet
  facet normal -0.24869 3.4411e-16 -0.968583
    outer loop
      vertex 13.191 2.11177e-16 30.8489
      vertex 13.191 10 30.8489
      vertex 13.3126 2.18112e-16 30.8177
    endloop
  endfacet
  facet normal -0.481754 -0 -0.876307
    outer loop
      vertex 13.0742 10 30.8952
      vertex 13.0742 2.00912e-16 30.8952
      vertex 12.9642 10 30.9557
    endloop
  endfacet
  facet normal -0.982287 0 -0.187381
    outer loop
      vertex 12.5079 2.78296e-17 31.6747
      vertex 12.5314 10 31.5513
      vertex 12.5314 5.52202e-17 31.5513
    endloop
  endfacet
  facet normal -0.951057 -0 -0.309017
    outer loop
      vertex 12.5314 10 31.5513
      vertex 12.5702 8.17401e-17 31.4319
      vertex 12.5314 5.52202e-17 31.5513
    endloop
  endfacet
  facet normal -0.587785 0 -0.809017
    outer loop
      vertex 12.8626 10 31.0295
      vertex 12.9642 10 30.9557
      vertex 12.9642 1.87478e-16 30.9557
    endloop
  endfacet
  facet normal -0.481754 -0 -0.876307
    outer loop
      vertex 12.9642 10 30.9557
      vertex 13.0742 2.00912e-16 30.8952
      vertex 12.9642 1.87478e-16 30.9557
    endloop
  endfacet
  facet normal -0.125333 3.5247e-16 -0.992115
    outer loop
      vertex 13.3126 10 30.8177
      vertex 13.4372 2.21606e-16 30.802
      vertex 13.3126 2.18112e-16 30.8177
    endloop
  endfacet
  facet normal -1.17412e-29 -1 -2.22045e-16
    outer loop
      vertex 13.0742 2.00912e-16 30.8952
      vertex 13.191 2.11177e-16 30.8489
      vertex 12.9642 1.87478e-16 30.9557
    endloop
  endfacet
  facet normal -3.94403e-30 -1 -2.22045e-16
    outer loop
      vertex 13.191 2.11177e-16 30.8489
      vertex 12.771 1.52e-16 31.1155
      vertex 12.9642 1.87478e-16 30.9557
    endloop
  endfacet
  facet normal -0.587785 -0 -0.809017
    outer loop
      vertex 12.8626 10 31.0295
      vertex 12.9642 1.87478e-16 30.9557
      vertex 12.8626 1.71088e-16 31.0295
    endloop
  endfacet
  facet normal -3.90964e-31 -1 -2.22045e-16
    outer loop
      vertex 13.4372 2.21606e-16 30.802
      vertex 12.771 1.52e-16 31.1155
      vertex 13.3126 2.18112e-16 30.8177
    endloop
  endfacet
  facet normal -7.98244e-31 -1 -2.22045e-16
    outer loop
      vertex 12.771 1.52e-16 31.1155
      vertex 13.191 2.11177e-16 30.8489
      vertex 13.3126 2.18112e-16 30.8177
    endloop
  endfacet
  facet normal -2.47491e-29 -1 -2.22045e-16
    outer loop
      vertex 12.9642 1.87478e-16 30.9557
      vertex 12.771 1.52e-16 31.1155
      vertex 12.8626 1.71088e-16 31.0295
    endloop
  endfacet
  facet normal -0.684547 0 -0.728969
    outer loop
      vertex 12.771 1.52e-16 31.1155
      vertex 12.8626 10 31.0295
      vertex 12.8626 1.71088e-16 31.0295
    endloop
  endfacet
endsolid OpenSCAD_Model
