solid OpenSCAD_Model
  facet normal -0 0 1
    outer loop
      vertex 7.5 11.2 39
      vertex 42.5 -1 39
      vertex 42.5 11.2 39
    endloop
  endfacet
  facet normal 0 0 1
    outer loop
      vertex 42.5 -1 39
      vertex 7.5 11.2 39
      vertex 7.5 -1 39
    endloop
  endfacet
  facet normal 0 0 -1
    outer loop
      vertex 7.5 -1 -1
      vertex 42.5 11.2 -1
      vertex 42.5 -1 -1
    endloop
  endfacet
  facet normal -0 0 -1
    outer loop
      vertex 42.5 11.2 -1
      vertex 7.5 -1 -1
      vertex 7.5 11.2 -1
    endloop
  endfacet
  facet normal 0 -1 0
    outer loop
      vertex 7.5 -1 -1
      vertex 42.5 -1 39
      vertex 7.5 -1 39
    endloop
  endfacet
  facet normal 0 -1 -0
    outer loop
      vertex 42.5 -1 39
      vertex 7.5 -1 -1
      vertex 42.5 -1 -1
    endloop
  endfacet
  facet normal 1 -0 0
    outer loop
      vertex 42.5 -1 39
      vertex 42.5 11.2 -1
      vertex 42.5 11.2 39
    endloop
  endfacet
  facet normal 1 0 0
    outer loop
      vertex 42.5 11.2 -1
      vertex 42.5 -1 39
      vertex 42.5 -1 -1
    endloop
  endfacet
  facet normal 0 1 -0
    outer loop
      vertex 42.5 11.2 -1
      vertex 7.5 11.2 39
      vertex 42.5 11.2 39
    endloop
  endfacet
  facet normal 0 1 0
    outer loop
      vertex 7.5 11.2 39
      vertex 42.5 11.2 -1
      vertex 7.5 11.2 -1
    endloop
  endfacet
  facet normal -1 0 0
    outer loop
      vertex 7.5 -1 -1
      vertex 7.5 11.2 39
      vertex 7.5 11.2 -1
    endloop
  endfacet
  facet normal -1 -0 0
    outer loop
      vertex 7.5 11.2 39
      vertex 7.5 -1 -1
      vertex 7.5 -1 39
    endloop
  endfacet
endsolid OpenSCAD_Model
