solid OpenSCAD_Model
  facet normal -0 0 1
    outer loop
      vertex 37.5 10.2 35.7
      vertex 40.5 7.2 35.7
      vertex 40.5 10.2 35.7
    endloop
  endfacet
  facet normal 0 0 1
    outer loop
      vertex 40.5 7.2 35.7
      vertex 37.5 10.2 35.7
      vertex 37.5 7.2 35.7
    endloop
  endfacet
  facet normal 0 0 -1
    outer loop
      vertex 37.5 7.2 0
      vertex 40.5 10.2 0
      vertex 40.5 7.2 0
    endloop
  endfacet
  facet normal -0 0 -1
    outer loop
      vertex 40.5 10.2 0
      vertex 37.5 7.2 0
      vertex 37.5 10.2 0
    endloop
  endfacet
  facet normal 0 -1 0
    outer loop
      vertex 37.5 7.2 0
      vertex 40.5 7.2 35.7
      vertex 37.5 7.2 35.7
    endloop
  endfacet
  facet normal 0 -1 -0
    outer loop
      vertex 40.5 7.2 35.7
      vertex 37.5 7.2 0
      vertex 40.5 7.2 0
    endloop
  endfacet
  facet normal 1 -0 0
    outer loop
      vertex 40.5 7.2 35.7
      vertex 40.5 10.2 0
      vertex 40.5 10.2 35.7
    endloop
  endfacet
  facet normal 1 0 0
    outer loop
      vertex 40.5 10.2 0
      vertex 40.5 7.2 35.7
      vertex 40.5 7.2 0
    endloop
  endfacet
  facet normal 0 1 -0
    outer loop
      vertex 40.5 10.2 0
      vertex 37.5 10.2 35.7
      vertex 40.5 10.2 35.7
    endloop
  endfacet
  facet normal 0 1 0
    outer loop
      vertex 37.5 10.2 35.7
      vertex 40.5 10.2 0
      vertex 37.5 10.2 0
    endloop
  endfacet
  facet normal -1 0 0
    outer loop
      vertex 37.5 7.2 0
      vertex 37.5 10.2 35.7
      vertex 37.5 10.2 0
    endloop
  endfacet
  facet normal -1 -0 0
    outer loop
      vertex 37.5 10.2 35.7
      vertex 37.5 7.2 0
      vertex 37.5 7.2 35.7
    endloop
  endfacet
endsolid OpenSCAD_Model
