solid OpenSCAD_Model
  facet normal -0 0 1
    outer loop
      vertex 39.5 1.5 35.7
      vertex 42.5 0 35.7
      vertex 42.5 1.5 35.7
    endloop
  endfacet
  facet normal 0 0 1
    outer loop
      vertex 42.5 0 35.7
      vertex 39.5 1.5 35.7
      vertex 39.5 0 35.7
    endloop
  endfacet
  facet normal 0 0 -1
    outer loop
      vertex 39.5 0 3
      vertex 42.5 1.5 3
      vertex 42.5 0 3
    endloop
  endfacet
  facet normal -0 0 -1
    outer loop
      vertex 42.5 1.5 3
      vertex 39.5 0 3
      vertex 39.5 1.5 3
    endloop
  endfacet
  facet normal 0 -1 0
    outer loop
      vertex 39.5 0 3
      vertex 42.5 0 35.7
      vertex 39.5 0 35.7
    endloop
  endfacet
  facet normal 0 -1 -0
    outer loop
      vertex 42.5 0 35.7
      vertex 39.5 0 3
      vertex 42.5 0 3
    endloop
  endfacet
  facet normal 1 -0 0
    outer loop
      vertex 42.5 0 35.7
      vertex 42.5 1.5 3
      vertex 42.5 1.5 35.7
    endloop
  endfacet
  facet normal 1 0 0
    outer loop
      vertex 42.5 1.5 3
      vertex 42.5 0 35.7
      vertex 42.5 0 3
    endloop
  endfacet
  facet normal 0 1 -0
    outer loop
      vertex 42.5 1.5 3
      vertex 39.5 1.5 35.7
      vertex 42.5 1.5 35.7
    endloop
  endfacet
  facet normal 0 1 0
    outer loop
      vertex 39.5 1.5 35.7
      vertex 42.5 1.5 3
      vertex 39.5 1.5 3
    endloop
  endfacet
  facet normal -1 0 0
    outer loop
      vertex 39.5 0 3
      vertex 39.5 1.5 35.7
      vertex 39.5 1.5 3
    endloop
  endfacet
  facet normal -1 -0 0
    outer loop
      vertex 39.5 1.5 35.7
      vertex 39.5 0 3
      vertex 39.5 0 35.7
    endloop
  endfacet
endsolid OpenSCAD_Model
