solid OpenSCAD_Model
  facet normal -0 0 1
    outer loop
      vertex 33.8553 1.812 35.8
      vertex 36.8553 0 35.8
      vertex 36.8553 1.812 35.8
    endloop
  endfacet
  facet normal 0 0 1
    outer loop
      vertex 36.8553 0 35.8
      vertex 33.8553 1.812 35.8
      vertex 33.8553 0 35.8
    endloop
  endfacet
  facet normal 0 0 -1
    outer loop
      vertex 33.8553 0 3
      vertex 36.8553 1.812 3
      vertex 36.8553 0 3
    endloop
  endfacet
  facet normal -0 0 -1
    outer loop
      vertex 36.8553 1.812 3
      vertex 33.8553 0 3
      vertex 33.8553 1.812 3
    endloop
  endfacet
  facet normal 0 -1 0
    outer loop
      vertex 33.8553 0 3
      vertex 36.8553 0 35.8
      vertex 33.8553 0 35.8
    endloop
  endfacet
  facet normal 0 -1 -0
    outer loop
      vertex 36.8553 0 35.8
      vertex 33.8553 0 3
      vertex 36.8553 0 3
    endloop
  endfacet
  facet normal 1 -0 0
    outer loop
      vertex 36.8553 0 35.8
      vertex 36.8553 1.812 3
      vertex 36.8553 1.812 35.8
    endloop
  endfacet
  facet normal 1 0 0
    outer loop
      vertex 36.8553 1.812 3
      vertex 36.8553 0 35.8
      vertex 36.8553 0 3
    endloop
  endfacet
  facet normal 0 1 -0
    outer loop
      vertex 36.8553 1.812 3
      vertex 33.8553 1.812 35.8
      vertex 36.8553 1.812 35.8
    endloop
  endfacet
  facet normal 0 1 0
    outer loop
      vertex 33.8553 1.812 35.8
      vertex 36.8553 1.812 3
      vertex 33.8553 1.812 3
    endloop
  endfacet
  facet normal -1 0 0
    outer loop
      vertex 33.8553 0 3
      vertex 33.8553 1.812 35.8
      vertex 33.8553 1.812 3
    endloop
  endfacet
  facet normal -1 -0 0
    outer loop
      vertex 33.8553 1.812 35.8
      vertex 33.8553 0 3
      vertex 33.8553 0 35.8
    endloop
  endfacet
endsolid OpenSCAD_Model
