solid OpenSCAD_Model
  facet normal 0 0 1
    outer loop
      vertex 8.1 1.812 35.8
      vertex 5.1 0 35.8
      vertex 8.1 0 35.8
    endloop
  endfacet
  facet normal 0 -0 1
    outer loop
      vertex 5.1 0 35.8
      vertex 8.1 1.812 35.8
      vertex 3.288 1.812 35.8
    endloop
  endfacet
  facet normal 1 -0 0
    outer loop
      vertex 8.1 0 35.8
      vertex 8.1 1.812 3
      vertex 8.1 1.812 35.8
    endloop
  endfacet
  facet normal 1 0 0
    outer loop
      vertex 8.1 1.812 3
      vertex 8.1 0 35.8
      vertex 8.1 0 3
    endloop
  endfacet
  facet normal 0 1 -0
    outer loop
      vertex 8.1 1.812 3
      vertex 3.288 1.812 35.8
      vertex 8.1 1.812 35.8
    endloop
  endfacet
  facet normal 0 1 0
    outer loop
      vertex 3.288 1.812 35.8
      vertex 8.1 1.812 3
      vertex 3.288 1.812 3
    endloop
  endfacet
  facet normal 0 0 -1
    outer loop
      vertex 5.1 0 3
      vertex 8.1 1.812 3
      vertex 8.1 0 3
    endloop
  endfacet
  facet normal -0 0 -1
    outer loop
      vertex 8.1 1.812 3
      vertex 5.1 0 3
      vertex 3.288 1.812 3
    endloop
  endfacet
  facet normal 0 -1 0
    outer loop
      vertex 5.1 0 3
      vertex 8.1 0 35.8
      vertex 5.1 0 35.8
    endloop
  endfacet
  facet normal 0 -1 -0
    outer loop
      vertex 8.1 0 35.8
      vertex 5.1 0 3
      vertex 8.1 0 3
    endloop
  endfacet
  facet normal -0.707107 -0.707107 0
    outer loop
      vertex 3.288 1.812 3
      vertex 5.1 0 35.8
      vertex 3.288 1.812 35.8
    endloop
  endfacet
  facet normal -0.707107 -0.707107 -0
    outer loop
      vertex 5.1 0 35.8
      vertex 3.288 1.812 3
      vertex 5.1 0 3
    endloop
  endfacet
endsolid OpenSCAD_Model
