solid OpenSCAD_Model
  facet normal -0 0 1
    outer loop
      vertex 8.1 1.812 16.9333
      vertex 27.2553 0 16.9333
      vertex 27.2553 1.812 16.9333
    endloop
  endfacet
  facet normal 0 0 1
    outer loop
      vertex 27.2553 0 16.9333
      vertex 8.1 1.812 16.9333
      vertex 8.1 0 16.9333
    endloop
  endfacet
  facet normal 0 0 -1
    outer loop
      vertex 8.1 0 13.9333
      vertex 27.2553 1.812 13.9333
      vertex 27.2553 0 13.9333
    endloop
  endfacet
  facet normal -0 0 -1
    outer loop
      vertex 27.2553 1.812 13.9333
      vertex 8.1 0 13.9333
      vertex 8.1 1.812 13.9333
    endloop
  endfacet
  facet normal 0 -1 0
    outer loop
      vertex 8.1 0 13.9333
      vertex 27.2553 0 16.9333
      vertex 8.1 0 16.9333
    endloop
  endfacet
  facet normal 0 -1 -0
    outer loop
      vertex 27.2553 0 16.9333
      vertex 8.1 0 13.9333
      vertex 27.2553 0 13.9333
    endloop
  endfacet
  facet normal 1 -0 0
    outer loop
      vertex 27.2553 0 16.9333
      vertex 27.2553 1.812 13.9333
      vertex 27.2553 1.812 16.9333
    endloop
  endfacet
  facet normal 1 0 0
    outer loop
      vertex 27.2553 1.812 13.9333
      vertex 27.2553 0 16.9333
      vertex 27.2553 0 13.9333
    endloop
  endfacet
  facet normal 0 1 -0
    outer loop
      vertex 27.2553 1.812 13.9333
      vertex 8.1 1.812 16.9333
      vertex 27.2553 1.812 16.9333
    endloop
  endfacet
  facet normal 0 1 0
    outer loop
      vertex 8.1 1.812 16.9333
      vertex 27.2553 1.812 13.9333
      vertex 8.1 1.812 13.9333
    endloop
  endfacet
  facet normal -1 0 0
    outer loop
      vertex 8.1 0 13.9333
      vertex 8.1 1.812 16.9333
      vertex 8.1 1.812 13.9333
    endloop
  endfacet
  facet normal -1 -0 0
    outer loop
      vertex 8.1 1.812 16.9333
      vertex 8.1 0 13.9333
      vertex 8.1 0 16.9333
    endloop
  endfacet
endsolid OpenSCAD_Model
