solid OpenSCAD_Model
  facet normal -0 0 1
    outer loop
      vertex 69.2107 1.812 35.8
      vertex 72.2107 0 35.8
      vertex 72.2107 1.812 35.8
    endloop
  endfacet
  facet normal 0 0 1
    outer loop
      vertex 72.2107 0 35.8
      vertex 69.2107 1.812 35.8
      vertex 69.2107 0 35.8
    endloop
  endfacet
  facet normal 0 0 -1
    outer loop
      vertex 69.2107 0 3
      vertex 72.2107 1.812 3
      vertex 72.2107 0 3
    endloop
  endfacet
  facet normal -0 0 -1
    outer loop
      vertex 72.2107 1.812 3
      vertex 69.2107 0 3
      vertex 69.2107 1.812 3
    endloop
  endfacet
  facet normal 0 -1 0
    outer loop
      vertex 69.2107 0 3
      vertex 72.2107 0 35.8
      vertex 69.2107 0 35.8
    endloop
  endfacet
  facet normal 0 -1 -0
    outer loop
      vertex 72.2107 0 35.8
      vertex 69.2107 0 3
      vertex 72.2107 0 3
    endloop
  endfacet
  facet normal 1 -0 0
    outer loop
      vertex 72.2107 0 35.8
      vertex 72.2107 1.812 3
      vertex 72.2107 1.812 35.8
    endloop
  endfacet
  facet normal 1 0 0
    outer loop
      vertex 72.2107 1.812 3
      vertex 72.2107 0 35.8
      vertex 72.2107 0 3
    endloop
  endfacet
  facet normal 0 1 -0
    outer loop
      vertex 72.2107 1.812 3
      vertex 69.2107 1.812 35.8
      vertex 72.2107 1.812 35.8
    endloop
  endfacet
  facet normal 0 1 0
    outer loop
      vertex 69.2107 1.812 35.8
      vertex 72.2107 1.812 3
      vertex 69.2107 1.812 3
    endloop
  endfacet
  facet normal -1 0 0
    outer loop
      vertex 69.2107 0 3
      vertex 69.2107 1.812 35.8
      vertex 69.2107 1.812 3
    endloop
  endfacet
  facet normal -1 -0 0
    outer loop
      vertex 69.2107 1.812 35.8
      vertex 69.2107 0 3
      vertex 69.2107 0 35.8
    endloop
  endfacet
endsolid OpenSCAD_Model
