solid OpenSCAD_Model
  facet normal -1 0 0
    outer loop
      vertex 27.2553 0 3
      vertex 27.2553 1.812 35.8
      vertex 27.2553 1.812 3
    endloop
  endfacet
  facet normal -1 -0 0
    outer loop
      vertex 27.2553 1.812 35.8
      vertex 27.2553 0 3
      vertex 27.2553 0 35.8
    endloop
  endfacet
  facet normal -0 0 1
    outer loop
      vertex 27.2553 1.812 35.8
      vertex 30.2553 0 35.8
      vertex 32.0673 1.812 35.8
    endloop
  endfacet
  facet normal 0 0 1
    outer loop
      vertex 30.2553 0 35.8
      vertex 27.2553 1.812 35.8
      vertex 27.2553 0 35.8
    endloop
  endfacet
  facet normal 0 1 -0
    outer loop
      vertex 32.0673 1.812 3
      vertex 27.2553 1.812 35.8
      vertex 32.0673 1.812 35.8
    endloop
  endfacet
  facet normal 0 1 0
    outer loop
      vertex 27.2553 1.812 35.8
      vertex 32.0673 1.812 3
      vertex 27.2553 1.812 3
    endloop
  endfacet
  facet normal 0 0 -1
    outer loop
      vertex 27.2553 1.812 3
      vertex 30.2553 0 3
      vertex 27.2553 0 3
    endloop
  endfacet
  facet normal 0 0 -1
    outer loop
      vertex 30.2553 0 3
      vertex 27.2553 1.812 3
      vertex 32.0673 1.812 3
    endloop
  endfacet
  facet normal 0 -1 0
    outer loop
      vertex 27.2553 0 3
      vertex 30.2553 0 35.8
      vertex 27.2553 0 35.8
    endloop
  endfacet
  facet normal 0 -1 -0
    outer loop
      vertex 30.2553 0 35.8
      vertex 27.2553 0 3
      vertex 30.2553 0 3
    endloop
  endfacet
  facet normal 0.707107 -0.707107 0
    outer loop
      vertex 30.2553 0 35.8
      vertex 32.0673 1.812 3
      vertex 32.0673 1.812 35.8
    endloop
  endfacet
  facet normal 0.707107 -0.707107 0
    outer loop
      vertex 32.0673 1.812 3
      vertex 30.2553 0 35.8
      vertex 30.2553 0 3
    endloop
  endfacet
endsolid OpenSCAD_Model
