solid OpenSCAD_Model
  facet normal -0 0 1
    outer loop
      vertex 35.3553 1.812 3
      vertex 70.7107 0 3
      vertex 70.7107 1.812 3
    endloop
  endfacet
  facet normal 0 0 1
    outer loop
      vertex 70.7107 0 3
      vertex 35.3553 1.812 3
      vertex 35.3553 0 3
    endloop
  endfacet
  facet normal 0 1 -0
    outer loop
      vertex 70.7107 1.812 0
      vertex 35.3553 1.812 3
      vertex 70.7107 1.812 3
    endloop
  endfacet
  facet normal 0 1 0
    outer loop
      vertex 35.3553 1.812 3
      vertex 70.7107 1.812 0
      vertex 35.3553 1.812 0
    endloop
  endfacet
  facet normal 0 0 -1
    outer loop
      vertex 35.3553 0 0
      vertex 70.7107 1.812 0
      vertex 70.7107 0 0
    endloop
  endfacet
  facet normal -0 0 -1
    outer loop
      vertex 70.7107 1.812 0
      vertex 35.3553 0 0
      vertex 35.3553 1.812 0
    endloop
  endfacet
  facet normal 0 -1 0
    outer loop
      vertex 35.3553 0 0
      vertex 70.7107 0 3
      vertex 35.3553 0 3
    endloop
  endfacet
  facet normal 0 -1 -0
    outer loop
      vertex 70.7107 0 3
      vertex 35.3553 0 0
      vertex 70.7107 0 0
    endloop
  endfacet
  facet normal -1 0 0
    outer loop
      vertex 35.3553 0 0
      vertex 35.3553 1.812 3
      vertex 35.3553 1.812 0
    endloop
  endfacet
  facet normal -1 -0 0
    outer loop
      vertex 35.3553 1.812 3
      vertex 35.3553 0 0
      vertex 35.3553 0 3
    endloop
  endfacet
  facet normal 1 -0 0
    outer loop
      vertex 70.7107 0 3
      vertex 70.7107 1.812 0
      vertex 70.7107 1.812 3
    endloop
  endfacet
  facet normal 1 0 0
    outer loop
      vertex 70.7107 1.812 0
      vertex 70.7107 0 3
      vertex 70.7107 0 0
    endloop
  endfacet
endsolid OpenSCAD_Model
