solid OpenSCAD_Model
  facet normal -1 0 0
    outer loop
      vertex 97.966 0 3
      vertex 97.966 1.812 35.8
      vertex 97.966 1.812 3
    endloop
  endfacet
  facet normal -1 -0 0
    outer loop
      vertex 97.966 1.812 35.8
      vertex 97.966 0 3
      vertex 97.966 0 35.8
    endloop
  endfacet
  facet normal -0 0 1
    outer loop
      vertex 97.966 1.812 35.8
      vertex 100.966 0 35.8
      vertex 102.778 1.812 35.8
    endloop
  endfacet
  facet normal 0 0 1
    outer loop
      vertex 100.966 0 35.8
      vertex 97.966 1.812 35.8
      vertex 97.966 0 35.8
    endloop
  endfacet
  facet normal 0 1 -0
    outer loop
      vertex 102.778 1.812 3
      vertex 97.966 1.812 35.8
      vertex 102.778 1.812 35.8
    endloop
  endfacet
  facet normal 0 1 0
    outer loop
      vertex 97.966 1.812 35.8
      vertex 102.778 1.812 3
      vertex 97.966 1.812 3
    endloop
  endfacet
  facet normal 0 0 -1
    outer loop
      vertex 97.966 1.812 3
      vertex 100.966 0 3
      vertex 97.966 0 3
    endloop
  endfacet
  facet normal 0 0 -1
    outer loop
      vertex 100.966 0 3
      vertex 97.966 1.812 3
      vertex 102.778 1.812 3
    endloop
  endfacet
  facet normal 0 -1 0
    outer loop
      vertex 97.966 0 3
      vertex 100.966 0 35.8
      vertex 97.966 0 35.8
    endloop
  endfacet
  facet normal 0 -1 -0
    outer loop
      vertex 100.966 0 35.8
      vertex 97.966 0 3
      vertex 100.966 0 3
    endloop
  endfacet
  facet normal 0.707107 -0.707106 0
    outer loop
      vertex 100.966 0 35.8
      vertex 102.778 1.812 3
      vertex 102.778 1.812 35.8
    endloop
  endfacet
  facet normal 0.707107 -0.707106 0
    outer loop
      vertex 102.778 1.812 3
      vertex 100.966 0 35.8
      vertex 100.966 0 3
    endloop
  endfacet
endsolid OpenSCAD_Model
