solid OpenSCAD_Model
  facet normal -0 0 1
    outer loop
      vertex 106.066 1.812 16.9333
      vertex 141.421 0 16.9333
      vertex 141.421 1.812 16.9333
    endloop
  endfacet
  facet normal 0 0 1
    outer loop
      vertex 141.421 0 16.9333
      vertex 106.066 1.812 16.9333
      vertex 106.066 0 16.9333
    endloop
  endfacet
  facet normal 0 0 -1
    outer loop
      vertex 106.066 0 13.9333
      vertex 141.421 1.812 13.9333
      vertex 141.421 0 13.9333
    endloop
  endfacet
  facet normal -0 0 -1
    outer loop
      vertex 141.421 1.812 13.9333
      vertex 106.066 0 13.9333
      vertex 106.066 1.812 13.9333
    endloop
  endfacet
  facet normal 0 -1 0
    outer loop
      vertex 106.066 0 13.9333
      vertex 141.421 0 16.9333
      vertex 106.066 0 16.9333
    endloop
  endfacet
  facet normal 0 -1 -0
    outer loop
      vertex 141.421 0 16.9333
      vertex 106.066 0 13.9333
      vertex 141.421 0 13.9333
    endloop
  endfacet
  facet normal 0 1 -0
    outer loop
      vertex 141.421 1.812 13.9333
      vertex 106.066 1.812 16.9333
      vertex 141.421 1.812 16.9333
    endloop
  endfacet
  facet normal 0 1 0
    outer loop
      vertex 106.066 1.812 16.9333
      vertex 141.421 1.812 13.9333
      vertex 106.066 1.812 13.9333
    endloop
  endfacet
  facet normal -1 0 0
    outer loop
      vertex 106.066 0 13.9333
      vertex 106.066 1.812 16.9333
      vertex 106.066 1.812 13.9333
    endloop
  endfacet
  facet normal -1 -0 0
    outer loop
      vertex 106.066 1.812 16.9333
      vertex 106.066 0 13.9333
      vertex 106.066 0 16.9333
    endloop
  endfacet
  facet normal 1 -0 0
    outer loop
      vertex 141.421 0 16.9333
      vertex 141.421 1.812 13.9333
      vertex 141.421 1.812 16.9333
    endloop
  endfacet
  facet normal 1 0 0
    outer loop
      vertex 141.421 1.812 13.9333
      vertex 141.421 0 16.9333
      vertex 141.421 0 13.9333
    endloop
  endfacet
endsolid OpenSCAD_Model
