solid OpenSCAD_Model
  facet normal 0 0 1
    outer loop
      vertex 67.1107 8.7 38.8
      vertex 67.1107 1.5 38.8
      vertex 70.7107 5.1 38.8
    endloop
  endfacet
  facet normal -0 0 1
    outer loop
      vertex 3.6 8.7 38.8
      vertex 67.1107 1.5 38.8
      vertex 67.1107 8.7 38.8
    endloop
  endfacet
  facet normal 0 0 1
    outer loop
      vertex 3.6 8.7 38.8
      vertex 3.6 1.5 38.8
      vertex 67.1107 1.5 38.8
    endloop
  endfacet
  facet normal 0 -0 1
    outer loop
      vertex 3.6 1.5 38.8
      vertex 3.6 8.7 38.8
      vertex 0 5.1 38.8
    endloop
  endfacet
  facet normal 0 1 -0
    outer loop
      vertex 67.1107 8.7 0
      vertex 3.6 8.7 38.8
      vertex 67.1107 8.7 38.8
    endloop
  endfacet
  facet normal 0 1 0
    outer loop
      vertex 3.6 8.7 38.8
      vertex 67.1107 8.7 0
      vertex 3.6 8.7 0
    endloop
  endfacet
  facet normal 0 0 -1
    outer loop
      vertex 67.1107 1.5 0
      vertex 67.1107 8.7 0
      vertex 70.7107 5.1 0
    endloop
  endfacet
  facet normal 0 0 -1
    outer loop
      vertex 67.1107 1.5 0
      vertex 3.6 8.7 0
      vertex 67.1107 8.7 0
    endloop
  endfacet
  facet normal 0 0 -1
    outer loop
      vertex 3.6 1.5 0
      vertex 3.6 8.7 0
      vertex 67.1107 1.5 0
    endloop
  endfacet
  facet normal 0 0 -1
    outer loop
      vertex 3.6 8.7 0
      vertex 3.6 1.5 0
      vertex 0 5.1 0
    endloop
  endfacet
  facet normal 0 -1 0
    outer loop
      vertex 3.6 1.5 0
      vertex 67.1107 1.5 38.8
      vertex 3.6 1.5 38.8
    endloop
  endfacet
  facet normal 0 -1 -0
    outer loop
      vertex 67.1107 1.5 38.8
      vertex 3.6 1.5 0
      vertex 67.1107 1.5 0
    endloop
  endfacet
  facet normal -0.707107 0.707107 0
    outer loop
      vertex 0 5.1 0
      vertex 3.6 8.7 38.8
      vertex 3.6 8.7 0
    endloop
  endfacet
  facet normal -0.707107 0.707107 0
    outer loop
      vertex 3.6 8.7 38.8
      vertex 0 5.1 0
      vertex 0 5.1 38.8
    endloop
  endfacet
  facet normal 0.707107 -0.707107 0
    outer loop
      vertex 67.1107 1.5 38.8
      vertex 70.7107 5.1 0
      vertex 70.7107 5.1 38.8
    endloop
  endfacet
  facet normal 0.707107 -0.707107 0
    outer loop
      vertex 70.7107 5.1 0
      vertex 67.1107 1.5 38.8
      vertex 67.1107 1.5 0
    endloop
  endfacet
  facet normal 0.707107 0.707107 0
    outer loop
      vertex 70.7107 5.1 38.8
      vertex 67.1107 8.7 0
      vertex 67.1107 8.7 38.8
    endloop
  endfacet
  facet normal 0.707107 0.707107 0
    outer loop
      vertex 67.1107 8.7 0
      vertex 70.7107 5.1 38.8
      vertex 70.7107 5.1 0
    endloop
  endfacet
  facet normal -0.707107 -0.707107 0
    outer loop
      vertex 3.6 1.5 0
      vertex 0 5.1 38.8
      vertex 0 5.1 0
    endloop
  endfacet
  facet normal -0.707107 -0.707107 0
    outer loop
      vertex 0 5.1 38.8
      vertex 3.6 1.5 0
      vertex 3.6 1.5 38.8
    endloop
  endfacet
endsolid OpenSCAD_Model
