solid OpenSCAD_Model
  facet normal -0 0 1
    outer loop
      vertex 0 16.31 3
      vertex 14.8 14.8 3
      vertex 14.8 16.31 3
    endloop
  endfacet
  facet normal 0 0 1
    outer loop
      vertex 14.8 14.8 3
      vertex 0 16.31 3
      vertex 0 14.8 3
    endloop
  endfacet
  facet normal 0 0 -1
    outer loop
      vertex 0 14.8 0
      vertex 14.8 16.31 0
      vertex 14.8 14.8 0
    endloop
  endfacet
  facet normal -0 0 -1
    outer loop
      vertex 14.8 16.31 0
      vertex 0 14.8 0
      vertex 0 16.31 0
    endloop
  endfacet
  facet normal 0 -1 0
    outer loop
      vertex 0 14.8 0
      vertex 14.8 14.8 3
      vertex 0 14.8 3
    endloop
  endfacet
  facet normal 0 -1 -0
    outer loop
      vertex 14.8 14.8 3
      vertex 0 14.8 0
      vertex 14.8 14.8 0
    endloop
  endfacet
  facet normal 1 -0 0
    outer loop
      vertex 14.8 14.8 3
      vertex 14.8 16.31 0
      vertex 14.8 16.31 3
    endloop
  endfacet
  facet normal 1 0 0
    outer loop
      vertex 14.8 16.31 0
      vertex 14.8 14.8 3
      vertex 14.8 14.8 0
    endloop
  endfacet
  facet normal 0 1 -0
    outer loop
      vertex 14.8 16.31 0
      vertex 0 16.31 3
      vertex 14.8 16.31 3
    endloop
  endfacet
  facet normal 0 1 0
    outer loop
      vertex 0 16.31 3
      vertex 14.8 16.31 0
      vertex 0 16.31 0
    endloop
  endfacet
  facet normal -1 0 0
    outer loop
      vertex 0 14.8 0
      vertex 0 16.31 3
      vertex 0 16.31 0
    endloop
  endfacet
  facet normal -1 -0 0
    outer loop
      vertex 0 16.31 3
      vertex 0 14.8 0
      vertex 0 14.8 3
    endloop
  endfacet
endsolid OpenSCAD_Model
