solid OpenSCAD_Model
  facet normal -0 0 1
    outer loop
      vertex 0 16.31 38.8
      vertex 14.8 14.8 38.8
      vertex 14.8 16.31 38.8
    endloop
  endfacet
  facet normal 0 0 1
    outer loop
      vertex 14.8 14.8 38.8
      vertex 0 16.31 38.8
      vertex 0 14.8 38.8
    endloop
  endfacet
  facet normal 0 0 -1
    outer loop
      vertex 0 14.8 35.8
      vertex 14.8 16.31 35.8
      vertex 14.8 14.8 35.8
    endloop
  endfacet
  facet normal -0 0 -1
    outer loop
      vertex 14.8 16.31 35.8
      vertex 0 14.8 35.8
      vertex 0 16.31 35.8
    endloop
  endfacet
  facet normal 0 -1 0
    outer loop
      vertex 0 14.8 35.8
      vertex 14.8 14.8 38.8
      vertex 0 14.8 38.8
    endloop
  endfacet
  facet normal 0 -1 -0
    outer loop
      vertex 14.8 14.8 38.8
      vertex 0 14.8 35.8
      vertex 14.8 14.8 35.8
    endloop
  endfacet
  facet normal 1 -0 0
    outer loop
      vertex 14.8 14.8 38.8
      vertex 14.8 16.31 35.8
      vertex 14.8 16.31 38.8
    endloop
  endfacet
  facet normal 1 0 0
    outer loop
      vertex 14.8 16.31 35.8
      vertex 14.8 14.8 38.8
      vertex 14.8 14.8 35.8
    endloop
  endfacet
  facet normal 0 1 -0
    outer loop
      vertex 14.8 16.31 35.8
      vertex 0 16.31 38.8
      vertex 14.8 16.31 38.8
    endloop
  endfacet
  facet normal 0 1 0
    outer loop
      vertex 0 16.31 38.8
      vertex 14.8 16.31 35.8
      vertex 0 16.31 35.8
    endloop
  endfacet
  facet normal -1 0 0
    outer loop
      vertex 0 14.8 35.8
      vertex 0 16.31 38.8
      vertex 0 16.31 35.8
    endloop
  endfacet
  facet normal -1 -0 0
    outer loop
      vertex 0 16.31 38.8
      vertex 0 14.8 35.8
      vertex 0 14.8 38.8
    endloop
  endfacet
endsolid OpenSCAD_Model
