solid OpenSCAD_Model
  facet normal 0.66523 0 -0.746638
    outer loop
      vertex 4.50972 0 3
      vertex 23.5 1.51 19.9197
      vertex 23.5 0 19.9197
    endloop
  endfacet
  facet normal 0.66523 0 -0.746638
    outer loop
      vertex 23.5 1.51 19.9197
      vertex 4.50972 0 3
      vertex 4.50972 1.51 3
    endloop
  endfacet
  facet normal 0.66523 0 -0.746638
    outer loop
      vertex 26.5 0 22.5926
      vertex 39.8 1.51 34.4425
      vertex 39.8 0 34.4425
    endloop
  endfacet
  facet normal 0.66523 0 -0.746638
    outer loop
      vertex 39.8 1.51 34.4425
      vertex 26.5 0 22.5926
      vertex 26.5 1.51 22.5926
    endloop
  endfacet
  facet normal -0.66523 0 0.746638
    outer loop
      vertex 26.5 1.51 26.6106
      vertex 36.8139 0 35.8
      vertex 36.8139 1.51 35.8
    endloop
  endfacet
  facet normal -0.66523 0 0.746638
    outer loop
      vertex 36.8139 0 35.8
      vertex 26.5 1.51 26.6106
      vertex 26.5 0 26.6106
    endloop
  endfacet
  facet normal -0.66523 0 0.746638
    outer loop
      vertex 1.5 1.51 4.33645
      vertex 23.5 0 23.9377
      vertex 23.5 1.51 23.9377
    endloop
  endfacet
  facet normal -0.66523 0 0.746638
    outer loop
      vertex 23.5 0 23.9377
      vertex 1.5 1.51 4.33645
      vertex 1.5 0 4.33645
    endloop
  endfacet
  facet normal 0 1 -0
    outer loop
      vertex 23.5 1.51 19.9197
      vertex 1.5 1.51 4.33645
      vertex 23.5 1.51 23.9377
    endloop
  endfacet
  facet normal 0 1 -0
    outer loop
      vertex 4.50972 1.51 3
      vertex 1.5 1.51 4.33645
      vertex 23.5 1.51 19.9197
    endloop
  endfacet
  facet normal 0 1 0
    outer loop
      vertex 1.5 1.51 4.33645
      vertex 4.50972 1.51 3
      vertex 1.5 1.51 3
    endloop
  endfacet
  facet normal 0 1 -0
    outer loop
      vertex 39.8 1.51 34.4425
      vertex 36.8139 1.51 35.8
      vertex 39.8 1.51 35.8
    endloop
  endfacet
  facet normal 0 1 0
    outer loop
      vertex 39.8 1.51 34.4425
      vertex 26.5 1.51 26.6106
      vertex 36.8139 1.51 35.8
    endloop
  endfacet
  facet normal -0 1 0
    outer loop
      vertex 26.5 1.51 26.6106
      vertex 39.8 1.51 34.4425
      vertex 26.5 1.51 22.5926
    endloop
  endfacet
  facet normal 0 -1 0
    outer loop
      vertex 1.5 0 4.33645
      vertex 23.5 0 19.9197
      vertex 23.5 0 23.9377
    endloop
  endfacet
  facet normal 0 -1 0
    outer loop
      vertex 4.50972 0 3
      vertex 1.5 0 4.33645
      vertex 1.5 0 3
    endloop
  endfacet
  facet normal 0 -1 0
    outer loop
      vertex 1.5 0 4.33645
      vertex 4.50972 0 3
      vertex 23.5 0 19.9197
    endloop
  endfacet
  facet normal 0 -1 0
    outer loop
      vertex 36.8139 0 35.8
      vertex 39.8 0 34.4425
      vertex 39.8 0 35.8
    endloop
  endfacet
  facet normal 0 -1 0
    outer loop
      vertex 26.5 0 26.6106
      vertex 39.8 0 34.4425
      vertex 36.8139 0 35.8
    endloop
  endfacet
  facet normal 0 -1 0
    outer loop
      vertex 39.8 0 34.4425
      vertex 26.5 0 26.6106
      vertex 26.5 0 22.5926
    endloop
  endfacet
  facet normal 0 0 -1
    outer loop
      vertex 1.5 0 3
      vertex 4.50972 1.51 3
      vertex 4.50972 0 3
    endloop
  endfacet
  facet normal -0 0 -1
    outer loop
      vertex 4.50972 1.51 3
      vertex 1.5 0 3
      vertex 1.5 1.51 3
    endloop
  endfacet
  facet normal -0 0 1
    outer loop
      vertex 36.8139 1.51 35.8
      vertex 39.8 0 35.8
      vertex 39.8 1.51 35.8
    endloop
  endfacet
  facet normal 0 0 1
    outer loop
      vertex 39.8 0 35.8
      vertex 36.8139 1.51 35.8
      vertex 36.8139 0 35.8
    endloop
  endfacet
  facet normal -1 0 0
    outer loop
      vertex 1.5 0 3
      vertex 1.5 1.51 4.33645
      vertex 1.5 1.51 3
    endloop
  endfacet
  facet normal -1 -0 0
    outer loop
      vertex 1.5 1.51 4.33645
      vertex 1.5 0 3
      vertex 1.5 0 4.33645
    endloop
  endfacet
  facet normal 1 -0 0
    outer loop
      vertex 39.8 0 35.8
      vertex 39.8 1.51 34.4425
      vertex 39.8 1.51 35.8
    endloop
  endfacet
  facet normal 1 0 0
    outer loop
      vertex 39.8 1.51 34.4425
      vertex 39.8 0 35.8
      vertex 39.8 0 34.4425
    endloop
  endfacet
  facet normal 1 -0 0
    outer loop
      vertex 23.5 0 23.9377
      vertex 23.5 1.51 19.9197
      vertex 23.5 1.51 23.9377
    endloop
  endfacet
  facet normal 1 0 0
    outer loop
      vertex 23.5 1.51 19.9197
      vertex 23.5 0 23.9377
      vertex 23.5 0 19.9197
    endloop
  endfacet
  facet normal -1 0 0
    outer loop
      vertex 26.5 0 22.5926
      vertex 26.5 1.51 26.6106
      vertex 26.5 1.51 22.5926
    endloop
  endfacet
  facet normal -1 -0 0
    outer loop
      vertex 26.5 1.51 26.6106
      vertex 26.5 0 22.5926
      vertex 26.5 0 26.6106
    endloop
  endfacet
endsolid OpenSCAD_Model
