solid OpenSCAD_Model
  facet normal -0 0 1
    outer loop
      vertex 0 25.01 3
      vertex 22 23.5 3
      vertex 22 25.01 3
    endloop
  endfacet
  facet normal 0 0 1
    outer loop
      vertex 22 23.5 3
      vertex 0 25.01 3
      vertex 0 23.5 3
    endloop
  endfacet
  facet normal 0 0 -1
    outer loop
      vertex 0 23.5 0
      vertex 22 25.01 0
      vertex 22 23.5 0
    endloop
  endfacet
  facet normal -0 0 -1
    outer loop
      vertex 22 25.01 0
      vertex 0 23.5 0
      vertex 0 25.01 0
    endloop
  endfacet
  facet normal 0 -1 0
    outer loop
      vertex 0 23.5 0
      vertex 22 23.5 3
      vertex 0 23.5 3
    endloop
  endfacet
  facet normal 0 -1 -0
    outer loop
      vertex 22 23.5 3
      vertex 0 23.5 0
      vertex 22 23.5 0
    endloop
  endfacet
  facet normal 1 -0 0
    outer loop
      vertex 22 23.5 3
      vertex 22 25.01 0
      vertex 22 25.01 3
    endloop
  endfacet
  facet normal 1 0 0
    outer loop
      vertex 22 25.01 0
      vertex 22 23.5 3
      vertex 22 23.5 0
    endloop
  endfacet
  facet normal 0 1 -0
    outer loop
      vertex 22 25.01 0
      vertex 0 25.01 3
      vertex 22 25.01 3
    endloop
  endfacet
  facet normal 0 1 0
    outer loop
      vertex 0 25.01 3
      vertex 22 25.01 0
      vertex 0 25.01 0
    endloop
  endfacet
  facet normal -1 0 0
    outer loop
      vertex 0 23.5 0
      vertex 0 25.01 3
      vertex 0 25.01 0
    endloop
  endfacet
  facet normal -1 -0 0
    outer loop
      vertex 0 25.01 3
      vertex 0 23.5 0
      vertex 0 23.5 3
    endloop
  endfacet
endsolid OpenSCAD_Model
