solid OpenSCAD_Model
  facet normal -1 0 0
    outer loop
      vertex 22 23.5 0
      vertex 22 25.01 38.8
      vertex 22 25.01 0
    endloop
  endfacet
  facet normal -1 -0 0
    outer loop
      vertex 22 25.01 38.8
      vertex 22 23.5 0
      vertex 22 23.5 38.8
    endloop
  endfacet
  facet normal 0 0 1
    outer loop
      vertex 25 25.01 38.8
      vertex 23.5 23.5 38.8
      vertex 25 23.5 38.8
    endloop
  endfacet
  facet normal -0 0 1
    outer loop
      vertex 22 25.01 38.8
      vertex 23.5 23.5 38.8
      vertex 25 25.01 38.8
    endloop
  endfacet
  facet normal 0 0 1
    outer loop
      vertex 23.5 23.5 38.8
      vertex 22 25.01 38.8
      vertex 22 23.5 38.8
    endloop
  endfacet
  facet normal -0 0 1
    outer loop
      vertex 25 23.5 38.8
      vertex 25.01 22 38.8
      vertex 25.01 23.5 38.8
    endloop
  endfacet
  facet normal -0 0 1
    outer loop
      vertex 23.5 23.5 38.8
      vertex 25.01 22 38.8
      vertex 25 23.5 38.8
    endloop
  endfacet
  facet normal 0 0 1
    outer loop
      vertex 25.01 22 38.8
      vertex 23.5 23.5 38.8
      vertex 23.5 22 38.8
    endloop
  endfacet
  facet normal 1 -0 0
    outer loop
      vertex 25 23.5 38.8
      vertex 25 25.01 0
      vertex 25 25.01 38.8
    endloop
  endfacet
  facet normal 1 0 0
    outer loop
      vertex 25 25.01 0
      vertex 25 23.5 38.8
      vertex 25 23.5 0
    endloop
  endfacet
  facet normal 0 1 -0
    outer loop
      vertex 25 25.01 0
      vertex 22 25.01 38.8
      vertex 25 25.01 38.8
    endloop
  endfacet
  facet normal 0 1 0
    outer loop
      vertex 22 25.01 38.8
      vertex 25 25.01 0
      vertex 22 25.01 0
    endloop
  endfacet
  facet normal 0 0 -1
    outer loop
      vertex 25.01 22 0
      vertex 25 23.5 0
      vertex 25.01 23.5 0
    endloop
  endfacet
  facet normal 0 0 -1
    outer loop
      vertex 23.5 22 0
      vertex 25 23.5 0
      vertex 25.01 22 0
    endloop
  endfacet
  facet normal 0 0 -1
    outer loop
      vertex 23.5 23.5 0
      vertex 25 23.5 0
      vertex 23.5 22 0
    endloop
  endfacet
  facet normal 0 0 -1
    outer loop
      vertex 25 23.5 0
      vertex 23.5 23.5 0
      vertex 25 25.01 0
    endloop
  endfacet
  facet normal 0 0 -1
    outer loop
      vertex 22 25.01 0
      vertex 23.5 23.5 0
      vertex 22 23.5 0
    endloop
  endfacet
  facet normal 0 0 -1
    outer loop
      vertex 23.5 23.5 0
      vertex 22 25.01 0
      vertex 25 25.01 0
    endloop
  endfacet
  facet normal 0 1 -0
    outer loop
      vertex 25.01 23.5 0
      vertex 25 23.5 38.8
      vertex 25.01 23.5 38.8
    endloop
  endfacet
  facet normal 0 1 0
    outer loop
      vertex 25 23.5 38.8
      vertex 25.01 23.5 0
      vertex 25 23.5 0
    endloop
  endfacet
  facet normal 0 -1 0
    outer loop
      vertex 22 23.5 0
      vertex 23.5 23.5 38.8
      vertex 22 23.5 38.8
    endloop
  endfacet
  facet normal 0 -1 -0
    outer loop
      vertex 23.5 23.5 38.8
      vertex 22 23.5 0
      vertex 23.5 23.5 0
    endloop
  endfacet
  facet normal -1 0 0
    outer loop
      vertex 23.5 22 0
      vertex 23.5 23.5 38.8
      vertex 23.5 23.5 0
    endloop
  endfacet
  facet normal -1 -0 0
    outer loop
      vertex 23.5 23.5 38.8
      vertex 23.5 22 0
      vertex 23.5 22 38.8
    endloop
  endfacet
  facet normal 1 -0 0
    outer loop
      vertex 25.01 22 38.8
      vertex 25.01 23.5 0
      vertex 25.01 23.5 38.8
    endloop
  endfacet
  facet normal 1 0 0
    outer loop
      vertex 25.01 23.5 0
      vertex 25.01 22 38.8
      vertex 25.01 22 0
    endloop
  endfacet
  facet normal 0 -1 0
    outer loop
      vertex 23.5 22 0
      vertex 25.01 22 38.8
      vertex 23.5 22 38.8
    endloop
  endfacet
  facet normal 0 -1 -0
    outer loop
      vertex 25.01 22 38.8
      vertex 23.5 22 0
      vertex 25.01 22 0
    endloop
  endfacet
endsolid OpenSCAD_Model
