solid OpenSCAD_Model
  facet normal -0 0 1
    outer loop
      vertex 0 25.01 38.8
      vertex 22 23.5 38.8
      vertex 22 25.01 38.8
    endloop
  endfacet
  facet normal 0 0 1
    outer loop
      vertex 22 23.5 38.8
      vertex 0 25.01 38.8
      vertex 0 23.5 38.8
    endloop
  endfacet
  facet normal 0 0 -1
    outer loop
      vertex 0 23.5 35.8
      vertex 22 25.01 35.8
      vertex 22 23.5 35.8
    endloop
  endfacet
  facet normal -0 0 -1
    outer loop
      vertex 22 25.01 35.8
      vertex 0 23.5 35.8
      vertex 0 25.01 35.8
    endloop
  endfacet
  facet normal 0 -1 0
    outer loop
      vertex 0 23.5 35.8
      vertex 22 23.5 38.8
      vertex 0 23.5 38.8
    endloop
  endfacet
  facet normal 0 -1 -0
    outer loop
      vertex 22 23.5 38.8
      vertex 0 23.5 35.8
      vertex 22 23.5 35.8
    endloop
  endfacet
  facet normal 1 -0 0
    outer loop
      vertex 22 23.5 38.8
      vertex 22 25.01 35.8
      vertex 22 25.01 38.8
    endloop
  endfacet
  facet normal 1 0 0
    outer loop
      vertex 22 25.01 35.8
      vertex 22 23.5 38.8
      vertex 22 23.5 35.8
    endloop
  endfacet
  facet normal 0 1 -0
    outer loop
      vertex 22 25.01 35.8
      vertex 0 25.01 38.8
      vertex 22 25.01 38.8
    endloop
  endfacet
  facet normal 0 1 0
    outer loop
      vertex 0 25.01 38.8
      vertex 22 25.01 35.8
      vertex 0 25.01 35.8
    endloop
  endfacet
  facet normal -1 0 0
    outer loop
      vertex 0 23.5 35.8
      vertex 0 25.01 38.8
      vertex 0 25.01 35.8
    endloop
  endfacet
  facet normal -1 -0 0
    outer loop
      vertex 0 25.01 38.8
      vertex 0 23.5 35.8
      vertex 0 23.5 38.8
    endloop
  endfacet
endsolid OpenSCAD_Model
