solid OpenSCAD_Model
  facet normal -1 0 0
    outer loop
      vertex 0 41.3 0
      vertex 0 48.5 38.8
      vertex 0 48.5 0
    endloop
  endfacet
  facet normal -1 -0 0
    outer loop
      vertex 0 48.5 38.8
      vertex 0 41.3 0
      vertex 0 41.3 38.8
    endloop
  endfacet
  facet normal 0 0 1
    outer loop
      vertex 48.5 48.5 38.8
      vertex 41.3 41.3 38.8
      vertex 48.5 0 38.8
    endloop
  endfacet
  facet normal -0 0 1
    outer loop
      vertex 0 48.5 38.8
      vertex 41.3 41.3 38.8
      vertex 48.5 48.5 38.8
    endloop
  endfacet
  facet normal 0 0 1
    outer loop
      vertex 41.3 41.3 38.8
      vertex 0 48.5 38.8
      vertex 0 41.3 38.8
    endloop
  endfacet
  facet normal 0 0 1
    outer loop
      vertex 48.5 0 38.8
      vertex 41.3 41.3 38.8
      vertex 41.3 0 38.8
    endloop
  endfacet
  facet normal 1 -0 0
    outer loop
      vertex 48.5 0 38.8
      vertex 48.5 48.5 0
      vertex 48.5 48.5 38.8
    endloop
  endfacet
  facet normal 1 0 0
    outer loop
      vertex 48.5 48.5 0
      vertex 48.5 0 38.8
      vertex 48.5 0 0
    endloop
  endfacet
  facet normal 0 1 -0
    outer loop
      vertex 48.5 48.5 0
      vertex 0 48.5 38.8
      vertex 48.5 48.5 38.8
    endloop
  endfacet
  facet normal 0 1 0
    outer loop
      vertex 0 48.5 38.8
      vertex 48.5 48.5 0
      vertex 0 48.5 0
    endloop
  endfacet
  facet normal 0 0 -1
    outer loop
      vertex 41.3 41.3 0
      vertex 48.5 0 0
      vertex 41.3 0 0
    endloop
  endfacet
  facet normal 0 0 -1
    outer loop
      vertex 48.5 0 0
      vertex 41.3 41.3 0
      vertex 48.5 48.5 0
    endloop
  endfacet
  facet normal 0 0 -1
    outer loop
      vertex 0 48.5 0
      vertex 41.3 41.3 0
      vertex 0 41.3 0
    endloop
  endfacet
  facet normal 0 0 -1
    outer loop
      vertex 41.3 41.3 0
      vertex 0 48.5 0
      vertex 48.5 48.5 0
    endloop
  endfacet
  facet normal 0 -1 0
    outer loop
      vertex 0 41.3 0
      vertex 41.3 41.3 38.8
      vertex 0 41.3 38.8
    endloop
  endfacet
  facet normal 0 -1 -0
    outer loop
      vertex 41.3 41.3 38.8
      vertex 0 41.3 0
      vertex 41.3 41.3 0
    endloop
  endfacet
  facet normal -1 0 0
    outer loop
      vertex 41.3 0 0
      vertex 41.3 41.3 38.8
      vertex 41.3 41.3 0
    endloop
  endfacet
  facet normal -1 -0 0
    outer loop
      vertex 41.3 41.3 38.8
      vertex 41.3 0 0
      vertex 41.3 0 38.8
    endloop
  endfacet
  facet normal 0 -1 0
    outer loop
      vertex 41.3 0 0
      vertex 48.5 0 38.8
      vertex 41.3 0 38.8
    endloop
  endfacet
  facet normal 0 -1 -0
    outer loop
      vertex 48.5 0 38.8
      vertex 41.3 0 0
      vertex 48.5 0 0
    endloop
  endfacet
endsolid OpenSCAD_Model
