solid OpenSCAD_Model
  facet normal -1 0 0
    outer loop
      vertex 0 66.3 0
      vertex 0 73.5 38.8
      vertex 0 73.5 0
    endloop
  endfacet
  facet normal -1 -0 0
    outer loop
      vertex 0 73.5 38.8
      vertex 0 66.3 0
      vertex 0 66.3 38.8
    endloop
  endfacet
  facet normal 0 0 1
    outer loop
      vertex 73.5 73.5 38.8
      vertex 66.3 66.3 38.8
      vertex 73.5 0 38.8
    endloop
  endfacet
  facet normal -0 0 1
    outer loop
      vertex 0 73.5 38.8
      vertex 66.3 66.3 38.8
      vertex 73.5 73.5 38.8
    endloop
  endfacet
  facet normal 0 0 1
    outer loop
      vertex 66.3 66.3 38.8
      vertex 0 73.5 38.8
      vertex 0 66.3 38.8
    endloop
  endfacet
  facet normal 0 0 1
    outer loop
      vertex 73.5 0 38.8
      vertex 66.3 66.3 38.8
      vertex 66.3 0 38.8
    endloop
  endfacet
  facet normal 1 -0 0
    outer loop
      vertex 73.5 0 38.8
      vertex 73.5 73.5 0
      vertex 73.5 73.5 38.8
    endloop
  endfacet
  facet normal 1 0 0
    outer loop
      vertex 73.5 73.5 0
      vertex 73.5 0 38.8
      vertex 73.5 0 0
    endloop
  endfacet
  facet normal 0 1 -0
    outer loop
      vertex 73.5 73.5 0
      vertex 0 73.5 38.8
      vertex 73.5 73.5 38.8
    endloop
  endfacet
  facet normal 0 1 0
    outer loop
      vertex 0 73.5 38.8
      vertex 73.5 73.5 0
      vertex 0 73.5 0
    endloop
  endfacet
  facet normal 0 0 -1
    outer loop
      vertex 66.3 66.3 0
      vertex 73.5 0 0
      vertex 66.3 0 0
    endloop
  endfacet
  facet normal 0 0 -1
    outer loop
      vertex 73.5 0 0
      vertex 66.3 66.3 0
      vertex 73.5 73.5 0
    endloop
  endfacet
  facet normal 0 0 -1
    outer loop
      vertex 0 73.5 0
      vertex 66.3 66.3 0
      vertex 0 66.3 0
    endloop
  endfacet
  facet normal 0 0 -1
    outer loop
      vertex 66.3 66.3 0
      vertex 0 73.5 0
      vertex 73.5 73.5 0
    endloop
  endfacet
  facet normal 0 -1 0
    outer loop
      vertex 0 66.3 0
      vertex 66.3 66.3 38.8
      vertex 0 66.3 38.8
    endloop
  endfacet
  facet normal 0 -1 -0
    outer loop
      vertex 66.3 66.3 38.8
      vertex 0 66.3 0
      vertex 66.3 66.3 0
    endloop
  endfacet
  facet normal -1 0 0
    outer loop
      vertex 66.3 0 0
      vertex 66.3 66.3 38.8
      vertex 66.3 66.3 0
    endloop
  endfacet
  facet normal -1 -0 0
    outer loop
      vertex 66.3 66.3 38.8
      vertex 66.3 0 0
      vertex 66.3 0 38.8
    endloop
  endfacet
  facet normal 0 -1 0
    outer loop
      vertex 66.3 0 0
      vertex 73.5 0 38.8
      vertex 66.3 0 38.8
    endloop
  endfacet
  facet normal 0 -1 -0
    outer loop
      vertex 73.5 0 38.8
      vertex 66.3 0 0
      vertex 73.5 0 0
    endloop
  endfacet
endsolid OpenSCAD_Model
