solid OpenSCAD_Model
  facet normal -1 0 0
    outer loop
      vertex 0 16.3 0
      vertex 0 23.5 38.8
      vertex 0 23.5 0
    endloop
  endfacet
  facet normal -1 -0 0
    outer loop
      vertex 0 23.5 38.8
      vertex 0 16.3 0
      vertex 0 16.3 38.8
    endloop
  endfacet
  facet normal 0 0 1
    outer loop
      vertex 23.5 23.5 38.8
      vertex 16.3 16.3 38.8
      vertex 23.5 0 38.8
    endloop
  endfacet
  facet normal -0 0 1
    outer loop
      vertex 0 23.5 38.8
      vertex 16.3 16.3 38.8
      vertex 23.5 23.5 38.8
    endloop
  endfacet
  facet normal 0 0 1
    outer loop
      vertex 16.3 16.3 38.8
      vertex 0 23.5 38.8
      vertex 0 16.3 38.8
    endloop
  endfacet
  facet normal 0 0 1
    outer loop
      vertex 23.5 0 38.8
      vertex 16.3 16.3 38.8
      vertex 16.3 0 38.8
    endloop
  endfacet
  facet normal 1 -0 0
    outer loop
      vertex 23.5 0 38.8
      vertex 23.5 23.5 0
      vertex 23.5 23.5 38.8
    endloop
  endfacet
  facet normal 1 0 0
    outer loop
      vertex 23.5 23.5 0
      vertex 23.5 0 38.8
      vertex 23.5 0 0
    endloop
  endfacet
  facet normal 0 1 -0
    outer loop
      vertex 23.5 23.5 0
      vertex 0 23.5 38.8
      vertex 23.5 23.5 38.8
    endloop
  endfacet
  facet normal 0 1 0
    outer loop
      vertex 0 23.5 38.8
      vertex 23.5 23.5 0
      vertex 0 23.5 0
    endloop
  endfacet
  facet normal 0 0 -1
    outer loop
      vertex 16.3 16.3 0
      vertex 23.5 0 0
      vertex 16.3 0 0
    endloop
  endfacet
  facet normal 0 0 -1
    outer loop
      vertex 23.5 0 0
      vertex 16.3 16.3 0
      vertex 23.5 23.5 0
    endloop
  endfacet
  facet normal 0 0 -1
    outer loop
      vertex 0 23.5 0
      vertex 16.3 16.3 0
      vertex 0 16.3 0
    endloop
  endfacet
  facet normal 0 0 -1
    outer loop
      vertex 16.3 16.3 0
      vertex 0 23.5 0
      vertex 23.5 23.5 0
    endloop
  endfacet
  facet normal 0 -1 0
    outer loop
      vertex 0 16.3 0
      vertex 16.3 16.3 38.8
      vertex 0 16.3 38.8
    endloop
  endfacet
  facet normal 0 -1 -0
    outer loop
      vertex 16.3 16.3 38.8
      vertex 0 16.3 0
      vertex 16.3 16.3 0
    endloop
  endfacet
  facet normal -1 0 0
    outer loop
      vertex 16.3 0 0
      vertex 16.3 16.3 38.8
      vertex 16.3 16.3 0
    endloop
  endfacet
  facet normal -1 -0 0
    outer loop
      vertex 16.3 16.3 38.8
      vertex 16.3 0 0
      vertex 16.3 0 38.8
    endloop
  endfacet
  facet normal 0 -1 0
    outer loop
      vertex 16.3 0 0
      vertex 23.5 0 38.8
      vertex 16.3 0 38.8
    endloop
  endfacet
  facet normal 0 -1 -0
    outer loop
      vertex 23.5 0 38.8
      vertex 16.3 0 0
      vertex 23.5 0 0
    endloop
  endfacet
endsolid OpenSCAD_Model
