solid OpenSCAD_Model
  facet normal -1 0 0
    outer loop
      vertex 0 91.3 0
      vertex 0 98.5 38.8
      vertex 0 98.5 0
    endloop
  endfacet
  facet normal -1 -0 0
    outer loop
      vertex 0 98.5 38.8
      vertex 0 91.3 0
      vertex 0 91.3 38.8
    endloop
  endfacet
  facet normal 0 0 1
    outer loop
      vertex 98.5 98.5 38.8
      vertex 91.3 91.3 38.8
      vertex 98.5 0 38.8
    endloop
  endfacet
  facet normal -0 0 1
    outer loop
      vertex 0 98.5 38.8
      vertex 91.3 91.3 38.8
      vertex 98.5 98.5 38.8
    endloop
  endfacet
  facet normal 0 0 1
    outer loop
      vertex 91.3 91.3 38.8
      vertex 0 98.5 38.8
      vertex 0 91.3 38.8
    endloop
  endfacet
  facet normal 0 0 1
    outer loop
      vertex 98.5 0 38.8
      vertex 91.3 91.3 38.8
      vertex 91.3 0 38.8
    endloop
  endfacet
  facet normal 1 -0 0
    outer loop
      vertex 98.5 0 38.8
      vertex 98.5 98.5 0
      vertex 98.5 98.5 38.8
    endloop
  endfacet
  facet normal 1 0 0
    outer loop
      vertex 98.5 98.5 0
      vertex 98.5 0 38.8
      vertex 98.5 0 0
    endloop
  endfacet
  facet normal 0 0 -1
    outer loop
      vertex 91.3 91.3 0
      vertex 98.5 0 0
      vertex 91.3 0 0
    endloop
  endfacet
  facet normal 0 0 -1
    outer loop
      vertex 98.5 0 0
      vertex 91.3 91.3 0
      vertex 98.5 98.5 0
    endloop
  endfacet
  facet normal 0 0 -1
    outer loop
      vertex 0 98.5 0
      vertex 91.3 91.3 0
      vertex 0 91.3 0
    endloop
  endfacet
  facet normal 0 0 -1
    outer loop
      vertex 91.3 91.3 0
      vertex 0 98.5 0
      vertex 98.5 98.5 0
    endloop
  endfacet
  facet normal 0 -1 0
    outer loop
      vertex 0 91.3 0
      vertex 91.3 91.3 38.8
      vertex 0 91.3 38.8
    endloop
  endfacet
  facet normal 0 -1 -0
    outer loop
      vertex 91.3 91.3 38.8
      vertex 0 91.3 0
      vertex 91.3 91.3 0
    endloop
  endfacet
  facet normal 0 1 -0
    outer loop
      vertex 98.5 98.5 0
      vertex 0 98.5 38.8
      vertex 98.5 98.5 38.8
    endloop
  endfacet
  facet normal 0 1 0
    outer loop
      vertex 0 98.5 38.8
      vertex 98.5 98.5 0
      vertex 0 98.5 0
    endloop
  endfacet
  facet normal -1 0 0
    outer loop
      vertex 91.3 0 0
      vertex 91.3 91.3 38.8
      vertex 91.3 91.3 0
    endloop
  endfacet
  facet normal -1 -0 0
    outer loop
      vertex 91.3 91.3 38.8
      vertex 91.3 0 0
      vertex 91.3 0 38.8
    endloop
  endfacet
  facet normal 0 -1 0
    outer loop
      vertex 91.3 0 0
      vertex 98.5 0 38.8
      vertex 91.3 0 38.8
    endloop
  endfacet
  facet normal 0 -1 -0
    outer loop
      vertex 98.5 0 38.8
      vertex 91.3 0 0
      vertex 98.5 0 0
    endloop
  endfacet
endsolid OpenSCAD_Model
