solid OpenSCAD_Model
  facet normal -1 0 0
    outer loop
      vertex -1 -1 -1
      vertex -1 93.2218 9
      vertex -1 93.2218 -1
    endloop
  endfacet
  facet normal -1 -0 0
    outer loop
      vertex -1 93.2218 9
      vertex -1 -1 -1
      vertex -1 -1 9
    endloop
  endfacet
  facet normal 0 0 1
    outer loop
      vertex -1 93.2218 9
      vertex -1 -1 9
      vertex 93.2218 -1 9
    endloop
  endfacet
  facet normal 0 0 -1
    outer loop
      vertex 93.2218 -1 -1
      vertex -1 -1 -1
      vertex -1 93.2218 -1
    endloop
  endfacet
  facet normal 0 -1 0
    outer loop
      vertex -1 -1 -1
      vertex 93.2218 -1 9
      vertex -1 -1 9
    endloop
  endfacet
  facet normal 0 -1 -0
    outer loop
      vertex 93.2218 -1 9
      vertex -1 -1 -1
      vertex 93.2218 -1 -1
    endloop
  endfacet
  facet normal 0.707107 0.707107 0
    outer loop
      vertex 93.2218 -1 9
      vertex -1 93.2218 -1
      vertex -1 93.2218 9
    endloop
  endfacet
  facet normal 0.707107 0.707107 0
    outer loop
      vertex -1 93.2218 -1
      vertex 93.2218 -1 9
      vertex 93.2218 -1 -1
    endloop
  endfacet
endsolid OpenSCAD_Model
