solid OpenSCAD_Model
  facet normal 0 1 -0
    outer loop
      vertex 4.76837e-07 25 0
      vertex 0 25 5.2
      vertex 4.76837e-07 25 5.2
    endloop
  endfacet
  facet normal 0 1 0
    outer loop
      vertex 0 25 5.2
      vertex 4.76837e-07 25 0
      vertex 0 25 0
    endloop
  endfacet
  facet normal 0 0 1
    outer loop
      vertex 17.7875 0 5.2
      vertex 25 4.76837e-07 5.2
      vertex 25 7.21249 5.2
    endloop
  endfacet
  facet normal 0 0 1
    outer loop
      vertex 25 4.76837e-07 5.2
      vertex 17.7875 0 5.2
      vertex 25 0 5.2
    endloop
  endfacet
  facet normal 0 0 1
    outer loop
      vertex 7.21249 25 5.2
      vertex 17.7875 0 5.2
      vertex 25 7.21249 5.2
    endloop
  endfacet
  facet normal 0 0 1
    outer loop
      vertex 0 17.7875 5.2
      vertex 7.21249 25 5.2
      vertex 4.76837e-07 25 5.2
    endloop
  endfacet
  facet normal 0 0 1
    outer loop
      vertex 0 17.7875 5.2
      vertex 4.76837e-07 25 5.2
      vertex 0 25 5.2
    endloop
  endfacet
  facet normal 0 0 1
    outer loop
      vertex 7.21249 25 5.2
      vertex 0 17.7875 5.2
      vertex 17.7875 0 5.2
    endloop
  endfacet
  facet normal 1 -0 0
    outer loop
      vertex 25 0 5.2
      vertex 25 4.76837e-07 0
      vertex 25 4.76837e-07 5.2
    endloop
  endfacet
  facet normal 1 0 0
    outer loop
      vertex 25 4.76837e-07 0
      vertex 25 0 5.2
      vertex 25 0 0
    endloop
  endfacet
  facet normal 0.707107 0.707107 0
    outer loop
      vertex 25 7.21249 5.2
      vertex 7.21249 25 0
      vertex 7.21249 25 5.2
    endloop
  endfacet
  facet normal 0.707107 0.707107 0
    outer loop
      vertex 7.21249 25 0
      vertex 25 7.21249 5.2
      vertex 25 7.21249 0
    endloop
  endfacet
  facet normal 0 0 -1
    outer loop
      vertex 17.7875 0 0
      vertex 25 4.76837e-07 0
      vertex 25 0 0
    endloop
  endfacet
  facet normal -0 0 -1
    outer loop
      vertex 25 4.76837e-07 0
      vertex 17.7875 0 0
      vertex 25 7.21249 0
    endloop
  endfacet
  facet normal 0 0 -1
    outer loop
      vertex 17.7875 0 0
      vertex 7.21249 25 0
      vertex 25 7.21249 0
    endloop
  endfacet
  facet normal 0 0 -1
    outer loop
      vertex 0 17.7875 0
      vertex 7.21249 25 0
      vertex 17.7875 0 0
    endloop
  endfacet
  facet normal -0 0 -1
    outer loop
      vertex 7.21249 25 0
      vertex 0 17.7875 0
      vertex 4.76837e-07 25 0
    endloop
  endfacet
  facet normal -0 0 -1
    outer loop
      vertex 4.76837e-07 25 0
      vertex 0 17.7875 0
      vertex 0 25 0
    endloop
  endfacet
  facet normal -0.707107 -0.707107 0
    outer loop
      vertex 17.7875 0 0
      vertex 0 17.7875 5.2
      vertex 0 17.7875 0
    endloop
  endfacet
  facet normal -0.707107 -0.707107 0
    outer loop
      vertex 0 17.7875 5.2
      vertex 17.7875 0 0
      vertex 17.7875 0 5.2
    endloop
  endfacet
  facet normal -1 0 0
    outer loop
      vertex 0 17.7875 0
      vertex 0 25 5.2
      vertex 0 25 0
    endloop
  endfacet
  facet normal -1 -0 0
    outer loop
      vertex 0 25 5.2
      vertex 0 17.7875 0
      vertex 0 17.7875 5.2
    endloop
  endfacet
  facet normal 1 -0 0
    outer loop
      vertex 25 4.76837e-07 5.2
      vertex 25 7.21249 0
      vertex 25 7.21249 5.2
    endloop
  endfacet
  facet normal 1 0 0
    outer loop
      vertex 25 7.21249 0
      vertex 25 4.76837e-07 5.2
      vertex 25 4.76837e-07 0
    endloop
  endfacet
  facet normal 0 1 -0
    outer loop
      vertex 7.21249 25 0
      vertex 4.76837e-07 25 5.2
      vertex 7.21249 25 5.2
    endloop
  endfacet
  facet normal 0 1 0
    outer loop
      vertex 4.76837e-07 25 5.2
      vertex 7.21249 25 0
      vertex 4.76837e-07 25 0
    endloop
  endfacet
  facet normal 0 -1 0
    outer loop
      vertex 17.7875 0 0
      vertex 25 0 5.2
      vertex 17.7875 0 5.2
    endloop
  endfacet
  facet normal 0 -1 -0
    outer loop
      vertex 25 0 5.2
      vertex 17.7875 0 0
      vertex 25 0 0
    endloop
  endfacet
endsolid OpenSCAD_Model
