solid OpenSCAD_Model
  facet normal 0 1 -0
    outer loop
      vertex 4.76837e-07 50 0
      vertex 0 50 5.2
      vertex 4.76837e-07 50 5.2
    endloop
  endfacet
  facet normal 0 1 0
    outer loop
      vertex 0 50 5.2
      vertex 4.76837e-07 50 0
      vertex 0 50 0
    endloop
  endfacet
  facet normal 0 0 1
    outer loop
      vertex 42.7875 0 5.2
      vertex 50 4.76837e-07 5.2
      vertex 50 7.21249 5.2
    endloop
  endfacet
  facet normal 0 0 1
    outer loop
      vertex 50 4.76837e-07 5.2
      vertex 42.7875 0 5.2
      vertex 50 0 5.2
    endloop
  endfacet
  facet normal 0 0 1
    outer loop
      vertex 7.21249 50 5.2
      vertex 42.7875 0 5.2
      vertex 50 7.21249 5.2
    endloop
  endfacet
  facet normal 0 0 1
    outer loop
      vertex 0 42.7875 5.2
      vertex 7.21249 50 5.2
      vertex 4.76837e-07 50 5.2
    endloop
  endfacet
  facet normal 0 0 1
    outer loop
      vertex 0 42.7875 5.2
      vertex 4.76837e-07 50 5.2
      vertex 0 50 5.2
    endloop
  endfacet
  facet normal 0 0 1
    outer loop
      vertex 7.21249 50 5.2
      vertex 0 42.7875 5.2
      vertex 42.7875 0 5.2
    endloop
  endfacet
  facet normal 1 -0 0
    outer loop
      vertex 50 0 5.2
      vertex 50 4.76837e-07 0
      vertex 50 4.76837e-07 5.2
    endloop
  endfacet
  facet normal 1 0 0
    outer loop
      vertex 50 4.76837e-07 0
      vertex 50 0 5.2
      vertex 50 0 0
    endloop
  endfacet
  facet normal 0.707107 0.707107 0
    outer loop
      vertex 50 7.21249 5.2
      vertex 7.21249 50 0
      vertex 7.21249 50 5.2
    endloop
  endfacet
  facet normal 0.707107 0.707107 0
    outer loop
      vertex 7.21249 50 0
      vertex 50 7.21249 5.2
      vertex 50 7.21249 0
    endloop
  endfacet
  facet normal 0 0 -1
    outer loop
      vertex 42.7875 0 0
      vertex 50 4.76837e-07 0
      vertex 50 0 0
    endloop
  endfacet
  facet normal -0 0 -1
    outer loop
      vertex 50 4.76837e-07 0
      vertex 42.7875 0 0
      vertex 50 7.21249 0
    endloop
  endfacet
  facet normal 0 0 -1
    outer loop
      vertex 42.7875 0 0
      vertex 7.21249 50 0
      vertex 50 7.21249 0
    endloop
  endfacet
  facet normal 0 0 -1
    outer loop
      vertex 0 42.7875 0
      vertex 7.21249 50 0
      vertex 42.7875 0 0
    endloop
  endfacet
  facet normal -0 0 -1
    outer loop
      vertex 7.21249 50 0
      vertex 0 42.7875 0
      vertex 4.76837e-07 50 0
    endloop
  endfacet
  facet normal -0 0 -1
    outer loop
      vertex 4.76837e-07 50 0
      vertex 0 42.7875 0
      vertex 0 50 0
    endloop
  endfacet
  facet normal -0.707107 -0.707107 0
    outer loop
      vertex 42.7875 0 0
      vertex 0 42.7875 5.2
      vertex 0 42.7875 0
    endloop
  endfacet
  facet normal -0.707107 -0.707107 0
    outer loop
      vertex 0 42.7875 5.2
      vertex 42.7875 0 0
      vertex 42.7875 0 5.2
    endloop
  endfacet
  facet normal -1 0 0
    outer loop
      vertex 0 42.7875 0
      vertex 0 50 5.2
      vertex 0 50 0
    endloop
  endfacet
  facet normal -1 -0 0
    outer loop
      vertex 0 50 5.2
      vertex 0 42.7875 0
      vertex 0 42.7875 5.2
    endloop
  endfacet
  facet normal 1 -0 0
    outer loop
      vertex 50 4.76837e-07 5.2
      vertex 50 7.21249 0
      vertex 50 7.21249 5.2
    endloop
  endfacet
  facet normal 1 0 0
    outer loop
      vertex 50 7.21249 0
      vertex 50 4.76837e-07 5.2
      vertex 50 4.76837e-07 0
    endloop
  endfacet
  facet normal 0 -1 0
    outer loop
      vertex 42.7875 0 0
      vertex 50 0 5.2
      vertex 42.7875 0 5.2
    endloop
  endfacet
  facet normal 0 -1 -0
    outer loop
      vertex 50 0 5.2
      vertex 42.7875 0 0
      vertex 50 0 0
    endloop
  endfacet
  facet normal 0 1 -0
    outer loop
      vertex 7.21249 50 0
      vertex 4.76837e-07 50 5.2
      vertex 7.21249 50 5.2
    endloop
  endfacet
  facet normal 0 1 0
    outer loop
      vertex 4.76837e-07 50 5.2
      vertex 7.21249 50 0
      vertex 4.76837e-07 50 0
    endloop
  endfacet
endsolid OpenSCAD_Model
