solid OpenSCAD_Model
  facet normal -1 0 0
    outer loop
      vertex -1 -1 -1
      vertex -1 75 9
      vertex -1 75 -1
    endloop
  endfacet
  facet normal -1 -0 0
    outer loop
      vertex -1 75 9
      vertex -1 -1 -1
      vertex -1 -1 9
    endloop
  endfacet
  facet normal 0 0 1
    outer loop
      vertex -1 -1 9
      vertex 75 7.21249 9
      vertex 7.21249 75 9
    endloop
  endfacet
  facet normal 0 0 1
    outer loop
      vertex -1 -1 9
      vertex 7.21249 75 9
      vertex -1 75 9
    endloop
  endfacet
  facet normal 0 0 1
    outer loop
      vertex 75 7.21249 9
      vertex -1 -1 9
      vertex 75 -1 9
    endloop
  endfacet
  facet normal 1 -0 0
    outer loop
      vertex 75 -1 9
      vertex 75 7.21249 -1
      vertex 75 7.21249 9
    endloop
  endfacet
  facet normal 1 0 0
    outer loop
      vertex 75 7.21249 -1
      vertex 75 -1 9
      vertex 75 -1 -1
    endloop
  endfacet
  facet normal 0 1 -0
    outer loop
      vertex 7.21249 75 -1
      vertex -1 75 9
      vertex 7.21249 75 9
    endloop
  endfacet
  facet normal 0 1 0
    outer loop
      vertex -1 75 9
      vertex 7.21249 75 -1
      vertex -1 75 -1
    endloop
  endfacet
  facet normal 0 0 -1
    outer loop
      vertex -1 -1 -1
      vertex 75 7.21249 -1
      vertex 75 -1 -1
    endloop
  endfacet
  facet normal -0 0 -1
    outer loop
      vertex 75 7.21249 -1
      vertex -1 -1 -1
      vertex 7.21249 75 -1
    endloop
  endfacet
  facet normal -0 0 -1
    outer loop
      vertex 7.21249 75 -1
      vertex -1 -1 -1
      vertex -1 75 -1
    endloop
  endfacet
  facet normal 0 -1 0
    outer loop
      vertex -1 -1 -1
      vertex 75 -1 9
      vertex -1 -1 9
    endloop
  endfacet
  facet normal 0 -1 -0
    outer loop
      vertex 75 -1 9
      vertex -1 -1 -1
      vertex 75 -1 -1
    endloop
  endfacet
  facet normal 0.707107 0.707107 0
    outer loop
      vertex 75 7.21249 9
      vertex 7.21249 75 -1
      vertex 7.21249 75 9
    endloop
  endfacet
  facet normal 0.707107 0.707107 0
    outer loop
      vertex 7.21249 75 -1
      vertex 75 7.21249 9
      vertex 75 7.21249 -1
    endloop
  endfacet
endsolid OpenSCAD_Model
