solid OpenSCAD_Model
  facet normal 0 1 -0
    outer loop
      vertex 4.76837e-07 100 0
      vertex 0 100 5.2
      vertex 4.76837e-07 100 5.2
    endloop
  endfacet
  facet normal 0 1 0
    outer loop
      vertex 0 100 5.2
      vertex 4.76837e-07 100 0
      vertex 0 100 0
    endloop
  endfacet
  facet normal 0 0 1
    outer loop
      vertex 92.7875 0 5.2
      vertex 100 4.76837e-07 5.2
      vertex 100 7.21249 5.2
    endloop
  endfacet
  facet normal 0 0 1
    outer loop
      vertex 100 4.76837e-07 5.2
      vertex 92.7875 0 5.2
      vertex 100 0 5.2
    endloop
  endfacet
  facet normal 0 0 1
    outer loop
      vertex 7.21249 100 5.2
      vertex 92.7875 0 5.2
      vertex 100 7.21249 5.2
    endloop
  endfacet
  facet normal 0 0 1
    outer loop
      vertex 0 92.7875 5.2
      vertex 7.21249 100 5.2
      vertex 4.76837e-07 100 5.2
    endloop
  endfacet
  facet normal 0 0 1
    outer loop
      vertex 0 92.7875 5.2
      vertex 4.76837e-07 100 5.2
      vertex 0 100 5.2
    endloop
  endfacet
  facet normal 0 0 1
    outer loop
      vertex 7.21249 100 5.2
      vertex 0 92.7875 5.2
      vertex 92.7875 0 5.2
    endloop
  endfacet
  facet normal -0.707107 -0.707107 0
    outer loop
      vertex 92.7875 0 0
      vertex 0 92.7875 5.2
      vertex 0 92.7875 0
    endloop
  endfacet
  facet normal -0.707107 -0.707107 0
    outer loop
      vertex 0 92.7875 5.2
      vertex 92.7875 0 0
      vertex 92.7875 0 5.2
    endloop
  endfacet
  facet normal 0.707107 0.707107 0
    outer loop
      vertex 100 7.21249 5.2
      vertex 7.21249 100 0
      vertex 7.21249 100 5.2
    endloop
  endfacet
  facet normal 0.707107 0.707107 0
    outer loop
      vertex 7.21249 100 0
      vertex 100 7.21249 5.2
      vertex 100 7.21249 0
    endloop
  endfacet
  facet normal 0 0 -1
    outer loop
      vertex 92.7875 0 0
      vertex 100 4.76837e-07 0
      vertex 100 0 0
    endloop
  endfacet
  facet normal -0 0 -1
    outer loop
      vertex 100 4.76837e-07 0
      vertex 92.7875 0 0
      vertex 100 7.21249 0
    endloop
  endfacet
  facet normal 0 0 -1
    outer loop
      vertex 92.7875 0 0
      vertex 7.21249 100 0
      vertex 100 7.21249 0
    endloop
  endfacet
  facet normal 0 0 -1
    outer loop
      vertex 0 92.7875 0
      vertex 7.21249 100 0
      vertex 92.7875 0 0
    endloop
  endfacet
  facet normal -0 0 -1
    outer loop
      vertex 7.21249 100 0
      vertex 0 92.7875 0
      vertex 4.76837e-07 100 0
    endloop
  endfacet
  facet normal -0 0 -1
    outer loop
      vertex 4.76837e-07 100 0
      vertex 0 92.7875 0
      vertex 0 100 0
    endloop
  endfacet
  facet normal 1 -0 0
    outer loop
      vertex 100 0 5.2
      vertex 100 4.76837e-07 0
      vertex 100 4.76837e-07 5.2
    endloop
  endfacet
  facet normal 1 0 0
    outer loop
      vertex 100 4.76837e-07 0
      vertex 100 0 5.2
      vertex 100 0 0
    endloop
  endfacet
  facet normal -1 0 0
    outer loop
      vertex 0 92.7875 0
      vertex 0 100 5.2
      vertex 0 100 0
    endloop
  endfacet
  facet normal -1 -0 0
    outer loop
      vertex 0 100 5.2
      vertex 0 92.7875 0
      vertex 0 92.7875 5.2
    endloop
  endfacet
  facet normal 1 -0 0
    outer loop
      vertex 100 4.76837e-07 5.2
      vertex 100 7.21249 0
      vertex 100 7.21249 5.2
    endloop
  endfacet
  facet normal 1 0 0
    outer loop
      vertex 100 7.21249 0
      vertex 100 4.76837e-07 5.2
      vertex 100 4.76837e-07 0
    endloop
  endfacet
  facet normal 0 1 -0
    outer loop
      vertex 7.21249 100 0
      vertex 4.76837e-07 100 5.2
      vertex 7.21249 100 5.2
    endloop
  endfacet
  facet normal 0 1 0
    outer loop
      vertex 4.76837e-07 100 5.2
      vertex 7.21249 100 0
      vertex 4.76837e-07 100 0
    endloop
  endfacet
  facet normal 0 -1 0
    outer loop
      vertex 92.7875 0 0
      vertex 100 0 5.2
      vertex 92.7875 0 5.2
    endloop
  endfacet
  facet normal 0 -1 -0
    outer loop
      vertex 100 0 5.2
      vertex 92.7875 0 0
      vertex 100 0 0
    endloop
  endfacet
endsolid OpenSCAD_Model
