solid OpenSCAD_Model
  facet normal 0 1 -0
    outer loop
      vertex 4.76837e-07 75 0
      vertex 0 75 5.2
      vertex 4.76837e-07 75 5.2
    endloop
  endfacet
  facet normal 0 1 0
    outer loop
      vertex 0 75 5.2
      vertex 4.76837e-07 75 0
      vertex 0 75 0
    endloop
  endfacet
  facet normal 0 0 1
    outer loop
      vertex 67.7875 0 5.2
      vertex 75 4.76837e-07 5.2
      vertex 75 7.21249 5.2
    endloop
  endfacet
  facet normal 0 0 1
    outer loop
      vertex 75 4.76837e-07 5.2
      vertex 67.7875 0 5.2
      vertex 75 0 5.2
    endloop
  endfacet
  facet normal 0 0 1
    outer loop
      vertex 7.21249 75 5.2
      vertex 67.7875 0 5.2
      vertex 75 7.21249 5.2
    endloop
  endfacet
  facet normal 0 0 1
    outer loop
      vertex 0 67.7875 5.2
      vertex 7.21249 75 5.2
      vertex 4.76837e-07 75 5.2
    endloop
  endfacet
  facet normal 0 0 1
    outer loop
      vertex 0 67.7875 5.2
      vertex 4.76837e-07 75 5.2
      vertex 0 75 5.2
    endloop
  endfacet
  facet normal 0 0 1
    outer loop
      vertex 7.21249 75 5.2
      vertex 0 67.7875 5.2
      vertex 67.7875 0 5.2
    endloop
  endfacet
  facet normal 1 -0 0
    outer loop
      vertex 75 0 5.2
      vertex 75 4.76837e-07 0
      vertex 75 4.76837e-07 5.2
    endloop
  endfacet
  facet normal 1 0 0
    outer loop
      vertex 75 4.76837e-07 0
      vertex 75 0 5.2
      vertex 75 0 0
    endloop
  endfacet
  facet normal 0.707107 0.707107 0
    outer loop
      vertex 75 7.21249 5.2
      vertex 7.21249 75 0
      vertex 7.21249 75 5.2
    endloop
  endfacet
  facet normal 0.707107 0.707107 0
    outer loop
      vertex 7.21249 75 0
      vertex 75 7.21249 5.2
      vertex 75 7.21249 0
    endloop
  endfacet
  facet normal 0 0 -1
    outer loop
      vertex 67.7875 0 0
      vertex 75 4.76837e-07 0
      vertex 75 0 0
    endloop
  endfacet
  facet normal -0 0 -1
    outer loop
      vertex 75 4.76837e-07 0
      vertex 67.7875 0 0
      vertex 75 7.21249 0
    endloop
  endfacet
  facet normal 0 0 -1
    outer loop
      vertex 67.7875 0 0
      vertex 7.21249 75 0
      vertex 75 7.21249 0
    endloop
  endfacet
  facet normal 0 0 -1
    outer loop
      vertex 0 67.7875 0
      vertex 7.21249 75 0
      vertex 67.7875 0 0
    endloop
  endfacet
  facet normal -0 0 -1
    outer loop
      vertex 7.21249 75 0
      vertex 0 67.7875 0
      vertex 4.76837e-07 75 0
    endloop
  endfacet
  facet normal -0 0 -1
    outer loop
      vertex 4.76837e-07 75 0
      vertex 0 67.7875 0
      vertex 0 75 0
    endloop
  endfacet
  facet normal -0.707107 -0.707107 0
    outer loop
      vertex 67.7875 0 0
      vertex 0 67.7875 5.2
      vertex 0 67.7875 0
    endloop
  endfacet
  facet normal -0.707107 -0.707107 0
    outer loop
      vertex 0 67.7875 5.2
      vertex 67.7875 0 0
      vertex 67.7875 0 5.2
    endloop
  endfacet
  facet normal -1 0 0
    outer loop
      vertex 0 67.7875 0
      vertex 0 75 5.2
      vertex 0 75 0
    endloop
  endfacet
  facet normal -1 -0 0
    outer loop
      vertex 0 75 5.2
      vertex 0 67.7875 0
      vertex 0 67.7875 5.2
    endloop
  endfacet
  facet normal 1 -0 0
    outer loop
      vertex 75 4.76837e-07 5.2
      vertex 75 7.21249 0
      vertex 75 7.21249 5.2
    endloop
  endfacet
  facet normal 1 0 0
    outer loop
      vertex 75 7.21249 0
      vertex 75 4.76837e-07 5.2
      vertex 75 4.76837e-07 0
    endloop
  endfacet
  facet normal 0 1 -0
    outer loop
      vertex 7.21249 75 0
      vertex 4.76837e-07 75 5.2
      vertex 7.21249 75 5.2
    endloop
  endfacet
  facet normal 0 1 0
    outer loop
      vertex 4.76837e-07 75 5.2
      vertex 7.21249 75 0
      vertex 4.76837e-07 75 0
    endloop
  endfacet
  facet normal 0 -1 0
    outer loop
      vertex 67.7875 0 0
      vertex 75 0 5.2
      vertex 67.7875 0 5.2
    endloop
  endfacet
  facet normal 0 -1 -0
    outer loop
      vertex 75 0 5.2
      vertex 67.7875 0 0
      vertex 75 0 0
    endloop
  endfacet
endsolid OpenSCAD_Model
