solid OpenSCAD_Model
  facet normal -0 0 1
    outer loop
      vertex 0 1.51 38.8
      vertex 25 0 38.8
      vertex 25 1.51 38.8
    endloop
  endfacet
  facet normal 0 0 1
    outer loop
      vertex 25 0 38.8
      vertex 0 1.51 38.8
      vertex 0 0 38.8
    endloop
  endfacet
  facet normal 0 0 -1
    outer loop
      vertex 0 0 35.8
      vertex 25 1.51 35.8
      vertex 25 0 35.8
    endloop
  endfacet
  facet normal -0 0 -1
    outer loop
      vertex 25 1.51 35.8
      vertex 0 0 35.8
      vertex 0 1.51 35.8
    endloop
  endfacet
  facet normal 0 -1 0
    outer loop
      vertex 0 0 35.8
      vertex 25 0 38.8
      vertex 0 0 38.8
    endloop
  endfacet
  facet normal 0 -1 -0
    outer loop
      vertex 25 0 38.8
      vertex 0 0 35.8
      vertex 25 0 35.8
    endloop
  endfacet
  facet normal 1 -0 0
    outer loop
      vertex 25 0 38.8
      vertex 25 1.51 35.8
      vertex 25 1.51 38.8
    endloop
  endfacet
  facet normal 1 0 0
    outer loop
      vertex 25 1.51 35.8
      vertex 25 0 38.8
      vertex 25 0 35.8
    endloop
  endfacet
  facet normal 0 1 -0
    outer loop
      vertex 25 1.51 35.8
      vertex 0 1.51 38.8
      vertex 25 1.51 38.8
    endloop
  endfacet
  facet normal 0 1 0
    outer loop
      vertex 0 1.51 38.8
      vertex 25 1.51 35.8
      vertex 0 1.51 35.8
    endloop
  endfacet
  facet normal -1 0 0
    outer loop
      vertex 0 0 35.8
      vertex 0 1.51 38.8
      vertex 0 1.51 35.8
    endloop
  endfacet
  facet normal -1 -0 0
    outer loop
      vertex 0 1.51 38.8
      vertex 0 0 35.8
      vertex 0 0 38.8
    endloop
  endfacet
endsolid OpenSCAD_Model
