solid OpenSCAD_Model
  facet normal -0 0 1
    outer loop
      vertex 1.5 1.51 16.9333
      vertex 23.5 0 16.9333
      vertex 23.5 1.51 16.9333
    endloop
  endfacet
  facet normal 0 0 1
    outer loop
      vertex 23.5 0 16.9333
      vertex 1.5 1.51 16.9333
      vertex 1.5 0 16.9333
    endloop
  endfacet
  facet normal 0 0 -1
    outer loop
      vertex 1.5 0 13.9333
      vertex 23.5 1.51 13.9333
      vertex 23.5 0 13.9333
    endloop
  endfacet
  facet normal -0 0 -1
    outer loop
      vertex 23.5 1.51 13.9333
      vertex 1.5 0 13.9333
      vertex 1.5 1.51 13.9333
    endloop
  endfacet
  facet normal 0 -1 0
    outer loop
      vertex 1.5 0 13.9333
      vertex 23.5 0 16.9333
      vertex 1.5 0 16.9333
    endloop
  endfacet
  facet normal 0 -1 -0
    outer loop
      vertex 23.5 0 16.9333
      vertex 1.5 0 13.9333
      vertex 23.5 0 13.9333
    endloop
  endfacet
  facet normal 1 -0 0
    outer loop
      vertex 23.5 0 16.9333
      vertex 23.5 1.51 13.9333
      vertex 23.5 1.51 16.9333
    endloop
  endfacet
  facet normal 1 0 0
    outer loop
      vertex 23.5 1.51 13.9333
      vertex 23.5 0 16.9333
      vertex 23.5 0 13.9333
    endloop
  endfacet
  facet normal 0 1 -0
    outer loop
      vertex 23.5 1.51 13.9333
      vertex 1.5 1.51 16.9333
      vertex 23.5 1.51 16.9333
    endloop
  endfacet
  facet normal 0 1 0
    outer loop
      vertex 1.5 1.51 16.9333
      vertex 23.5 1.51 13.9333
      vertex 1.5 1.51 13.9333
    endloop
  endfacet
  facet normal -1 0 0
    outer loop
      vertex 1.5 0 13.9333
      vertex 1.5 1.51 16.9333
      vertex 1.5 1.51 13.9333
    endloop
  endfacet
  facet normal -1 -0 0
    outer loop
      vertex 1.5 1.51 16.9333
      vertex 1.5 0 13.9333
      vertex 1.5 0 16.9333
    endloop
  endfacet
endsolid OpenSCAD_Model
