solid OpenSCAD_Model
  facet normal -0 0 1
    outer loop
      vertex 23.5 1.51 35.8
      vertex 26.5 0 35.8
      vertex 26.5 1.51 35.8
    endloop
  endfacet
  facet normal 0 0 1
    outer loop
      vertex 26.5 0 35.8
      vertex 23.5 1.51 35.8
      vertex 23.5 0 35.8
    endloop
  endfacet
  facet normal 0 0 -1
    outer loop
      vertex 23.5 0 3
      vertex 26.5 1.51 3
      vertex 26.5 0 3
    endloop
  endfacet
  facet normal -0 0 -1
    outer loop
      vertex 26.5 1.51 3
      vertex 23.5 0 3
      vertex 23.5 1.51 3
    endloop
  endfacet
  facet normal 0 -1 0
    outer loop
      vertex 23.5 0 3
      vertex 26.5 0 35.8
      vertex 23.5 0 35.8
    endloop
  endfacet
  facet normal 0 -1 -0
    outer loop
      vertex 26.5 0 35.8
      vertex 23.5 0 3
      vertex 26.5 0 3
    endloop
  endfacet
  facet normal 1 -0 0
    outer loop
      vertex 26.5 0 35.8
      vertex 26.5 1.51 3
      vertex 26.5 1.51 35.8
    endloop
  endfacet
  facet normal 1 0 0
    outer loop
      vertex 26.5 1.51 3
      vertex 26.5 0 35.8
      vertex 26.5 0 3
    endloop
  endfacet
  facet normal 0 1 -0
    outer loop
      vertex 26.5 1.51 3
      vertex 23.5 1.51 35.8
      vertex 26.5 1.51 35.8
    endloop
  endfacet
  facet normal 0 1 0
    outer loop
      vertex 23.5 1.51 35.8
      vertex 26.5 1.51 3
      vertex 23.5 1.51 3
    endloop
  endfacet
  facet normal -1 0 0
    outer loop
      vertex 23.5 0 3
      vertex 23.5 1.51 35.8
      vertex 23.5 1.51 3
    endloop
  endfacet
  facet normal -1 -0 0
    outer loop
      vertex 23.5 1.51 35.8
      vertex 23.5 0 3
      vertex 23.5 0 35.8
    endloop
  endfacet
endsolid OpenSCAD_Model
