solid OpenSCAD_Model
  facet normal 0.838671 0 -0.544639
    outer loop
      vertex 23.5 0 33.6786
      vertex 3.57709 1.51 3
      vertex 23.5 1.51 33.6786
    endloop
  endfacet
  facet normal 0.838671 0 -0.544639
    outer loop
      vertex 3.57709 1.51 3
      vertex 23.5 0 33.6786
      vertex 3.57709 0 3
    endloop
  endfacet
  facet normal -0.838671 0 0.544639
    outer loop
      vertex 1.5 0 5.3098
      vertex 21.3006 1.51 35.8
      vertex 1.5 1.51 5.3098
    endloop
  endfacet
  facet normal -0.838671 0 0.544639
    outer loop
      vertex 21.3006 1.51 35.8
      vertex 1.5 0 5.3098
      vertex 21.3006 0 35.8
    endloop
  endfacet
  facet normal 0 1 -0
    outer loop
      vertex 23.5 1.51 33.6786
      vertex 21.3006 1.51 35.8
      vertex 23.5 1.51 35.8
    endloop
  endfacet
  facet normal 0 1 0
    outer loop
      vertex 23.5 1.51 33.6786
      vertex 1.5 1.51 5.3098
      vertex 21.3006 1.51 35.8
    endloop
  endfacet
  facet normal 0 1 -0
    outer loop
      vertex 3.57709 1.51 3
      vertex 1.5 1.51 5.3098
      vertex 23.5 1.51 33.6786
    endloop
  endfacet
  facet normal 0 1 0
    outer loop
      vertex 1.5 1.51 5.3098
      vertex 3.57709 1.51 3
      vertex 1.5 1.51 3
    endloop
  endfacet
  facet normal 0 -1 0
    outer loop
      vertex 21.3006 0 35.8
      vertex 23.5 0 33.6786
      vertex 23.5 0 35.8
    endloop
  endfacet
  facet normal 0 -1 0
    outer loop
      vertex 1.5 0 5.3098
      vertex 23.5 0 33.6786
      vertex 21.3006 0 35.8
    endloop
  endfacet
  facet normal 0 -1 0
    outer loop
      vertex 3.57709 0 3
      vertex 1.5 0 5.3098
      vertex 1.5 0 3
    endloop
  endfacet
  facet normal 0 -1 0
    outer loop
      vertex 1.5 0 5.3098
      vertex 3.57709 0 3
      vertex 23.5 0 33.6786
    endloop
  endfacet
  facet normal 0 0 -1
    outer loop
      vertex 1.5 0 3
      vertex 3.57709 1.51 3
      vertex 3.57709 0 3
    endloop
  endfacet
  facet normal -0 0 -1
    outer loop
      vertex 3.57709 1.51 3
      vertex 1.5 0 3
      vertex 1.5 1.51 3
    endloop
  endfacet
  facet normal -0 0 1
    outer loop
      vertex 21.3006 1.51 35.8
      vertex 23.5 0 35.8
      vertex 23.5 1.51 35.8
    endloop
  endfacet
  facet normal 0 0 1
    outer loop
      vertex 23.5 0 35.8
      vertex 21.3006 1.51 35.8
      vertex 21.3006 0 35.8
    endloop
  endfacet
  facet normal -1 0 0
    outer loop
      vertex 1.5 0 3
      vertex 1.5 1.51 5.3098
      vertex 1.5 1.51 3
    endloop
  endfacet
  facet normal -1 -0 0
    outer loop
      vertex 1.5 1.51 5.3098
      vertex 1.5 0 3
      vertex 1.5 0 5.3098
    endloop
  endfacet
  facet normal 1 -0 0
    outer loop
      vertex 23.5 0 35.8
      vertex 23.5 1.51 33.6786
      vertex 23.5 1.51 35.8
    endloop
  endfacet
  facet normal 1 0 0
    outer loop
      vertex 23.5 1.51 33.6786
      vertex 23.5 0 35.8
      vertex 23.5 0 33.6786
    endloop
  endfacet
endsolid OpenSCAD_Model
