solid OpenSCAD_Model
  facet normal -0 0 1
    outer loop
      vertex 0 1.51 3
      vertex 25 0 3
      vertex 25 1.51 3
    endloop
  endfacet
  facet normal 0 0 1
    outer loop
      vertex 25 0 3
      vertex 0 1.51 3
      vertex 0 0 3
    endloop
  endfacet
  facet normal 0 0 -1
    outer loop
      vertex 0 0 0
      vertex 25 1.51 0
      vertex 25 0 0
    endloop
  endfacet
  facet normal -0 0 -1
    outer loop
      vertex 25 1.51 0
      vertex 0 0 0
      vertex 0 1.51 0
    endloop
  endfacet
  facet normal 0 -1 0
    outer loop
      vertex 0 0 0
      vertex 25 0 3
      vertex 0 0 3
    endloop
  endfacet
  facet normal 0 -1 -0
    outer loop
      vertex 25 0 3
      vertex 0 0 0
      vertex 25 0 0
    endloop
  endfacet
  facet normal 1 -0 0
    outer loop
      vertex 25 0 3
      vertex 25 1.51 0
      vertex 25 1.51 3
    endloop
  endfacet
  facet normal 1 0 0
    outer loop
      vertex 25 1.51 0
      vertex 25 0 3
      vertex 25 0 0
    endloop
  endfacet
  facet normal 0 1 -0
    outer loop
      vertex 25 1.51 0
      vertex 0 1.51 3
      vertex 25 1.51 3
    endloop
  endfacet
  facet normal 0 1 0
    outer loop
      vertex 0 1.51 3
      vertex 25 1.51 0
      vertex 0 1.51 0
    endloop
  endfacet
  facet normal -1 0 0
    outer loop
      vertex 0 0 0
      vertex 0 1.51 3
      vertex 0 1.51 0
    endloop
  endfacet
  facet normal -1 -0 0
    outer loop
      vertex 0 1.51 3
      vertex 0 0 0
      vertex 0 0 3
    endloop
  endfacet
endsolid OpenSCAD_Model
