solid OpenSCAD_Model
  facet normal -0 0 1
    outer loop
      vertex 0 8.7 38.8
      vertex 25 1.5 38.8
      vertex 25 8.7 38.8
    endloop
  endfacet
  facet normal 0 0 1
    outer loop
      vertex 25 1.5 38.8
      vertex 0 8.7 38.8
      vertex 0 1.5 38.8
    endloop
  endfacet
  facet normal 0 0 -1
    outer loop
      vertex 0 1.5 0
      vertex 25 8.7 0
      vertex 25 1.5 0
    endloop
  endfacet
  facet normal -0 0 -1
    outer loop
      vertex 25 8.7 0
      vertex 0 1.5 0
      vertex 0 8.7 0
    endloop
  endfacet
  facet normal 0 -1 0
    outer loop
      vertex 0 1.5 0
      vertex 25 1.5 38.8
      vertex 0 1.5 38.8
    endloop
  endfacet
  facet normal 0 -1 -0
    outer loop
      vertex 25 1.5 38.8
      vertex 0 1.5 0
      vertex 25 1.5 0
    endloop
  endfacet
  facet normal 1 -0 0
    outer loop
      vertex 25 1.5 38.8
      vertex 25 8.7 0
      vertex 25 8.7 38.8
    endloop
  endfacet
  facet normal 1 0 0
    outer loop
      vertex 25 8.7 0
      vertex 25 1.5 38.8
      vertex 25 1.5 0
    endloop
  endfacet
  facet normal 0 1 -0
    outer loop
      vertex 25 8.7 0
      vertex 0 8.7 38.8
      vertex 25 8.7 38.8
    endloop
  endfacet
  facet normal 0 1 0
    outer loop
      vertex 0 8.7 38.8
      vertex 25 8.7 0
      vertex 0 8.7 0
    endloop
  endfacet
  facet normal -1 0 0
    outer loop
      vertex 0 1.5 0
      vertex 0 8.7 38.8
      vertex 0 8.7 0
    endloop
  endfacet
  facet normal -1 -0 0
    outer loop
      vertex 0 8.7 38.8
      vertex 0 1.5 0
      vertex 0 1.5 38.8
    endloop
  endfacet
endsolid OpenSCAD_Model
