solid OpenSCAD_Model
  facet normal -0 0 1
    outer loop
      vertex 72.2107 12.5 22.1333
      vertex 104.566 10.688 22.1333
      vertex 104.566 12.5 22.1333
    endloop
  endfacet
  facet normal 0 0 1
    outer loop
      vertex 104.566 10.688 22.1333
      vertex 72.2107 12.5 22.1333
      vertex 72.2107 10.688 22.1333
    endloop
  endfacet
  facet normal 0 1 -0
    outer loop
      vertex 104.566 12.5 19.1333
      vertex 72.2107 12.5 22.1333
      vertex 104.566 12.5 22.1333
    endloop
  endfacet
  facet normal 0 1 0
    outer loop
      vertex 72.2107 12.5 22.1333
      vertex 104.566 12.5 19.1333
      vertex 72.2107 12.5 19.1333
    endloop
  endfacet
  facet normal 0 0 -1
    outer loop
      vertex 72.2107 10.688 19.1333
      vertex 104.566 12.5 19.1333
      vertex 104.566 10.688 19.1333
    endloop
  endfacet
  facet normal -0 0 -1
    outer loop
      vertex 104.566 12.5 19.1333
      vertex 72.2107 10.688 19.1333
      vertex 72.2107 12.5 19.1333
    endloop
  endfacet
  facet normal 0 -1 0
    outer loop
      vertex 72.2107 10.688 19.1333
      vertex 104.566 10.688 22.1333
      vertex 72.2107 10.688 22.1333
    endloop
  endfacet
  facet normal 0 -1 -0
    outer loop
      vertex 104.566 10.688 22.1333
      vertex 72.2107 10.688 19.1333
      vertex 104.566 10.688 19.1333
    endloop
  endfacet
  facet normal -1 0 0
    outer loop
      vertex 72.2107 10.688 19.1333
      vertex 72.2107 12.5 22.1333
      vertex 72.2107 12.5 19.1333
    endloop
  endfacet
  facet normal -1 -0 0
    outer loop
      vertex 72.2107 12.5 22.1333
      vertex 72.2107 10.688 19.1333
      vertex 72.2107 10.688 22.1333
    endloop
  endfacet
  facet normal 1 -0 0
    outer loop
      vertex 104.566 10.688 22.1333
      vertex 104.566 12.5 19.1333
      vertex 104.566 12.5 22.1333
    endloop
  endfacet
  facet normal 1 0 0
    outer loop
      vertex 104.566 12.5 19.1333
      vertex 104.566 10.688 22.1333
      vertex 104.566 10.688 19.1333
    endloop
  endfacet
endsolid OpenSCAD_Model
