solid OpenSCAD_Model
  facet normal -1 0 0
    outer loop
      vertex 103.066 0 8.2
      vertex 103.066 1.812 41
      vertex 103.066 1.812 8.2
    endloop
  endfacet
  facet normal -1 -0 0
    outer loop
      vertex 103.066 1.812 41
      vertex 103.066 0 8.2
      vertex 103.066 0 41
    endloop
  endfacet
  facet normal 0 0 1
    outer loop
      vertex 103.066 0 41
      vertex 104.254 1.812 41
      vertex 103.066 1.812 41
    endloop
  endfacet
  facet normal 0 0 1
    outer loop
      vertex 104.254 1.812 41
      vertex 103.066 0 41
      vertex 106.066 0 41
    endloop
  endfacet
  facet normal 0 1 -0
    outer loop
      vertex 104.254 1.812 8.2
      vertex 103.066 1.812 41
      vertex 104.254 1.812 41
    endloop
  endfacet
  facet normal 0 1 0
    outer loop
      vertex 103.066 1.812 41
      vertex 104.254 1.812 8.2
      vertex 103.066 1.812 8.2
    endloop
  endfacet
  facet normal 0 0 -1
    outer loop
      vertex 103.066 0 8.2
      vertex 104.254 1.812 8.2
      vertex 106.066 0 8.2
    endloop
  endfacet
  facet normal -0 0 -1
    outer loop
      vertex 104.254 1.812 8.2
      vertex 103.066 0 8.2
      vertex 103.066 1.812 8.2
    endloop
  endfacet
  facet normal 0 -1 0
    outer loop
      vertex 103.066 0 8.2
      vertex 106.066 0 41
      vertex 103.066 0 41
    endloop
  endfacet
  facet normal 0 -1 -0
    outer loop
      vertex 106.066 0 41
      vertex 103.066 0 8.2
      vertex 106.066 0 8.2
    endloop
  endfacet
  facet normal 0.707107 0.707106 0
    outer loop
      vertex 106.066 0 41
      vertex 104.254 1.812 8.2
      vertex 104.254 1.812 41
    endloop
  endfacet
  facet normal 0.707107 0.707106 0
    outer loop
      vertex 104.254 1.812 8.2
      vertex 106.066 0 41
      vertex 106.066 0 8.2
    endloop
  endfacet
endsolid OpenSCAD_Model
