solid OpenSCAD_Model
  facet normal -1 0 0
    outer loop
      vertex 127.421 10.688 0
      vertex 127.421 12.5 41
      vertex 127.421 12.5 0
    endloop
  endfacet
  facet normal -1 -0 0
    outer loop
      vertex 127.421 12.5 41
      vertex 127.421 10.688 0
      vertex 127.421 10.688 41
    endloop
  endfacet
  facet normal 0 0 1
    outer loop
      vertex 127.421 10.688 41
      vertex 130.421 11 41
      vertex 128.921 12.5 41
    endloop
  endfacet
  facet normal 0 0 1
    outer loop
      vertex 127.421 10.688 41
      vertex 128.921 12.5 41
      vertex 127.421 12.5 41
    endloop
  endfacet
  facet normal 0 0 1
    outer loop
      vertex 130.421 11 41
      vertex 127.421 10.688 41
      vertex 130.421 10.688 41
    endloop
  endfacet
  facet normal 1 -0 0
    outer loop
      vertex 130.421 10.688 41
      vertex 130.421 11 0
      vertex 130.421 11 41
    endloop
  endfacet
  facet normal 1 0 0
    outer loop
      vertex 130.421 11 0
      vertex 130.421 10.688 41
      vertex 130.421 10.688 0
    endloop
  endfacet
  facet normal 0 0 -1
    outer loop
      vertex 127.421 10.688 0
      vertex 130.421 11 0
      vertex 130.421 10.688 0
    endloop
  endfacet
  facet normal -0 0 -1
    outer loop
      vertex 130.421 11 0
      vertex 127.421 10.688 0
      vertex 128.921 12.5 0
    endloop
  endfacet
  facet normal -0 0 -1
    outer loop
      vertex 128.921 12.5 0
      vertex 127.421 10.688 0
      vertex 127.421 12.5 0
    endloop
  endfacet
  facet normal 0 -1 0
    outer loop
      vertex 127.421 10.688 0
      vertex 130.421 10.688 41
      vertex 127.421 10.688 41
    endloop
  endfacet
  facet normal 0 -1 -0
    outer loop
      vertex 130.421 10.688 41
      vertex 127.421 10.688 0
      vertex 130.421 10.688 0
    endloop
  endfacet
  facet normal 0 1 -0
    outer loop
      vertex 128.921 12.5 0
      vertex 127.421 12.5 41
      vertex 128.921 12.5 41
    endloop
  endfacet
  facet normal 0 1 0
    outer loop
      vertex 127.421 12.5 41
      vertex 128.921 12.5 0
      vertex 127.421 12.5 0
    endloop
  endfacet
  facet normal 0.707107 0.707107 0
    outer loop
      vertex 130.421 11 41
      vertex 128.921 12.5 0
      vertex 128.921 12.5 41
    endloop
  endfacet
  facet normal 0.707107 0.707107 0
    outer loop
      vertex 128.921 12.5 0
      vertex 130.421 11 41
      vertex 130.421 11 0
    endloop
  endfacet
endsolid OpenSCAD_Model
