solid OpenSCAD_Model
  facet normal -0 0 1
    outer loop
      vertex 35.3553 1.812 44
      vertex 70.7107 0 44
      vertex 70.7107 1.812 44
    endloop
  endfacet
  facet normal 0 0 1
    outer loop
      vertex 70.7107 0 44
      vertex 35.3553 1.812 44
      vertex 35.3553 0 44
    endloop
  endfacet
  facet normal 0 1 -0
    outer loop
      vertex 70.7107 1.812 41
      vertex 35.3553 1.812 44
      vertex 70.7107 1.812 44
    endloop
  endfacet
  facet normal 0 1 0
    outer loop
      vertex 35.3553 1.812 44
      vertex 70.7107 1.812 41
      vertex 35.3553 1.812 41
    endloop
  endfacet
  facet normal 0 0 -1
    outer loop
      vertex 35.3553 0 41
      vertex 70.7107 1.812 41
      vertex 70.7107 0 41
    endloop
  endfacet
  facet normal -0 0 -1
    outer loop
      vertex 70.7107 1.812 41
      vertex 35.3553 0 41
      vertex 35.3553 1.812 41
    endloop
  endfacet
  facet normal 0 -1 0
    outer loop
      vertex 35.3553 0 41
      vertex 70.7107 0 44
      vertex 35.3553 0 44
    endloop
  endfacet
  facet normal 0 -1 -0
    outer loop
      vertex 70.7107 0 44
      vertex 35.3553 0 41
      vertex 70.7107 0 41
    endloop
  endfacet
  facet normal -1 0 0
    outer loop
      vertex 35.3553 0 41
      vertex 35.3553 1.812 44
      vertex 35.3553 1.812 41
    endloop
  endfacet
  facet normal -1 -0 0
    outer loop
      vertex 35.3553 1.812 44
      vertex 35.3553 0 41
      vertex 35.3553 0 44
    endloop
  endfacet
  facet normal 1 -0 0
    outer loop
      vertex 70.7107 0 44
      vertex 70.7107 1.812 41
      vertex 70.7107 1.812 44
    endloop
  endfacet
  facet normal 1 0 0
    outer loop
      vertex 70.7107 1.812 41
      vertex 70.7107 0 44
      vertex 70.7107 0 41
    endloop
  endfacet
endsolid OpenSCAD_Model
