solid OpenSCAD_Model
  facet normal -0 0 1
    outer loop
      vertex 72.2107 1.812 22.1333
      vertex 104.566 0 22.1333
      vertex 104.566 1.812 22.1333
    endloop
  endfacet
  facet normal 0 0 1
    outer loop
      vertex 104.566 0 22.1333
      vertex 72.2107 1.812 22.1333
      vertex 72.2107 0 22.1333
    endloop
  endfacet
  facet normal 0 1 -0
    outer loop
      vertex 104.566 1.812 19.1333
      vertex 72.2107 1.812 22.1333
      vertex 104.566 1.812 22.1333
    endloop
  endfacet
  facet normal 0 1 0
    outer loop
      vertex 72.2107 1.812 22.1333
      vertex 104.566 1.812 19.1333
      vertex 72.2107 1.812 19.1333
    endloop
  endfacet
  facet normal 0 0 -1
    outer loop
      vertex 72.2107 0 19.1333
      vertex 104.566 1.812 19.1333
      vertex 104.566 0 19.1333
    endloop
  endfacet
  facet normal -0 0 -1
    outer loop
      vertex 104.566 1.812 19.1333
      vertex 72.2107 0 19.1333
      vertex 72.2107 1.812 19.1333
    endloop
  endfacet
  facet normal 0 -1 0
    outer loop
      vertex 72.2107 0 19.1333
      vertex 104.566 0 22.1333
      vertex 72.2107 0 22.1333
    endloop
  endfacet
  facet normal 0 -1 -0
    outer loop
      vertex 104.566 0 22.1333
      vertex 72.2107 0 19.1333
      vertex 104.566 0 19.1333
    endloop
  endfacet
  facet normal -1 0 0
    outer loop
      vertex 72.2107 0 19.1333
      vertex 72.2107 1.812 22.1333
      vertex 72.2107 1.812 19.1333
    endloop
  endfacet
  facet normal -1 -0 0
    outer loop
      vertex 72.2107 1.812 22.1333
      vertex 72.2107 0 19.1333
      vertex 72.2107 0 22.1333
    endloop
  endfacet
  facet normal 1 -0 0
    outer loop
      vertex 104.566 0 22.1333
      vertex 104.566 1.812 19.1333
      vertex 104.566 1.812 22.1333
    endloop
  endfacet
  facet normal 1 0 0
    outer loop
      vertex 104.566 1.812 19.1333
      vertex 104.566 0 22.1333
      vertex 104.566 0 19.1333
    endloop
  endfacet
endsolid OpenSCAD_Model
