solid OpenSCAD_Model
  facet normal -1 0 0
    outer loop
      vertex 92.066 10.688 0
      vertex 92.066 12.5 41
      vertex 92.066 12.5 0
    endloop
  endfacet
  facet normal -1 -0 0
    outer loop
      vertex 92.066 12.5 41
      vertex 92.066 10.688 0
      vertex 92.066 10.688 41
    endloop
  endfacet
  facet normal 0 0 1
    outer loop
      vertex 92.066 10.688 41
      vertex 95.066 11 41
      vertex 93.566 12.5 41
    endloop
  endfacet
  facet normal 0 0 1
    outer loop
      vertex 92.066 10.688 41
      vertex 93.566 12.5 41
      vertex 92.066 12.5 41
    endloop
  endfacet
  facet normal 0 0 1
    outer loop
      vertex 95.066 11 41
      vertex 92.066 10.688 41
      vertex 95.066 10.688 41
    endloop
  endfacet
  facet normal 1 -0 0
    outer loop
      vertex 95.066 10.688 41
      vertex 95.066 11 0
      vertex 95.066 11 41
    endloop
  endfacet
  facet normal 1 0 0
    outer loop
      vertex 95.066 11 0
      vertex 95.066 10.688 41
      vertex 95.066 10.688 0
    endloop
  endfacet
  facet normal 0 1 -0
    outer loop
      vertex 93.566 12.5 0
      vertex 92.066 12.5 41
      vertex 93.566 12.5 41
    endloop
  endfacet
  facet normal 0 1 0
    outer loop
      vertex 92.066 12.5 41
      vertex 93.566 12.5 0
      vertex 92.066 12.5 0
    endloop
  endfacet
  facet normal 0 0 -1
    outer loop
      vertex 92.066 10.688 0
      vertex 95.066 11 0
      vertex 95.066 10.688 0
    endloop
  endfacet
  facet normal -0 0 -1
    outer loop
      vertex 95.066 11 0
      vertex 92.066 10.688 0
      vertex 93.566 12.5 0
    endloop
  endfacet
  facet normal -0 0 -1
    outer loop
      vertex 93.566 12.5 0
      vertex 92.066 10.688 0
      vertex 92.066 12.5 0
    endloop
  endfacet
  facet normal 0 -1 0
    outer loop
      vertex 92.066 10.688 0
      vertex 95.066 10.688 41
      vertex 92.066 10.688 41
    endloop
  endfacet
  facet normal 0 -1 -0
    outer loop
      vertex 95.066 10.688 41
      vertex 92.066 10.688 0
      vertex 95.066 10.688 0
    endloop
  endfacet
  facet normal 0.707107 0.707107 0
    outer loop
      vertex 95.066 11 41
      vertex 93.566 12.5 0
      vertex 93.566 12.5 41
    endloop
  endfacet
  facet normal 0.707107 0.707107 0
    outer loop
      vertex 93.566 12.5 0
      vertex 95.066 11 41
      vertex 95.066 11 0
    endloop
  endfacet
endsolid OpenSCAD_Model
