solid OpenSCAD_Model
  facet normal -1 0 0
    outer loop
      vertex 3 10.688 19.1333
      vertex 3 12.5 22.1333
      vertex 3 12.5 19.1333
    endloop
  endfacet
  facet normal -1 -0 0
    outer loop
      vertex 3 12.5 22.1333
      vertex 3 10.688 19.1333
      vertex 3 10.688 22.1333
    endloop
  endfacet
  facet normal -0 0 1
    outer loop
      vertex 3 12.5 22.1333
      vertex 33.8553 10.688 22.1333
      vertex 33.8553 12.5 22.1333
    endloop
  endfacet
  facet normal 0 0 1
    outer loop
      vertex 33.8553 10.688 22.1333
      vertex 3 12.5 22.1333
      vertex 3 10.688 22.1333
    endloop
  endfacet
  facet normal 0 1 -0
    outer loop
      vertex 33.8553 12.5 19.1333
      vertex 3 12.5 22.1333
      vertex 33.8553 12.5 22.1333
    endloop
  endfacet
  facet normal 0 1 0
    outer loop
      vertex 3 12.5 22.1333
      vertex 33.8553 12.5 19.1333
      vertex 3 12.5 19.1333
    endloop
  endfacet
  facet normal 0 0 -1
    outer loop
      vertex 3 10.688 19.1333
      vertex 33.8553 12.5 19.1333
      vertex 33.8553 10.688 19.1333
    endloop
  endfacet
  facet normal -0 0 -1
    outer loop
      vertex 33.8553 12.5 19.1333
      vertex 3 10.688 19.1333
      vertex 3 12.5 19.1333
    endloop
  endfacet
  facet normal 0 -1 0
    outer loop
      vertex 3 10.688 19.1333
      vertex 33.8553 10.688 22.1333
      vertex 3 10.688 22.1333
    endloop
  endfacet
  facet normal 0 -1 -0
    outer loop
      vertex 33.8553 10.688 22.1333
      vertex 3 10.688 19.1333
      vertex 33.8553 10.688 19.1333
    endloop
  endfacet
  facet normal 1 -0 0
    outer loop
      vertex 33.8553 10.688 22.1333
      vertex 33.8553 12.5 19.1333
      vertex 33.8553 12.5 22.1333
    endloop
  endfacet
  facet normal 1 0 0
    outer loop
      vertex 33.8553 12.5 19.1333
      vertex 33.8553 10.688 22.1333
      vertex 33.8553 10.688 19.1333
    endloop
  endfacet
endsolid OpenSCAD_Model
