solid OpenSCAD_Model
  facet normal -0 0 1
    outer loop
      vertex 33.8553 1.812 41
      vertex 36.8553 0 41
      vertex 36.8553 1.812 41
    endloop
  endfacet
  facet normal 0 0 1
    outer loop
      vertex 36.8553 0 41
      vertex 33.8553 1.812 41
      vertex 33.8553 0 41
    endloop
  endfacet
  facet normal 0 0 -1
    outer loop
      vertex 33.8553 0 8.2
      vertex 36.8553 1.812 8.2
      vertex 36.8553 0 8.2
    endloop
  endfacet
  facet normal -0 0 -1
    outer loop
      vertex 36.8553 1.812 8.2
      vertex 33.8553 0 8.2
      vertex 33.8553 1.812 8.2
    endloop
  endfacet
  facet normal 0 -1 0
    outer loop
      vertex 33.8553 0 8.2
      vertex 36.8553 0 41
      vertex 33.8553 0 41
    endloop
  endfacet
  facet normal 0 -1 -0
    outer loop
      vertex 36.8553 0 41
      vertex 33.8553 0 8.2
      vertex 36.8553 0 8.2
    endloop
  endfacet
  facet normal 1 -0 0
    outer loop
      vertex 36.8553 0 41
      vertex 36.8553 1.812 8.2
      vertex 36.8553 1.812 41
    endloop
  endfacet
  facet normal 1 0 0
    outer loop
      vertex 36.8553 1.812 8.2
      vertex 36.8553 0 41
      vertex 36.8553 0 8.2
    endloop
  endfacet
  facet normal 0 1 -0
    outer loop
      vertex 36.8553 1.812 8.2
      vertex 33.8553 1.812 41
      vertex 36.8553 1.812 41
    endloop
  endfacet
  facet normal 0 1 0
    outer loop
      vertex 33.8553 1.812 41
      vertex 36.8553 1.812 8.2
      vertex 33.8553 1.812 8.2
    endloop
  endfacet
  facet normal -1 0 0
    outer loop
      vertex 33.8553 0 8.2
      vertex 33.8553 1.812 41
      vertex 33.8553 1.812 8.2
    endloop
  endfacet
  facet normal -1 -0 0
    outer loop
      vertex 33.8553 1.812 41
      vertex 33.8553 0 8.2
      vertex 33.8553 0 41
    endloop
  endfacet
endsolid OpenSCAD_Model
