solid OpenSCAD_Model
  facet normal -0 0 1
    outer loop
      vertex 33.8553 12.5 41
      vertex 36.8553 10.688 41
      vertex 36.8553 12.5 41
    endloop
  endfacet
  facet normal 0 0 1
    outer loop
      vertex 36.8553 10.688 41
      vertex 33.8553 12.5 41
      vertex 33.8553 10.688 41
    endloop
  endfacet
  facet normal 0 0 -1
    outer loop
      vertex 33.8553 10.688 0
      vertex 36.8553 12.5 0
      vertex 36.8553 10.688 0
    endloop
  endfacet
  facet normal -0 0 -1
    outer loop
      vertex 36.8553 12.5 0
      vertex 33.8553 10.688 0
      vertex 33.8553 12.5 0
    endloop
  endfacet
  facet normal 0 -1 0
    outer loop
      vertex 33.8553 10.688 0
      vertex 36.8553 10.688 41
      vertex 33.8553 10.688 41
    endloop
  endfacet
  facet normal 0 -1 -0
    outer loop
      vertex 36.8553 10.688 41
      vertex 33.8553 10.688 0
      vertex 36.8553 10.688 0
    endloop
  endfacet
  facet normal 1 -0 0
    outer loop
      vertex 36.8553 10.688 41
      vertex 36.8553 12.5 0
      vertex 36.8553 12.5 41
    endloop
  endfacet
  facet normal 1 0 0
    outer loop
      vertex 36.8553 12.5 0
      vertex 36.8553 10.688 41
      vertex 36.8553 10.688 0
    endloop
  endfacet
  facet normal 0 1 -0
    outer loop
      vertex 36.8553 12.5 0
      vertex 33.8553 12.5 41
      vertex 36.8553 12.5 41
    endloop
  endfacet
  facet normal 0 1 0
    outer loop
      vertex 33.8553 12.5 41
      vertex 36.8553 12.5 0
      vertex 33.8553 12.5 0
    endloop
  endfacet
  facet normal -1 0 0
    outer loop
      vertex 33.8553 10.688 0
      vertex 33.8553 12.5 41
      vertex 33.8553 12.5 0
    endloop
  endfacet
  facet normal -1 -0 0
    outer loop
      vertex 33.8553 12.5 41
      vertex 33.8553 10.688 0
      vertex 33.8553 10.688 41
    endloop
  endfacet
endsolid OpenSCAD_Model
