solid OpenSCAD_Model
  facet normal -1 0 0
    outer loop
      vertex 21.3553 10.688 0
      vertex 21.3553 12.5 41
      vertex 21.3553 12.5 0
    endloop
  endfacet
  facet normal -1 -0 0
    outer loop
      vertex 21.3553 12.5 41
      vertex 21.3553 10.688 0
      vertex 21.3553 10.688 41
    endloop
  endfacet
  facet normal 0 0 1
    outer loop
      vertex 21.3553 10.688 41
      vertex 24.3553 11 41
      vertex 22.8553 12.5 41
    endloop
  endfacet
  facet normal 0 0 1
    outer loop
      vertex 21.3553 10.688 41
      vertex 22.8553 12.5 41
      vertex 21.3553 12.5 41
    endloop
  endfacet
  facet normal 0 0 1
    outer loop
      vertex 24.3553 11 41
      vertex 21.3553 10.688 41
      vertex 24.3553 10.688 41
    endloop
  endfacet
  facet normal 1 -0 0
    outer loop
      vertex 24.3553 10.688 41
      vertex 24.3553 11 0
      vertex 24.3553 11 41
    endloop
  endfacet
  facet normal 1 0 0
    outer loop
      vertex 24.3553 11 0
      vertex 24.3553 10.688 41
      vertex 24.3553 10.688 0
    endloop
  endfacet
  facet normal 0 0 -1
    outer loop
      vertex 21.3553 10.688 0
      vertex 24.3553 11 0
      vertex 24.3553 10.688 0
    endloop
  endfacet
  facet normal -0 0 -1
    outer loop
      vertex 24.3553 11 0
      vertex 21.3553 10.688 0
      vertex 22.8553 12.5 0
    endloop
  endfacet
  facet normal -0 0 -1
    outer loop
      vertex 22.8553 12.5 0
      vertex 21.3553 10.688 0
      vertex 21.3553 12.5 0
    endloop
  endfacet
  facet normal 0 -1 0
    outer loop
      vertex 21.3553 10.688 0
      vertex 24.3553 10.688 41
      vertex 21.3553 10.688 41
    endloop
  endfacet
  facet normal 0 -1 -0
    outer loop
      vertex 24.3553 10.688 41
      vertex 21.3553 10.688 0
      vertex 24.3553 10.688 0
    endloop
  endfacet
  facet normal 0 1 -0
    outer loop
      vertex 22.8553 12.5 0
      vertex 21.3553 12.5 41
      vertex 22.8553 12.5 41
    endloop
  endfacet
  facet normal 0 1 0
    outer loop
      vertex 21.3553 12.5 41
      vertex 22.8553 12.5 0
      vertex 21.3553 12.5 0
    endloop
  endfacet
  facet normal 0.707107 0.707107 0
    outer loop
      vertex 24.3553 11 41
      vertex 22.8553 12.5 0
      vertex 22.8553 12.5 41
    endloop
  endfacet
  facet normal 0.707107 0.707107 0
    outer loop
      vertex 22.8553 12.5 0
      vertex 24.3553 11 41
      vertex 24.3553 11 0
    endloop
  endfacet
endsolid OpenSCAD_Model
