solid OpenSCAD_Model
  facet normal 0 0 1
    outer loop
      vertex 70.7107 10.688 44
      vertex 93.566 12.5 44
      vertex 70.7107 12.5 44
    endloop
  endfacet
  facet normal 0 0 1
    outer loop
      vertex 93.566 12.5 44
      vertex 70.7107 10.688 44
      vertex 95.378 10.688 44
    endloop
  endfacet
  facet normal 0 1 -0
    outer loop
      vertex 93.566 12.5 41
      vertex 70.7107 12.5 44
      vertex 93.566 12.5 44
    endloop
  endfacet
  facet normal 0 1 0
    outer loop
      vertex 70.7107 12.5 44
      vertex 93.566 12.5 41
      vertex 70.7107 12.5 41
    endloop
  endfacet
  facet normal 0 0 -1
    outer loop
      vertex 70.7107 10.688 41
      vertex 93.566 12.5 41
      vertex 95.378 10.688 41
    endloop
  endfacet
  facet normal -0 0 -1
    outer loop
      vertex 93.566 12.5 41
      vertex 70.7107 10.688 41
      vertex 70.7107 12.5 41
    endloop
  endfacet
  facet normal 0 -1 0
    outer loop
      vertex 70.7107 10.688 41
      vertex 95.378 10.688 44
      vertex 70.7107 10.688 44
    endloop
  endfacet
  facet normal 0 -1 -0
    outer loop
      vertex 95.378 10.688 44
      vertex 70.7107 10.688 41
      vertex 95.378 10.688 41
    endloop
  endfacet
  facet normal 0.707106 0.707108 -0
    outer loop
      vertex 95.378 10.688 41
      vertex 93.566 12.5 44
      vertex 95.378 10.688 44
    endloop
  endfacet
  facet normal 0.707106 0.707108 0
    outer loop
      vertex 93.566 12.5 44
      vertex 95.378 10.688 41
      vertex 93.566 12.5 41
    endloop
  endfacet
  facet normal -1 0 0
    outer loop
      vertex 70.7107 10.688 41
      vertex 70.7107 12.5 44
      vertex 70.7107 12.5 41
    endloop
  endfacet
  facet normal -1 -0 0
    outer loop
      vertex 70.7107 12.5 44
      vertex 70.7107 10.688 41
      vertex 70.7107 10.688 44
    endloop
  endfacet
endsolid OpenSCAD_Model
