solid OpenSCAD_Model
  facet normal -1 0 0
    outer loop
      vertex 32.3553 0 8.2
      vertex 32.3553 1.812 41
      vertex 32.3553 1.812 8.2
    endloop
  endfacet
  facet normal -1 -0 0
    outer loop
      vertex 32.3553 1.812 41
      vertex 32.3553 0 8.2
      vertex 32.3553 0 41
    endloop
  endfacet
  facet normal 0 0 1
    outer loop
      vertex 32.3553 0 41
      vertex 33.5433 1.812 41
      vertex 32.3553 1.812 41
    endloop
  endfacet
  facet normal 0 0 1
    outer loop
      vertex 33.5433 1.812 41
      vertex 32.3553 0 41
      vertex 35.3553 0 41
    endloop
  endfacet
  facet normal 0 0 -1
    outer loop
      vertex 32.3553 0 8.2
      vertex 33.5433 1.812 8.2
      vertex 35.3553 0 8.2
    endloop
  endfacet
  facet normal -0 0 -1
    outer loop
      vertex 33.5433 1.812 8.2
      vertex 32.3553 0 8.2
      vertex 32.3553 1.812 8.2
    endloop
  endfacet
  facet normal 0 -1 0
    outer loop
      vertex 32.3553 0 8.2
      vertex 35.3553 0 41
      vertex 32.3553 0 41
    endloop
  endfacet
  facet normal 0 -1 -0
    outer loop
      vertex 35.3553 0 41
      vertex 32.3553 0 8.2
      vertex 35.3553 0 8.2
    endloop
  endfacet
  facet normal 0 1 -0
    outer loop
      vertex 33.5433 1.812 8.2
      vertex 32.3553 1.812 41
      vertex 33.5433 1.812 41
    endloop
  endfacet
  facet normal 0 1 0
    outer loop
      vertex 32.3553 1.812 41
      vertex 33.5433 1.812 8.2
      vertex 32.3553 1.812 8.2
    endloop
  endfacet
  facet normal 0.707107 0.707107 -0
    outer loop
      vertex 35.3553 0 8.2
      vertex 33.5433 1.812 41
      vertex 35.3553 0 41
    endloop
  endfacet
  facet normal 0.707107 0.707107 0
    outer loop
      vertex 33.5433 1.812 41
      vertex 35.3553 0 8.2
      vertex 33.5433 1.812 8.2
    endloop
  endfacet
endsolid OpenSCAD_Model
