solid OpenSCAD_Model
  facet normal -0 0 1
    outer loop
      vertex 107.566 1.812 22.1333
      vertex 138.421 0 22.1333
      vertex 138.421 1.812 22.1333
    endloop
  endfacet
  facet normal 0 0 1
    outer loop
      vertex 138.421 0 22.1333
      vertex 107.566 1.812 22.1333
      vertex 107.566 0 22.1333
    endloop
  endfacet
  facet normal 0 1 -0
    outer loop
      vertex 138.421 1.812 19.1333
      vertex 107.566 1.812 22.1333
      vertex 138.421 1.812 22.1333
    endloop
  endfacet
  facet normal 0 1 0
    outer loop
      vertex 107.566 1.812 22.1333
      vertex 138.421 1.812 19.1333
      vertex 107.566 1.812 19.1333
    endloop
  endfacet
  facet normal 0 0 -1
    outer loop
      vertex 107.566 0 19.1333
      vertex 138.421 1.812 19.1333
      vertex 138.421 0 19.1333
    endloop
  endfacet
  facet normal -0 0 -1
    outer loop
      vertex 138.421 1.812 19.1333
      vertex 107.566 0 19.1333
      vertex 107.566 1.812 19.1333
    endloop
  endfacet
  facet normal 0 -1 0
    outer loop
      vertex 107.566 0 19.1333
      vertex 138.421 0 22.1333
      vertex 107.566 0 22.1333
    endloop
  endfacet
  facet normal 0 -1 -0
    outer loop
      vertex 138.421 0 22.1333
      vertex 107.566 0 19.1333
      vertex 138.421 0 19.1333
    endloop
  endfacet
  facet normal -1 0 0
    outer loop
      vertex 107.566 0 19.1333
      vertex 107.566 1.812 22.1333
      vertex 107.566 1.812 19.1333
    endloop
  endfacet
  facet normal -1 -0 0
    outer loop
      vertex 107.566 1.812 22.1333
      vertex 107.566 0 19.1333
      vertex 107.566 0 22.1333
    endloop
  endfacet
  facet normal 1 -0 0
    outer loop
      vertex 138.421 0 22.1333
      vertex 138.421 1.812 19.1333
      vertex 138.421 1.812 22.1333
    endloop
  endfacet
  facet normal 1 0 0
    outer loop
      vertex 138.421 1.812 19.1333
      vertex 138.421 0 22.1333
      vertex 138.421 0 19.1333
    endloop
  endfacet
endsolid OpenSCAD_Model
