solid OpenSCAD_Model
  facet normal -0 0 1
    outer loop
      vertex 70.7107 1.812 8.2
      vertex 106.066 0 8.2
      vertex 106.066 1.812 8.2
    endloop
  endfacet
  facet normal 0 0 1
    outer loop
      vertex 106.066 0 8.2
      vertex 70.7107 1.812 8.2
      vertex 70.7107 0 8.2
    endloop
  endfacet
  facet normal 0 1 -0
    outer loop
      vertex 106.066 1.812 5.2
      vertex 70.7107 1.812 8.2
      vertex 106.066 1.812 8.2
    endloop
  endfacet
  facet normal 0 1 0
    outer loop
      vertex 70.7107 1.812 8.2
      vertex 106.066 1.812 5.2
      vertex 70.7107 1.812 5.2
    endloop
  endfacet
  facet normal 0 0 -1
    outer loop
      vertex 70.7107 0 5.2
      vertex 106.066 1.812 5.2
      vertex 106.066 0 5.2
    endloop
  endfacet
  facet normal -0 0 -1
    outer loop
      vertex 106.066 1.812 5.2
      vertex 70.7107 0 5.2
      vertex 70.7107 1.812 5.2
    endloop
  endfacet
  facet normal 0 -1 0
    outer loop
      vertex 70.7107 0 5.2
      vertex 106.066 0 8.2
      vertex 70.7107 0 8.2
    endloop
  endfacet
  facet normal 0 -1 -0
    outer loop
      vertex 106.066 0 8.2
      vertex 70.7107 0 5.2
      vertex 106.066 0 5.2
    endloop
  endfacet
  facet normal -1 0 0
    outer loop
      vertex 70.7107 0 5.2
      vertex 70.7107 1.812 8.2
      vertex 70.7107 1.812 5.2
    endloop
  endfacet
  facet normal -1 -0 0
    outer loop
      vertex 70.7107 1.812 8.2
      vertex 70.7107 0 5.2
      vertex 70.7107 0 8.2
    endloop
  endfacet
  facet normal 1 -0 0
    outer loop
      vertex 106.066 0 8.2
      vertex 106.066 1.812 5.2
      vertex 106.066 1.812 8.2
    endloop
  endfacet
  facet normal 1 0 0
    outer loop
      vertex 106.066 1.812 5.2
      vertex 106.066 0 8.2
      vertex 106.066 0 5.2
    endloop
  endfacet
endsolid OpenSCAD_Model
