solid OpenSCAD_Model
  facet normal -0 0 1
    outer loop
      vertex 11 11 44
      vertex 69.2107 1.5 44
      vertex 59.7107 11 44
    endloop
  endfacet
  facet normal 0 0 1
    outer loop
      vertex 69.2107 1.5 44
      vertex 11 11 44
      vertex 1.5 1.5 44
    endloop
  endfacet
  facet normal 0 1 -0
    outer loop
      vertex 59.7107 11 0
      vertex 11 11 44
      vertex 59.7107 11 44
    endloop
  endfacet
  facet normal 0 1 0
    outer loop
      vertex 11 11 44
      vertex 59.7107 11 0
      vertex 11 11 0
    endloop
  endfacet
  facet normal 0 0 -1
    outer loop
      vertex 69.2107 1.5 0
      vertex 11 11 0
      vertex 59.7107 11 0
    endloop
  endfacet
  facet normal 0 -0 -1
    outer loop
      vertex 11 11 0
      vertex 69.2107 1.5 0
      vertex 1.5 1.5 0
    endloop
  endfacet
  facet normal 0 -1 0
    outer loop
      vertex 1.5 1.5 0
      vertex 69.2107 1.5 44
      vertex 1.5 1.5 44
    endloop
  endfacet
  facet normal 0 -1 -0
    outer loop
      vertex 69.2107 1.5 44
      vertex 1.5 1.5 0
      vertex 69.2107 1.5 0
    endloop
  endfacet
  facet normal -0.707107 0.707107 0
    outer loop
      vertex 1.5 1.5 0
      vertex 11 11 44
      vertex 11 11 0
    endloop
  endfacet
  facet normal -0.707107 0.707107 0
    outer loop
      vertex 11 11 44
      vertex 1.5 1.5 0
      vertex 1.5 1.5 44
    endloop
  endfacet
  facet normal 0.707107 0.707107 0
    outer loop
      vertex 69.2107 1.5 44
      vertex 59.7107 11 0
      vertex 59.7107 11 44
    endloop
  endfacet
  facet normal 0.707107 0.707107 0
    outer loop
      vertex 59.7107 11 0
      vertex 69.2107 1.5 44
      vertex 69.2107 1.5 0
    endloop
  endfacet
endsolid OpenSCAD_Model
