solid OpenSCAD_Model
  facet normal -0 0 1
    outer loop
      vertex 1.51 1.51 5.2
      vertex 106.066 0 5.2
      vertex 104.556 1.51 5.2
    endloop
  endfacet
  facet normal 0 0 1
    outer loop
      vertex 106.066 0 5.2
      vertex 1.51 1.51 5.2
      vertex 0 0 5.2
    endloop
  endfacet
  facet normal 0 0 -1
    outer loop
      vertex 106.066 0 0
      vertex 1.51 1.51 0
      vertex 104.556 1.51 0
    endloop
  endfacet
  facet normal 0 -0 -1
    outer loop
      vertex 1.51 1.51 0
      vertex 106.066 0 0
      vertex 0 0 0
    endloop
  endfacet
  facet normal 0 -1 0
    outer loop
      vertex 0 0 0
      vertex 106.066 0 5.2
      vertex 0 0 5.2
    endloop
  endfacet
  facet normal 0 -1 -0
    outer loop
      vertex 106.066 0 5.2
      vertex 0 0 0
      vertex 106.066 0 0
    endloop
  endfacet
  facet normal 0 1 -0
    outer loop
      vertex 104.556 1.51 0
      vertex 1.51 1.51 5.2
      vertex 104.556 1.51 5.2
    endloop
  endfacet
  facet normal 0 1 0
    outer loop
      vertex 1.51 1.51 5.2
      vertex 104.556 1.51 0
      vertex 1.51 1.51 0
    endloop
  endfacet
  facet normal -0.707107 0.707107 0
    outer loop
      vertex 0 0 0
      vertex 1.51 1.51 5.2
      vertex 1.51 1.51 0
    endloop
  endfacet
  facet normal -0.707107 0.707107 0
    outer loop
      vertex 1.51 1.51 5.2
      vertex 0 0 0
      vertex 0 0 5.2
    endloop
  endfacet
  facet normal 0.707106 0.707107 -0
    outer loop
      vertex 106.066 0 0
      vertex 104.556 1.51 5.2
      vertex 106.066 0 5.2
    endloop
  endfacet
  facet normal 0.707106 0.707107 0
    outer loop
      vertex 104.556 1.51 5.2
      vertex 106.066 0 0
      vertex 104.556 1.51 0
    endloop
  endfacet
endsolid OpenSCAD_Model
