solid OpenSCAD_Model
  facet normal -1 0 0
    outer loop
      vertex 0 51.5 0
      vertex 0 61 38.8
      vertex 0 61 0
    endloop
  endfacet
  facet normal -1 -0 0
    outer loop
      vertex 0 61 38.8
      vertex 0 51.5 0
      vertex 0 51.5 38.8
    endloop
  endfacet
  facet normal 0 0 1
    outer loop
      vertex 61 61 38.8
      vertex 51.5 51.5 38.8
      vertex 61 0 38.8
    endloop
  endfacet
  facet normal -0 0 1
    outer loop
      vertex 0 61 38.8
      vertex 51.5 51.5 38.8
      vertex 61 61 38.8
    endloop
  endfacet
  facet normal 0 0 1
    outer loop
      vertex 51.5 51.5 38.8
      vertex 0 61 38.8
      vertex 0 51.5 38.8
    endloop
  endfacet
  facet normal 0 0 1
    outer loop
      vertex 61 0 38.8
      vertex 51.5 51.5 38.8
      vertex 51.5 0 38.8
    endloop
  endfacet
  facet normal 1 -0 0
    outer loop
      vertex 61 0 38.8
      vertex 61 61 0
      vertex 61 61 38.8
    endloop
  endfacet
  facet normal 1 0 0
    outer loop
      vertex 61 61 0
      vertex 61 0 38.8
      vertex 61 0 0
    endloop
  endfacet
  facet normal 0 1 -0
    outer loop
      vertex 61 61 0
      vertex 0 61 38.8
      vertex 61 61 38.8
    endloop
  endfacet
  facet normal 0 1 0
    outer loop
      vertex 0 61 38.8
      vertex 61 61 0
      vertex 0 61 0
    endloop
  endfacet
  facet normal 0 0 -1
    outer loop
      vertex 51.5 51.5 0
      vertex 61 0 0
      vertex 51.5 0 0
    endloop
  endfacet
  facet normal 0 0 -1
    outer loop
      vertex 61 0 0
      vertex 51.5 51.5 0
      vertex 61 61 0
    endloop
  endfacet
  facet normal 0 0 -1
    outer loop
      vertex 0 61 0
      vertex 51.5 51.5 0
      vertex 0 51.5 0
    endloop
  endfacet
  facet normal 0 0 -1
    outer loop
      vertex 51.5 51.5 0
      vertex 0 61 0
      vertex 61 61 0
    endloop
  endfacet
  facet normal 0 -1 0
    outer loop
      vertex 0 51.5 0
      vertex 51.5 51.5 38.8
      vertex 0 51.5 38.8
    endloop
  endfacet
  facet normal 0 -1 -0
    outer loop
      vertex 51.5 51.5 38.8
      vertex 0 51.5 0
      vertex 51.5 51.5 0
    endloop
  endfacet
  facet normal -1 0 0
    outer loop
      vertex 51.5 0 0
      vertex 51.5 51.5 38.8
      vertex 51.5 51.5 0
    endloop
  endfacet
  facet normal -1 -0 0
    outer loop
      vertex 51.5 51.5 38.8
      vertex 51.5 0 0
      vertex 51.5 0 38.8
    endloop
  endfacet
  facet normal 0 -1 0
    outer loop
      vertex 51.5 0 0
      vertex 61 0 38.8
      vertex 51.5 0 38.8
    endloop
  endfacet
  facet normal 0 -1 -0
    outer loop
      vertex 61 0 38.8
      vertex 51.5 0 0
      vertex 61 0 0
    endloop
  endfacet
endsolid OpenSCAD_Model
