solid OpenSCAD_Model
  facet normal -1 0 0
    outer loop
      vertex 0 76.5 0
      vertex 0 86 38.8
      vertex 0 86 0
    endloop
  endfacet
  facet normal -1 -0 0
    outer loop
      vertex 0 86 38.8
      vertex 0 76.5 0
      vertex 0 76.5 38.8
    endloop
  endfacet
  facet normal 0 0 1
    outer loop
      vertex 86 86 38.8
      vertex 76.5 76.5 38.8
      vertex 86 0 38.8
    endloop
  endfacet
  facet normal -0 0 1
    outer loop
      vertex 0 86 38.8
      vertex 76.5 76.5 38.8
      vertex 86 86 38.8
    endloop
  endfacet
  facet normal 0 0 1
    outer loop
      vertex 76.5 76.5 38.8
      vertex 0 86 38.8
      vertex 0 76.5 38.8
    endloop
  endfacet
  facet normal 0 0 1
    outer loop
      vertex 86 0 38.8
      vertex 76.5 76.5 38.8
      vertex 76.5 0 38.8
    endloop
  endfacet
  facet normal 1 -0 0
    outer loop
      vertex 86 0 38.8
      vertex 86 86 0
      vertex 86 86 38.8
    endloop
  endfacet
  facet normal 1 0 0
    outer loop
      vertex 86 86 0
      vertex 86 0 38.8
      vertex 86 0 0
    endloop
  endfacet
  facet normal 0 0 -1
    outer loop
      vertex 76.5 76.5 0
      vertex 86 0 0
      vertex 76.5 0 0
    endloop
  endfacet
  facet normal 0 0 -1
    outer loop
      vertex 86 0 0
      vertex 76.5 76.5 0
      vertex 86 86 0
    endloop
  endfacet
  facet normal 0 0 -1
    outer loop
      vertex 0 86 0
      vertex 76.5 76.5 0
      vertex 0 76.5 0
    endloop
  endfacet
  facet normal 0 0 -1
    outer loop
      vertex 76.5 76.5 0
      vertex 0 86 0
      vertex 86 86 0
    endloop
  endfacet
  facet normal 0 -1 0
    outer loop
      vertex 0 76.5 0
      vertex 76.5 76.5 38.8
      vertex 0 76.5 38.8
    endloop
  endfacet
  facet normal 0 -1 -0
    outer loop
      vertex 76.5 76.5 38.8
      vertex 0 76.5 0
      vertex 76.5 76.5 0
    endloop
  endfacet
  facet normal 0 1 -0
    outer loop
      vertex 86 86 0
      vertex 0 86 38.8
      vertex 86 86 38.8
    endloop
  endfacet
  facet normal 0 1 0
    outer loop
      vertex 0 86 38.8
      vertex 86 86 0
      vertex 0 86 0
    endloop
  endfacet
  facet normal -1 0 0
    outer loop
      vertex 76.5 0 0
      vertex 76.5 76.5 38.8
      vertex 76.5 76.5 0
    endloop
  endfacet
  facet normal -1 -0 0
    outer loop
      vertex 76.5 76.5 38.8
      vertex 76.5 0 0
      vertex 76.5 0 38.8
    endloop
  endfacet
  facet normal 0 -1 0
    outer loop
      vertex 76.5 0 0
      vertex 86 0 38.8
      vertex 76.5 0 38.8
    endloop
  endfacet
  facet normal 0 -1 -0
    outer loop
      vertex 86 0 38.8
      vertex 76.5 0 0
      vertex 86 0 0
    endloop
  endfacet
endsolid OpenSCAD_Model
