solid OpenSCAD_Model
  facet normal -1 0 0
    outer loop
      vertex 0 26.5 0
      vertex 0 36 38.8
      vertex 0 36 0
    endloop
  endfacet
  facet normal -1 -0 0
    outer loop
      vertex 0 36 38.8
      vertex 0 26.5 0
      vertex 0 26.5 38.8
    endloop
  endfacet
  facet normal 0 0 1
    outer loop
      vertex 36 36 38.8
      vertex 26.5 26.5 38.8
      vertex 36 0 38.8
    endloop
  endfacet
  facet normal -0 0 1
    outer loop
      vertex 0 36 38.8
      vertex 26.5 26.5 38.8
      vertex 36 36 38.8
    endloop
  endfacet
  facet normal 0 0 1
    outer loop
      vertex 26.5 26.5 38.8
      vertex 0 36 38.8
      vertex 0 26.5 38.8
    endloop
  endfacet
  facet normal 0 0 1
    outer loop
      vertex 36 0 38.8
      vertex 26.5 26.5 38.8
      vertex 26.5 0 38.8
    endloop
  endfacet
  facet normal 1 -0 0
    outer loop
      vertex 36 0 38.8
      vertex 36 36 0
      vertex 36 36 38.8
    endloop
  endfacet
  facet normal 1 0 0
    outer loop
      vertex 36 36 0
      vertex 36 0 38.8
      vertex 36 0 0
    endloop
  endfacet
  facet normal 0 1 -0
    outer loop
      vertex 36 36 0
      vertex 0 36 38.8
      vertex 36 36 38.8
    endloop
  endfacet
  facet normal 0 1 0
    outer loop
      vertex 0 36 38.8
      vertex 36 36 0
      vertex 0 36 0
    endloop
  endfacet
  facet normal 0 0 -1
    outer loop
      vertex 26.5 26.5 0
      vertex 36 0 0
      vertex 26.5 0 0
    endloop
  endfacet
  facet normal 0 0 -1
    outer loop
      vertex 36 0 0
      vertex 26.5 26.5 0
      vertex 36 36 0
    endloop
  endfacet
  facet normal 0 0 -1
    outer loop
      vertex 0 36 0
      vertex 26.5 26.5 0
      vertex 0 26.5 0
    endloop
  endfacet
  facet normal 0 0 -1
    outer loop
      vertex 26.5 26.5 0
      vertex 0 36 0
      vertex 36 36 0
    endloop
  endfacet
  facet normal 0 -1 0
    outer loop
      vertex 0 26.5 0
      vertex 26.5 26.5 38.8
      vertex 0 26.5 38.8
    endloop
  endfacet
  facet normal 0 -1 -0
    outer loop
      vertex 26.5 26.5 38.8
      vertex 0 26.5 0
      vertex 26.5 26.5 0
    endloop
  endfacet
  facet normal -1 0 0
    outer loop
      vertex 26.5 0 0
      vertex 26.5 26.5 38.8
      vertex 26.5 26.5 0
    endloop
  endfacet
  facet normal -1 -0 0
    outer loop
      vertex 26.5 26.5 38.8
      vertex 26.5 0 0
      vertex 26.5 0 38.8
    endloop
  endfacet
  facet normal 0 -1 0
    outer loop
      vertex 26.5 0 0
      vertex 36 0 38.8
      vertex 26.5 0 38.8
    endloop
  endfacet
  facet normal 0 -1 -0
    outer loop
      vertex 36 0 38.8
      vertex 26.5 0 0
      vertex 36 0 0
    endloop
  endfacet
endsolid OpenSCAD_Model
