solid OpenSCAD_Model
  facet normal -0 0 1
    outer loop
      vertex 1.5 23.5 17.5
      vertex 23.5 1.5 17.5
      vertex 23.5 23.5 17.5
    endloop
  endfacet
  facet normal 0 0 1
    outer loop
      vertex 23.5 1.5 17.5
      vertex 1.5 23.5 17.5
      vertex 1.5 1.5 17.5
    endloop
  endfacet
  facet normal 0 0 -1
    outer loop
      vertex 1.5 1.5 0
      vertex 23.5 23.5 0
      vertex 23.5 1.5 0
    endloop
  endfacet
  facet normal -0 0 -1
    outer loop
      vertex 23.5 23.5 0
      vertex 1.5 1.5 0
      vertex 1.5 23.5 0
    endloop
  endfacet
  facet normal 0 -1 0
    outer loop
      vertex 1.5 1.5 0
      vertex 23.5 1.5 17.5
      vertex 1.5 1.5 17.5
    endloop
  endfacet
  facet normal 0 -1 -0
    outer loop
      vertex 23.5 1.5 17.5
      vertex 1.5 1.5 0
      vertex 23.5 1.5 0
    endloop
  endfacet
  facet normal 1 -0 0
    outer loop
      vertex 23.5 1.5 17.5
      vertex 23.5 23.5 0
      vertex 23.5 23.5 17.5
    endloop
  endfacet
  facet normal 1 0 0
    outer loop
      vertex 23.5 23.5 0
      vertex 23.5 1.5 17.5
      vertex 23.5 1.5 0
    endloop
  endfacet
  facet normal 0 1 -0
    outer loop
      vertex 23.5 23.5 0
      vertex 1.5 23.5 17.5
      vertex 23.5 23.5 17.5
    endloop
  endfacet
  facet normal 0 1 0
    outer loop
      vertex 1.5 23.5 17.5
      vertex 23.5 23.5 0
      vertex 1.5 23.5 0
    endloop
  endfacet
  facet normal -1 0 0
    outer loop
      vertex 1.5 1.5 0
      vertex 1.5 23.5 17.5
      vertex 1.5 23.5 0
    endloop
  endfacet
  facet normal -1 -0 0
    outer loop
      vertex 1.5 23.5 17.5
      vertex 1.5 1.5 0
      vertex 1.5 1.5 17.5
    endloop
  endfacet
endsolid OpenSCAD_Model
