solid OpenSCAD_Model
  facet normal -1 0 0
    outer loop
      vertex 0.5 23.5 0
      vertex 0.5 26.5 17.5
      vertex 0.5 26.5 0
    endloop
  endfacet
  facet normal -1 -0 0
    outer loop
      vertex 0.5 26.5 17.5
      vertex 0.5 23.5 0
      vertex 0.5 23.5 17.5
    endloop
  endfacet
  facet normal -0 0 1
    outer loop
      vertex 0.5 26.5 17.5
      vertex 3.5 23.5 17.5
      vertex 3.5 26.5 17.5
    endloop
  endfacet
  facet normal 0 0 1
    outer loop
      vertex 3.5 23.5 17.5
      vertex 0.5 26.5 17.5
      vertex 0.5 23.5 17.5
    endloop
  endfacet
  facet normal 1 -0 0
    outer loop
      vertex 3.5 23.5 17.5
      vertex 3.5 26.5 0
      vertex 3.5 26.5 17.5
    endloop
  endfacet
  facet normal 1 0 0
    outer loop
      vertex 3.5 26.5 0
      vertex 3.5 23.5 17.5
      vertex 3.5 23.5 0
    endloop
  endfacet
  facet normal 0 1 -0
    outer loop
      vertex 3.5 26.5 0
      vertex 0.5 26.5 17.5
      vertex 3.5 26.5 17.5
    endloop
  endfacet
  facet normal 0 1 0
    outer loop
      vertex 0.5 26.5 17.5
      vertex 3.5 26.5 0
      vertex 0.5 26.5 0
    endloop
  endfacet
  facet normal 0 0 -1
    outer loop
      vertex 0.5 23.5 0
      vertex 3.5 26.5 0
      vertex 3.5 23.5 0
    endloop
  endfacet
  facet normal -0 0 -1
    outer loop
      vertex 3.5 26.5 0
      vertex 0.5 23.5 0
      vertex 0.5 26.5 0
    endloop
  endfacet
  facet normal 0 -1 0
    outer loop
      vertex 0.5 23.5 0
      vertex 3.5 23.5 17.5
      vertex 0.5 23.5 17.5
    endloop
  endfacet
  facet normal 0 -1 -0
    outer loop
      vertex 3.5 23.5 17.5
      vertex 0.5 23.5 0
      vertex 3.5 23.5 0
    endloop
  endfacet
  facet normal -1 0 0
    outer loop
      vertex 21.5 23.5 0
      vertex 21.5 26.5 17.5
      vertex 21.5 26.5 0
    endloop
  endfacet
  facet normal -1 -0 0
    outer loop
      vertex 21.5 26.5 17.5
      vertex 21.5 23.5 0
      vertex 21.5 23.5 17.5
    endloop
  endfacet
  facet normal -0 0 1
    outer loop
      vertex 21.5 26.5 17.5
      vertex 24.5 23.5 17.5
      vertex 24.5 26.5 17.5
    endloop
  endfacet
  facet normal 0 0 1
    outer loop
      vertex 24.5 23.5 17.5
      vertex 21.5 26.5 17.5
      vertex 21.5 23.5 17.5
    endloop
  endfacet
  facet normal 1 -0 0
    outer loop
      vertex 24.5 23.5 17.5
      vertex 24.5 26.5 0
      vertex 24.5 26.5 17.5
    endloop
  endfacet
  facet normal 1 0 0
    outer loop
      vertex 24.5 26.5 0
      vertex 24.5 23.5 17.5
      vertex 24.5 23.5 0
    endloop
  endfacet
  facet normal 0 0 -1
    outer loop
      vertex 21.5 23.5 0
      vertex 24.5 26.5 0
      vertex 24.5 23.5 0
    endloop
  endfacet
  facet normal -0 0 -1
    outer loop
      vertex 24.5 26.5 0
      vertex 21.5 23.5 0
      vertex 21.5 26.5 0
    endloop
  endfacet
  facet normal 0 -1 0
    outer loop
      vertex 21.5 23.5 0
      vertex 24.5 23.5 17.5
      vertex 21.5 23.5 17.5
    endloop
  endfacet
  facet normal 0 -1 -0
    outer loop
      vertex 24.5 23.5 17.5
      vertex 21.5 23.5 0
      vertex 24.5 23.5 0
    endloop
  endfacet
  facet normal 0 1 -0
    outer loop
      vertex 24.5 26.5 0
      vertex 21.5 26.5 17.5
      vertex 24.5 26.5 17.5
    endloop
  endfacet
  facet normal 0 1 0
    outer loop
      vertex 21.5 26.5 17.5
      vertex 24.5 26.5 0
      vertex 21.5 26.5 0
    endloop
  endfacet
  facet normal -1 0 0
    outer loop
      vertex 0.5 0.5 0
      vertex 0.5 3.5 17.5
      vertex 0.5 3.5 0
    endloop
  endfacet
  facet normal -1 -0 0
    outer loop
      vertex 0.5 3.5 17.5
      vertex 0.5 0.5 0
      vertex 0.5 0.5 17.5
    endloop
  endfacet
  facet normal -0 0 1
    outer loop
      vertex 0.5 3.5 17.5
      vertex 3.5 0.5 17.5
      vertex 3.5 3.5 17.5
    endloop
  endfacet
  facet normal 0 0 1
    outer loop
      vertex 3.5 0.5 17.5
      vertex 0.5 3.5 17.5
      vertex 0.5 0.5 17.5
    endloop
  endfacet
  facet normal 1 -0 0
    outer loop
      vertex 3.5 0.5 17.5
      vertex 3.5 3.5 0
      vertex 3.5 3.5 17.5
    endloop
  endfacet
  facet normal 1 0 0
    outer loop
      vertex 3.5 3.5 0
      vertex 3.5 0.5 17.5
      vertex 3.5 0.5 0
    endloop
  endfacet
  facet normal 0 0 -1
    outer loop
      vertex 0.5 0.5 0
      vertex 3.5 3.5 0
      vertex 3.5 0.5 0
    endloop
  endfacet
  facet normal -0 0 -1
    outer loop
      vertex 3.5 3.5 0
      vertex 0.5 0.5 0
      vertex 0.5 3.5 0
    endloop
  endfacet
  facet normal 0 -1 0
    outer loop
      vertex 0.5 0.5 0
      vertex 3.5 0.5 17.5
      vertex 0.5 0.5 17.5
    endloop
  endfacet
  facet normal 0 -1 -0
    outer loop
      vertex 3.5 0.5 17.5
      vertex 0.5 0.5 0
      vertex 3.5 0.5 0
    endloop
  endfacet
  facet normal 0 1 -0
    outer loop
      vertex 3.5 3.5 0
      vertex 0.5 3.5 17.5
      vertex 3.5 3.5 17.5
    endloop
  endfacet
  facet normal 0 1 0
    outer loop
      vertex 0.5 3.5 17.5
      vertex 3.5 3.5 0
      vertex 0.5 3.5 0
    endloop
  endfacet
  facet normal -1 0 0
    outer loop
      vertex 0.5 46.5 0
      vertex 0.5 49.5 17.5
      vertex 0.5 49.5 0
    endloop
  endfacet
  facet normal -1 -0 0
    outer loop
      vertex 0.5 49.5 17.5
      vertex 0.5 46.5 0
      vertex 0.5 46.5 17.5
    endloop
  endfacet
  facet normal -0 0 1
    outer loop
      vertex 0.5 49.5 17.5
      vertex 3.5 46.5 17.5
      vertex 3.5 49.5 17.5
    endloop
  endfacet
  facet normal 0 0 1
    outer loop
      vertex 3.5 46.5 17.5
      vertex 0.5 49.5 17.5
      vertex 0.5 46.5 17.5
    endloop
  endfacet
  facet normal 1 -0 0
    outer loop
      vertex 3.5 46.5 17.5
      vertex 3.5 49.5 0
      vertex 3.5 49.5 17.5
    endloop
  endfacet
  facet normal 1 0 0
    outer loop
      vertex 3.5 49.5 0
      vertex 3.5 46.5 17.5
      vertex 3.5 46.5 0
    endloop
  endfacet
  facet normal 0 1 -0
    outer loop
      vertex 3.5 49.5 0
      vertex 0.5 49.5 17.5
      vertex 3.5 49.5 17.5
    endloop
  endfacet
  facet normal 0 1 0
    outer loop
      vertex 0.5 49.5 17.5
      vertex 3.5 49.5 0
      vertex 0.5 49.5 0
    endloop
  endfacet
  facet normal 0 0 -1
    outer loop
      vertex 0.5 46.5 0
      vertex 3.5 49.5 0
      vertex 3.5 46.5 0
    endloop
  endfacet
  facet normal -0 0 -1
    outer loop
      vertex 3.5 49.5 0
      vertex 0.5 46.5 0
      vertex 0.5 49.5 0
    endloop
  endfacet
  facet normal 0 -1 0
    outer loop
      vertex 0.5 46.5 0
      vertex 3.5 46.5 17.5
      vertex 0.5 46.5 17.5
    endloop
  endfacet
  facet normal 0 -1 -0
    outer loop
      vertex 3.5 46.5 17.5
      vertex 0.5 46.5 0
      vertex 3.5 46.5 0
    endloop
  endfacet
  facet normal -1 0 0
    outer loop
      vertex 21.5 0.5 0
      vertex 21.5 3.5 17.5
      vertex 21.5 3.5 0
    endloop
  endfacet
  facet normal -1 -0 0
    outer loop
      vertex 21.5 3.5 17.5
      vertex 21.5 0.5 0
      vertex 21.5 0.5 17.5
    endloop
  endfacet
  facet normal -0 0 1
    outer loop
      vertex 21.5 3.5 17.5
      vertex 24.5 0.5 17.5
      vertex 24.5 3.5 17.5
    endloop
  endfacet
  facet normal 0 0 1
    outer loop
      vertex 24.5 0.5 17.5
      vertex 21.5 3.5 17.5
      vertex 21.5 0.5 17.5
    endloop
  endfacet
  facet normal 1 -0 0
    outer loop
      vertex 24.5 0.5 17.5
      vertex 24.5 3.5 0
      vertex 24.5 3.5 17.5
    endloop
  endfacet
  facet normal 1 0 0
    outer loop
      vertex 24.5 3.5 0
      vertex 24.5 0.5 17.5
      vertex 24.5 0.5 0
    endloop
  endfacet
  facet normal 0 0 -1
    outer loop
      vertex 21.5 0.5 0
      vertex 24.5 3.5 0
      vertex 24.5 0.5 0
    endloop
  endfacet
  facet normal -0 0 -1
    outer loop
      vertex 24.5 3.5 0
      vertex 21.5 0.5 0
      vertex 21.5 3.5 0
    endloop
  endfacet
  facet normal 0 -1 0
    outer loop
      vertex 21.5 0.5 0
      vertex 24.5 0.5 17.5
      vertex 21.5 0.5 17.5
    endloop
  endfacet
  facet normal 0 -1 -0
    outer loop
      vertex 24.5 0.5 17.5
      vertex 21.5 0.5 0
      vertex 24.5 0.5 0
    endloop
  endfacet
  facet normal 0 1 -0
    outer loop
      vertex 24.5 3.5 0
      vertex 21.5 3.5 17.5
      vertex 24.5 3.5 17.5
    endloop
  endfacet
  facet normal 0 1 0
    outer loop
      vertex 21.5 3.5 17.5
      vertex 24.5 3.5 0
      vertex 21.5 3.5 0
    endloop
  endfacet
  facet normal -1 0 0
    outer loop
      vertex 21.5 46.5 0
      vertex 21.5 49.5 17.5
      vertex 21.5 49.5 0
    endloop
  endfacet
  facet normal -1 -0 0
    outer loop
      vertex 21.5 49.5 17.5
      vertex 21.5 46.5 0
      vertex 21.5 46.5 17.5
    endloop
  endfacet
  facet normal -0 0 1
    outer loop
      vertex 21.5 49.5 17.5
      vertex 24.5 46.5 17.5
      vertex 24.5 49.5 17.5
    endloop
  endfacet
  facet normal 0 0 1
    outer loop
      vertex 24.5 46.5 17.5
      vertex 21.5 49.5 17.5
      vertex 21.5 46.5 17.5
    endloop
  endfacet
  facet normal 1 -0 0
    outer loop
      vertex 24.5 46.5 17.5
      vertex 24.5 49.5 0
      vertex 24.5 49.5 17.5
    endloop
  endfacet
  facet normal 1 0 0
    outer loop
      vertex 24.5 49.5 0
      vertex 24.5 46.5 17.5
      vertex 24.5 46.5 0
    endloop
  endfacet
  facet normal 0 1 -0
    outer loop
      vertex 24.5 49.5 0
      vertex 21.5 49.5 17.5
      vertex 24.5 49.5 17.5
    endloop
  endfacet
  facet normal 0 1 0
    outer loop
      vertex 21.5 49.5 17.5
      vertex 24.5 49.5 0
      vertex 21.5 49.5 0
    endloop
  endfacet
  facet normal 0 0 -1
    outer loop
      vertex 21.5 46.5 0
      vertex 24.5 49.5 0
      vertex 24.5 46.5 0
    endloop
  endfacet
  facet normal -0 0 -1
    outer loop
      vertex 24.5 49.5 0
      vertex 21.5 46.5 0
      vertex 21.5 49.5 0
    endloop
  endfacet
  facet normal 0 -1 0
    outer loop
      vertex 21.5 46.5 0
      vertex 24.5 46.5 17.5
      vertex 21.5 46.5 17.5
    endloop
  endfacet
  facet normal 0 -1 -0
    outer loop
      vertex 24.5 46.5 17.5
      vertex 21.5 46.5 0
      vertex 24.5 46.5 0
    endloop
  endfacet
endsolid OpenSCAD_Model
