solid OpenSCAD_Model
  facet normal -1 0 0
    outer loop
      vertex 0.7 2 0
      vertex 0.7 23 13.125
      vertex 0.7 23 0
    endloop
  endfacet
  facet normal -1 -0 0
    outer loop
      vertex 0.7 23 13.125
      vertex 0.7 2 0
      vertex 0.7 2 13.125
    endloop
  endfacet
  facet normal 1 -0 0
    outer loop
      vertex 17.5 2 5.375
      vertex 17.5 23 1
      vertex 17.5 23 5.375
    endloop
  endfacet
  facet normal 1 0 0
    outer loop
      vertex 17.5 23 1
      vertex 17.5 2 5.375
      vertex 17.5 2 1
    endloop
  endfacet
  facet normal 0 0 -1
    outer loop
      vertex 0.7 2 0
      vertex 23.5 23 0
      vertex 23.5 2 0
    endloop
  endfacet
  facet normal -0 0 -1
    outer loop
      vertex 23.5 23 0
      vertex 0.7 2 0
      vertex 0.7 23 0
    endloop
  endfacet
  facet normal 0 -1 0
    outer loop
      vertex 0.7 2 13.125
      vertex 5.5 2 9.75
      vertex 5.5 2 13.125
    endloop
  endfacet
  facet normal 0 -1 0
    outer loop
      vertex 5.5 2 9.75
      vertex 11.5 2 5.375
      vertex 11.5 2 9.75
    endloop
  endfacet
  facet normal 0 -1 0
    outer loop
      vertex 0.7 2 0
      vertex 5.5 2 9.75
      vertex 0.7 2 13.125
    endloop
  endfacet
  facet normal 0 -1 0
    outer loop
      vertex 11.5 2 5.375
      vertex 17.5 2 1
      vertex 17.5 2 5.375
    endloop
  endfacet
  facet normal 0 -1 -0
    outer loop
      vertex 5.5 2 9.75
      vertex 0.7 2 0
      vertex 11.5 2 5.375
    endloop
  endfacet
  facet normal 0 -1 -0
    outer loop
      vertex 11.5 2 5.375
      vertex 0.7 2 0
      vertex 17.5 2 1
    endloop
  endfacet
  facet normal 0 -1 0
    outer loop
      vertex 23.5 2 0
      vertex 17.5 2 1
      vertex 0.7 2 0
    endloop
  endfacet
  facet normal 0 -1 0
    outer loop
      vertex 17.5 2 1
      vertex 23.5 2 0
      vertex 23.5 2 1
    endloop
  endfacet
  facet normal 0 1 0
    outer loop
      vertex 23.5 23 1
      vertex 23.5 23 0
      vertex 17.5 23 1
    endloop
  endfacet
  facet normal 0 1 0
    outer loop
      vertex 17.5 23 5.375
      vertex 17.5 23 1
      vertex 11.5 23 5.375
    endloop
  endfacet
  facet normal 0 1 0
    outer loop
      vertex 11.5 23 9.75
      vertex 11.5 23 5.375
      vertex 5.5 23 9.75
    endloop
  endfacet
  facet normal 0 1 -0
    outer loop
      vertex 5.5 23 9.75
      vertex 0.7 23 13.125
      vertex 5.5 23 13.125
    endloop
  endfacet
  facet normal 0 1 0
    outer loop
      vertex 0.7 23 0
      vertex 5.5 23 9.75
      vertex 11.5 23 5.375
    endloop
  endfacet
  facet normal 0 1 0
    outer loop
      vertex 0.7 23 0
      vertex 11.5 23 5.375
      vertex 17.5 23 1
    endloop
  endfacet
  facet normal 0 1 0
    outer loop
      vertex 5.5 23 9.75
      vertex 0.7 23 0
      vertex 0.7 23 13.125
    endloop
  endfacet
  facet normal 0 1 0
    outer loop
      vertex 0.7 23 0
      vertex 17.5 23 1
      vertex 23.5 23 0
    endloop
  endfacet
  facet normal -0 0 1
    outer loop
      vertex 17.5 23 1
      vertex 23.5 2 1
      vertex 23.5 23 1
    endloop
  endfacet
  facet normal 0 0 1
    outer loop
      vertex 23.5 2 1
      vertex 17.5 23 1
      vertex 17.5 2 1
    endloop
  endfacet
  facet normal 1 -0 0
    outer loop
      vertex 23.5 2 1
      vertex 23.5 23 0
      vertex 23.5 23 1
    endloop
  endfacet
  facet normal 1 0 0
    outer loop
      vertex 23.5 23 0
      vertex 23.5 2 1
      vertex 23.5 2 0
    endloop
  endfacet
  facet normal 1 -0 0
    outer loop
      vertex 11.5 2 9.75
      vertex 11.5 23 5.375
      vertex 11.5 23 9.75
    endloop
  endfacet
  facet normal 1 0 0
    outer loop
      vertex 11.5 23 5.375
      vertex 11.5 2 9.75
      vertex 11.5 2 5.375
    endloop
  endfacet
  facet normal -0 0 1
    outer loop
      vertex 11.5 23 5.375
      vertex 17.5 2 5.375
      vertex 17.5 23 5.375
    endloop
  endfacet
  facet normal 0 0 1
    outer loop
      vertex 17.5 2 5.375
      vertex 11.5 23 5.375
      vertex 11.5 2 5.375
    endloop
  endfacet
  facet normal -0 0 1
    outer loop
      vertex 0.7 23 13.125
      vertex 5.5 2 13.125
      vertex 5.5 23 13.125
    endloop
  endfacet
  facet normal 0 0 1
    outer loop
      vertex 5.5 2 13.125
      vertex 0.7 23 13.125
      vertex 0.7 2 13.125
    endloop
  endfacet
  facet normal 1 -0 0
    outer loop
      vertex 5.5 2 13.125
      vertex 5.5 23 9.75
      vertex 5.5 23 13.125
    endloop
  endfacet
  facet normal 1 0 0
    outer loop
      vertex 5.5 23 9.75
      vertex 5.5 2 13.125
      vertex 5.5 2 9.75
    endloop
  endfacet
  facet normal -0 0 1
    outer loop
      vertex 5.5 23 9.75
      vertex 11.5 2 9.75
      vertex 11.5 23 9.75
    endloop
  endfacet
  facet normal 0 0 1
    outer loop
      vertex 11.5 2 9.75
      vertex 5.5 23 9.75
      vertex 5.5 2 9.75
    endloop
  endfacet
endsolid OpenSCAD_Model
