solid OpenSCAD_Model
  facet normal -1 0 0
    outer loop
      vertex 2 2 0
      vertex 2 23 17.5
      vertex 2 23 0
    endloop
  endfacet
  facet normal -1 -0 0
    outer loop
      vertex 2 23 17.5
      vertex 2 2 0
      vertex 2 2 17.5
    endloop
  endfacet
  facet normal 1 -0 0
    outer loop
      vertex 42.5 2 5.375
      vertex 42.5 23 1
      vertex 42.5 23 5.375
    endloop
  endfacet
  facet normal 1 0 0
    outer loop
      vertex 42.5 23 1
      vertex 42.5 2 5.375
      vertex 42.5 2 1
    endloop
  endfacet
  facet normal 0 0 -1
    outer loop
      vertex 2 2 0
      vertex 48.5 23 0
      vertex 48.5 2 0
    endloop
  endfacet
  facet normal -0 0 -1
    outer loop
      vertex 48.5 23 0
      vertex 2 2 0
      vertex 2 23 0
    endloop
  endfacet
  facet normal 0 -1 0
    outer loop
      vertex 2 2 17.5
      vertex 24.5 2 14.125
      vertex 24.5 2 17.5
    endloop
  endfacet
  facet normal 0 -1 0
    outer loop
      vertex 24.5 2 14.125
      vertex 30.5 2 9.75
      vertex 30.5 2 14.125
    endloop
  endfacet
  facet normal 0 -1 0
    outer loop
      vertex 2 2 0
      vertex 24.5 2 14.125
      vertex 2 2 17.5
    endloop
  endfacet
  facet normal 0 -1 0
    outer loop
      vertex 30.5 2 9.75
      vertex 36.5 2 5.375
      vertex 36.5 2 9.75
    endloop
  endfacet
  facet normal 0 -1 -0
    outer loop
      vertex 24.5 2 14.125
      vertex 2 2 0
      vertex 30.5 2 9.75
    endloop
  endfacet
  facet normal 0 -1 0
    outer loop
      vertex 36.5 2 5.375
      vertex 42.5 2 1
      vertex 42.5 2 5.375
    endloop
  endfacet
  facet normal 0 -1 -0
    outer loop
      vertex 30.5 2 9.75
      vertex 2 2 0
      vertex 36.5 2 5.375
    endloop
  endfacet
  facet normal 0 -1 -0
    outer loop
      vertex 36.5 2 5.375
      vertex 2 2 0
      vertex 42.5 2 1
    endloop
  endfacet
  facet normal 0 -1 0
    outer loop
      vertex 48.5 2 0
      vertex 42.5 2 1
      vertex 2 2 0
    endloop
  endfacet
  facet normal 0 -1 0
    outer loop
      vertex 42.5 2 1
      vertex 48.5 2 0
      vertex 48.5 2 1
    endloop
  endfacet
  facet normal 0 1 0
    outer loop
      vertex 48.5 23 1
      vertex 48.5 23 0
      vertex 42.5 23 1
    endloop
  endfacet
  facet normal 0 1 0
    outer loop
      vertex 42.5 23 5.375
      vertex 42.5 23 1
      vertex 36.5 23 5.375
    endloop
  endfacet
  facet normal 0 1 0
    outer loop
      vertex 36.5 23 9.75
      vertex 36.5 23 5.375
      vertex 30.5 23 9.75
    endloop
  endfacet
  facet normal 0 1 0
    outer loop
      vertex 30.5 23 14.125
      vertex 30.5 23 9.75
      vertex 24.5 23 14.125
    endloop
  endfacet
  facet normal 0 1 -0
    outer loop
      vertex 24.5 23 14.125
      vertex 2 23 17.5
      vertex 24.5 23 17.5
    endloop
  endfacet
  facet normal 0 1 0
    outer loop
      vertex 2 23 0
      vertex 24.5 23 14.125
      vertex 30.5 23 9.75
    endloop
  endfacet
  facet normal 0 1 0
    outer loop
      vertex 2 23 0
      vertex 30.5 23 9.75
      vertex 36.5 23 5.375
    endloop
  endfacet
  facet normal 0 1 0
    outer loop
      vertex 2 23 0
      vertex 36.5 23 5.375
      vertex 42.5 23 1
    endloop
  endfacet
  facet normal 0 1 0
    outer loop
      vertex 24.5 23 14.125
      vertex 2 23 0
      vertex 2 23 17.5
    endloop
  endfacet
  facet normal 0 1 0
    outer loop
      vertex 2 23 0
      vertex 42.5 23 1
      vertex 48.5 23 0
    endloop
  endfacet
  facet normal -0 0 1
    outer loop
      vertex 42.5 23 1
      vertex 48.5 2 1
      vertex 48.5 23 1
    endloop
  endfacet
  facet normal 0 0 1
    outer loop
      vertex 48.5 2 1
      vertex 42.5 23 1
      vertex 42.5 2 1
    endloop
  endfacet
  facet normal 1 -0 0
    outer loop
      vertex 48.5 2 1
      vertex 48.5 23 0
      vertex 48.5 23 1
    endloop
  endfacet
  facet normal 1 0 0
    outer loop
      vertex 48.5 23 0
      vertex 48.5 2 1
      vertex 48.5 2 0
    endloop
  endfacet
  facet normal 1 -0 0
    outer loop
      vertex 36.5 2 9.75
      vertex 36.5 23 5.375
      vertex 36.5 23 9.75
    endloop
  endfacet
  facet normal 1 0 0
    outer loop
      vertex 36.5 23 5.375
      vertex 36.5 2 9.75
      vertex 36.5 2 5.375
    endloop
  endfacet
  facet normal -0 0 1
    outer loop
      vertex 36.5 23 5.375
      vertex 42.5 2 5.375
      vertex 42.5 23 5.375
    endloop
  endfacet
  facet normal 0 0 1
    outer loop
      vertex 42.5 2 5.375
      vertex 36.5 23 5.375
      vertex 36.5 2 5.375
    endloop
  endfacet
  facet normal 1 -0 0
    outer loop
      vertex 30.5 2 14.125
      vertex 30.5 23 9.75
      vertex 30.5 23 14.125
    endloop
  endfacet
  facet normal 1 0 0
    outer loop
      vertex 30.5 23 9.75
      vertex 30.5 2 14.125
      vertex 30.5 2 9.75
    endloop
  endfacet
  facet normal -0 0 1
    outer loop
      vertex 30.5 23 9.75
      vertex 36.5 2 9.75
      vertex 36.5 23 9.75
    endloop
  endfacet
  facet normal 0 0 1
    outer loop
      vertex 36.5 2 9.75
      vertex 30.5 23 9.75
      vertex 30.5 2 9.75
    endloop
  endfacet
  facet normal -0 0 1
    outer loop
      vertex 2 23 17.5
      vertex 24.5 2 17.5
      vertex 24.5 23 17.5
    endloop
  endfacet
  facet normal 0 0 1
    outer loop
      vertex 24.5 2 17.5
      vertex 2 23 17.5
      vertex 2 2 17.5
    endloop
  endfacet
  facet normal 1 -0 0
    outer loop
      vertex 24.5 2 17.5
      vertex 24.5 23 14.125
      vertex 24.5 23 17.5
    endloop
  endfacet
  facet normal 1 0 0
    outer loop
      vertex 24.5 23 14.125
      vertex 24.5 2 17.5
      vertex 24.5 2 14.125
    endloop
  endfacet
  facet normal -0 0 1
    outer loop
      vertex 24.5 23 14.125
      vertex 30.5 2 14.125
      vertex 30.5 23 14.125
    endloop
  endfacet
  facet normal 0 0 1
    outer loop
      vertex 30.5 2 14.125
      vertex 24.5 23 14.125
      vertex 24.5 2 14.125
    endloop
  endfacet
endsolid OpenSCAD_Model
